<svg xmlns="http://www.w3.org/2000/svg" viewBox="0 0 563.98 367.48"><defs><style>.cls-1{fill:#2d9bd6;}</style></defs><title>binoRecurso 1</title><g id="Capa_2" data-name="Capa 2"><g id="Capa_1-2" data-name="Capa 1"><path class="cls-1" d="M434.86,367.48A129.18,129.18,0,0,1,306.48,250.22c-.39-3.88-.58-7.87-.58-11.81a119.8,119.8,0,0,1,6.18-39.23,34.88,34.88,0,0,0-14.95-14,34.68,34.68,0,0,0-45.31,14,128.22,128.22,0,0,1,3.63,13.31A131.1,131.1,0,0,1,258,238.35a122,122,0,0,1-.59,12.24A129,129,0,0,1,56.76,345.28C-2.19,305.46-17.75,225.11,22.06,166.16L64.89,88a88.35,88.35,0,0,1,40.86-36.89,85.8,85.8,0,0,1,46-44.78A85.31,85.31,0,0,1,260.53,48a60.62,60.62,0,0,1,43.35,0,85.36,85.36,0,0,1,154.3,1.88,88.28,88.28,0,0,1,43.31,37.63l56.83,113.2A129,129,0,0,1,446.7,366.94C442.73,367.31,438.77,367.48,434.86,367.48ZM282,170.34a46.09,46.09,0,0,1,41.31,25.88l1,2.12-.78,2.23a116.68,116.68,0,0,0-4,14.33,119.27,119.27,0,0,0-2.3,23.49c0,3.58.18,7.19.54,10.74A117.72,117.72,0,1,0,545.13,197L491.59,92.93A76.79,76.79,0,0,0,452,59.56l-2.28-.85-1-2.24A74,74,0,0,0,312,57.52l-2.31,5.67-5.47-2.75a49.15,49.15,0,0,0-44,0l-5.47,2.75-2.3-5.67A74,74,0,0,0,156,16.78a74.39,74.39,0,0,0-40.74,40.74l-.89,2.2-2.2.9A76.88,76.88,0,0,0,74.75,93.49L31.7,172C-4.9,226.27,9.29,299.59,63.08,335.92A117.71,117.71,0,0,0,246.16,249.5a110.72,110.72,0,0,0,.54-11.14,119.73,119.73,0,0,0-2.32-23.59,116.36,116.36,0,0,0-4-14.2l-.79-2.23,1-2.12A46.11,46.11,0,0,1,282,170.34Zm-152.9,168.9q-4.8,0-9.64-.46a100.82,100.82,0,0,1,9.45-201.2h5.23a101.39,101.39,0,0,1,88.57,63.73,97.3,97.3,0,0,1,5.08,16.87,102.6,102.6,0,0,1,2,20.18,93.78,93.78,0,0,1-.48,9.52,100.84,100.84,0,0,1-100.19,91.36Zm-.18-190.36A89.53,89.53,0,1,0,218,246.8v0a82.77,82.77,0,0,0,.42-8.41,91.13,91.13,0,0,0-1.75-17.94,86.07,86.07,0,0,0-4.5-14.92,90,90,0,0,0-78.39-56.63H128.9Zm305.59,190.3c-51.55,0-95.41-40.11-99.94-91.52a92.42,92.42,0,0,1-.47-9.31,102.51,102.51,0,0,1,2-20.14,97.59,97.59,0,0,1,5.16-17.11,101.35,101.35,0,0,1,87.94-63.4h6a101.51,101.51,0,0,1,87.3,50.43,100.77,100.77,0,0,1-87.31,151H435l0-5.65,0,5.65Zm-5-190.18A89.94,89.94,0,0,0,351.7,205.3a86.93,86.93,0,0,0-4.57,15.14,91.27,91.27,0,0,0-1.74,17.89,80.61,80.61,0,0,0,.42,8.25c4,45.69,42.94,81.29,88.69,81.29h.62a89.44,89.44,0,1,0,0-178.89Z"/><path class="cls-1" d="M495.51,181.47h-.34a82.47,82.47,0,0,0-60.21-26,83.43,83.43,0,0,0-79.59,59.08,80.94,80.94,0,0,0-3.5,23.78,83,83,0,1,0,147.88-51.63ZM435,292.85a54.68,54.68,0,0,1-54.79-54.51,52.87,52.87,0,0,1,2.32-15.59,55,55,0,0,1,52.47-39,54.39,54.39,0,0,1,42.76,20.5l1.36,1.69a53.49,53.49,0,0,1,10.68,32.31A54.68,54.68,0,0,1,435,292.85Z"/><path class="cls-1" d="M128.93,155.48a82.75,82.75,0,1,0,83,82.75,80.6,80.6,0,0,0-3.45-23.55A83.43,83.43,0,0,0,128.93,155.48Zm0,137.26a54.68,54.68,0,0,1-54.79-54.51,53.49,53.49,0,0,1,12.09-33.89,54.45,54.45,0,0,1,42.7-20.62,55,55,0,0,1,52.53,39,52.64,52.64,0,0,1,2.26,15.48,54.73,54.73,0,0,1-54.79,54.62Z"/></g></g></svg>