<?xml version="1.0" encoding="UTF-8"?>
<svg width="25px" height="27px" viewBox="0 0 25 27" version="1.1" xmlns="http://www.w3.org/2000/svg" xmlns:xlink="http://www.w3.org/1999/xlink">
    <!-- Generator: Sketch 55.2 (78181) - https://sketchapp.com -->
    <title>Icono descarga</title>
    <desc>Created with Sketch.</desc>
    <g id="Web" stroke="none" stroke-width="1" fill="none" fill-rule="evenodd">
        <g id="Antes-de-comenzar" transform="translate(-391.000000, -383.000000)" fill="#2D9BD6" fill-rule="nonzero">
            <g id="Icono-descarga" transform="translate(391.000000, 383.000000)">
                <path d="M24.9961643,25.3010121 L24.9961643,20.6027536 C24.9954284,20.1532166 24.7838797,19.7247295 24.4133585,19.4222937 C24.0428372,19.1198579 23.5475849,18.9714228 23.0489638,19.0133626 C22.1276386,19.1090852 21.4344252,19.812191 21.4405761,20.6447024 L21.4405761,23.807171 L3.5665734,23.807171 L3.5665734,20.6388762 C3.57272439,19.8063648 2.87951094,19.103259 1.95818576,19.0075364 C1.45737623,18.9637508 0.959301374,19.1121631 0.587079444,19.4160878 C0.214857514,19.7200124 0.00322484998,20.1510865 0.00449456036,20.6027536 L0.00449456036,25.2998469 C-0.00457924127,25.3967124 3.92438827e-05,25.4942224 0.0187740309,25.5899923 L0.0187740309,25.5899923 C0.120301843,26.3968762 0.88352728,27.0050663 1.78813025,26.9999682 L23.2177212,26.9999682 C24.1153836,27.0032248 24.8731059,26.4017625 24.9792886,25.6016447 L24.9792886,25.5876618 C24.9990036,25.4932015 25.0046783,25.3968116 24.9961643,25.3010121 Z M24.2107934,25.4909467 L24.2107934,25.5154168 C24.1464809,25.96252 23.7238347,26.2980866 23.2216156,26.3007904 L1.78813025,26.3007904 C1.28192804,26.2969656 0.857729541,25.9561165 0.797654243,25.5049296 L0.797654243,25.4897815 C0.789209364,25.4514281 0.785724613,25.4123279 0.787269174,25.3732572 L0.787269174,25.3487871 L0.787269174,20.6027536 C0.788231249,20.3498086 0.907635523,20.1088834 1.11629138,19.9388766 C1.32494723,19.7688698 1.60362336,19.6854507 1.88419214,19.7090125 C2.40861821,19.7645434 2.80118334,20.167261 2.79288572,20.6412066 L2.79288572,24.5063166 L22.2181582,24.5063166 L22.2181582,20.6388762 C22.2094941,20.1669068 22.5985164,19.7649525 23.1203611,19.706682 C23.4010222,19.6827519 23.6799313,19.7660436 23.8886837,19.936129 C24.0974361,20.1062144 24.2167215,20.3473602 24.2172841,20.6004231 L24.2172841,25.319656 L24.2172841,25.3685962 C24.2205256,25.4094665 24.2183468,25.4505378 24.2107934,25.4909467 Z" id="Shape"></path>
                <path d="M10.9142599,20.3674256 C11.243973,20.6980207 11.6797583,20.9122987 12.1514699,20.9757683 L12.1859474,20.9757683 C12.2255846,20.9841372 12.2660375,20.9884126 12.3066185,20.9885218 L12.439224,21 L12.7548253,21 L12.7813464,20.9872465 L12.8237802,20.9872465 C13.2829346,20.920997 13.7087978,20.7175457 14.0410993,20.4056861 L20.3531246,14.3350121 C21.2020952,13.5010149 21.2172951,12.1718343 20.387602,11.3200807 L20.3769936,11.3098778 C19.5081004,10.4861032 18.1124171,10.4861032 17.2435239,11.3098778 L14.7120835,13.7228432 L14.7120835,2.14264988 C14.7113198,1.57102975 14.4725289,1.02351958 14.0490557,0.622430661 C13.6334086,0.221234856 13.0678721,-0.00294520893 12.4790057,2.92252358e-05 C11.259207,0.0173810665 10.2775996,0.969388378 10.2697969,2.14264988 L10.2697969,13.7177418 L7.75029099,11.2945736 C6.87935679,10.4927887 5.50189495,10.507271 4.64939343,11.3271756 C3.79689191,12.1470803 3.78183387,13.4718725 4.61549526,14.309505 L10.9142599,20.3674256 Z M5.180395,11.8378734 C5.73703177,11.3074827 6.6340587,11.3074827 7.19069547,11.8378734 L11.0654303,15.5593497 L11.0654303,2.14264988 C11.0710842,1.38915923 11.7009493,0.777716592 12.4843099,0.765195853 C12.8615761,0.761453094 13.2243022,0.905045805 13.4894602,1.16317978 C13.7620849,1.42172516 13.9158379,1.77441838 13.9164501,2.14264988 L13.9164501,15.5593497 L17.8017934,11.8531777 C18.3574064,11.3257616 19.2494997,11.3223614 19.8094417,11.8455256 C20.344066,12.3975014 20.3347345,13.2557115 19.7882249,13.7968136 L13.5411763,19.8037201 L13.4828299,19.8611109 C13.2768886,20.0533077 13.0151937,20.1809307 12.7322823,20.2271369 L12.723,20.2271369 C12.6784367,20.2265032 12.6339447,20.2307823 12.5903944,20.2398904 L12.4896141,20.2398904 L12.3715952,20.2296876 L12.3397699,20.2143834 L12.2350115,20.2143834 C11.9484492,20.1691868 11.6852352,20.0347711 11.48579,19.8317778 L5.180395,13.7738573 C4.62891759,13.2385045 4.62891759,12.375777 5.180395,11.8404241 L5.180395,11.8378734 Z" id="Shape"></path>
            </g>
        </g>
    </g>
</svg>