<svg xmlns="http://www.w3.org/2000/svg" viewBox="0 0 155.6 155.3"><defs><style>.cls-1{fill:#fff;}</style></defs><title>eventosRecurso 1</title><g id="Capa_2" data-name="Capa 2"><g id="Capa_1-2" data-name="Capa 1"><path class="cls-1" d="M120.6,34.8h.1a7.59,7.59,0,0,0,7.2-7.2V7.4a7.4,7.4,0,0,0-14.8,0V27.6A7.36,7.36,0,0,0,120.6,34.8Z"/><path class="cls-1" d="M35.5,34.8a7.59,7.59,0,0,0,7.2-7.2V7.4a7.4,7.4,0,0,0-14.8,0V27.6A7.39,7.39,0,0,0,35.5,34.8Z"/><path class="cls-1" d="M60.9,93c-6.5,0-6.8,9.2-6.8,13.7s.4,13.7,6.8,13.7,6.8-9.2,6.8-13.7S67.4,93,60.9,93Z"/><path class="cls-1" d="M142.7,58.1H12.7A12.72,12.72,0,0,0,0,70.8V141a14.3,14.3,0,0,0,14.3,14.3H75.6a14.92,14.92,0,0,0,2.1-.2,14.92,14.92,0,0,0,2.1.2h61.3A14.3,14.3,0,0,0,155.4,141V70.8A12.72,12.72,0,0,0,142.7,58.1Zm-38,69.8H96.1V95.5H96L87.5,103l-5.1-5.9L96.3,85.4h8.4Zm-43.8.8c-12.6,0-15.8-11.9-15.8-22s3.3-22,15.8-22,15.8,11.9,15.8,22S73.5,128.7,60.9,128.7Z"/><path class="cls-1" d="M141.3,14.8H130.6V26.6a10.24,10.24,0,0,1-10.2,10.2,11.66,11.66,0,0,1-4.5-.9,9.92,9.92,0,0,1-5.7-9.3V14.8H45.5V26.6A10.24,10.24,0,0,1,35.3,36.8a11.66,11.66,0,0,1-4.5-.9,9.92,9.92,0,0,1-5.7-9.3V14.8H14.5A14.3,14.3,0,0,0,.2,29.1V36A17.31,17.31,0,0,0,17.3,53.5H138.1A17.58,17.58,0,0,0,155.6,36V29.1A14.3,14.3,0,0,0,141.3,14.8Z"/></g></g></svg>