<svg xmlns="http://www.w3.org/2000/svg" viewBox="0 0 293.69 53.57"><defs><style>.cls-1{fill:#fff;}.cls-2{fill:#2babd8;}</style></defs><title>gastro</title><g id="Capa_2" data-name="Capa 2"><g id="Capa_1-2" data-name="Capa 1"><path class="cls-1" d="M48.89,48.67a40.66,40.66,0,0,1-10.37,3.74,52.74,52.74,0,0,1-11,1.15,31.4,31.4,0,0,1-11-1.87,25.19,25.19,0,0,1-8.71-5.36,24.32,24.32,0,0,1-5.72-8.46A28.79,28.79,0,0,1,0,26.78,28.79,28.79,0,0,1,2.05,15.7,24.33,24.33,0,0,1,7.78,7.24a25.22,25.22,0,0,1,8.71-5.36A31.4,31.4,0,0,1,27.5,0,40.8,40.8,0,0,1,38.77,1.48a22.08,22.08,0,0,1,9,5.08l-7.92,8.64a15.8,15.8,0,0,0-5.18-3.6,18.48,18.48,0,0,0-7.2-1.22A16.69,16.69,0,0,0,21,11.59,14.63,14.63,0,0,0,16,15a15,15,0,0,0-3.2,5.22,18.77,18.77,0,0,0-1.12,6.55,18.68,18.68,0,0,0,1.12,6.59A15.06,15.06,0,0,0,16,38.56,14.6,14.6,0,0,0,21,42,16.67,16.67,0,0,0,27.5,43.2a21.48,21.48,0,0,0,6.34-.83,23.92,23.92,0,0,0,4.25-1.69V32.4H28.94V22H48.89Z"/><path class="cls-1" d="M75.53,1.3h9.29l22.18,51H94.32l-4.39-10.8H70.13l-4.25,10.8H53.5Zm4.32,14.83L73.66,32H86.11Z"/><path class="cls-1" d="M137.3,13.75a8,8,0,0,0-3.71-2.56,13.32,13.32,0,0,0-4.43-.83,11.69,11.69,0,0,0-2.52.29,9.7,9.7,0,0,0-2.45.9,5.33,5.33,0,0,0-1.87,1.62,4.1,4.1,0,0,0-.72,2.45,4.06,4.06,0,0,0,1.73,3.53,16.28,16.28,0,0,0,4.36,2.09q2.63.86,5.65,1.73A23.33,23.33,0,0,1,139,25.42a13.39,13.39,0,0,1,4.36,4.25,13,13,0,0,1,1.73,7.13,16.4,16.4,0,0,1-1.58,7.42,15.05,15.05,0,0,1-4.28,5.26,18.22,18.22,0,0,1-6.26,3.1,28.73,28.73,0,0,1-16.74-.5,23.08,23.08,0,0,1-7.92-4.9l8-8.78a11.65,11.65,0,0,0,4.36,3.56,12.24,12.24,0,0,0,8.21.94,9,9,0,0,0,2.52-1,5.43,5.43,0,0,0,1.8-1.66,4.13,4.13,0,0,0,.68-2.38,4.31,4.31,0,0,0-1.76-3.64A16.29,16.29,0,0,0,127.66,32Q125,31,121.9,30.1a25.82,25.82,0,0,1-5.76-2.52,13.87,13.87,0,0,1-4.43-4.18,11.94,11.94,0,0,1-1.76-6.84,15.31,15.31,0,0,1,1.62-7.2,15.64,15.64,0,0,1,4.32-5.18A18.8,18.8,0,0,1,122.11,1a25.51,25.51,0,0,1,7.27-1,28.61,28.61,0,0,1,8.35,1.22A19.27,19.27,0,0,1,145,5.33Z"/><path class="cls-1" d="M163.29,11.23H148.75V1.3h40.32v9.94H174.53v41H163.29Z"/><path class="cls-1" d="M194.76,1.3h19.73a34.82,34.82,0,0,1,7.38.76A17.54,17.54,0,0,1,228,4.57a12.57,12.57,0,0,1,4.18,4.75,16.11,16.11,0,0,1,1.55,7.45A15,15,0,0,1,230.9,26a12.64,12.64,0,0,1-8.21,4.79l13,21.53H222.19L211.53,31.9H206V52.27H194.76ZM206,22.39h6.62q1.51,0,3.2-.11a10,10,0,0,0,3.06-.65,5.3,5.3,0,0,0,2.27-1.69,5.15,5.15,0,0,0,.9-3.24,5.38,5.38,0,0,0-.79-3.1,5.3,5.3,0,0,0-2-1.76,9,9,0,0,0-2.81-.83,23,23,0,0,0-3.1-.22H206Z"/><path class="cls-2" d="M238.68,26.78a28.79,28.79,0,0,1,2.05-11.09,24.34,24.34,0,0,1,5.72-8.46,25.23,25.23,0,0,1,8.71-5.36,33.35,33.35,0,0,1,22,0,25.23,25.23,0,0,1,8.71,5.36,24.33,24.33,0,0,1,5.72,8.46,28.79,28.79,0,0,1,2.05,11.09,28.79,28.79,0,0,1-2.05,11.09,24.32,24.32,0,0,1-5.72,8.46,25.2,25.2,0,0,1-8.71,5.36,33.35,33.35,0,0,1-22,0,25.2,25.2,0,0,1-8.71-5.36,24.34,24.34,0,0,1-5.72-8.46A28.79,28.79,0,0,1,238.68,26.78Zm11.66,0a18.69,18.69,0,0,0,1.12,6.59,15.08,15.08,0,0,0,3.2,5.18,14.61,14.61,0,0,0,5,3.42,17.95,17.95,0,0,0,13,0,14.61,14.61,0,0,0,5-3.42,15.09,15.09,0,0,0,3.2-5.18A18.69,18.69,0,0,0,282,26.78a18.79,18.79,0,0,0-1.12-6.55A15,15,0,0,0,277.7,15a14.63,14.63,0,0,0-5-3.42,18,18,0,0,0-13,0,14.63,14.63,0,0,0-5,3.42,15,15,0,0,0-3.2,5.22A18.79,18.79,0,0,0,250.34,26.78Z"/></g></g></svg>