<svg xmlns="http://www.w3.org/2000/svg" viewBox="0 0 199.19 180.66"><defs><style>.cls-1{fill:#fff;}</style></defs><title>homeRecurso 1</title><g id="Capa_2" data-name="Capa 2"><g id="Capa_1-2" data-name="Capa 1"><path class="cls-1" d="M196.17,89.19,174,67,109.42,3.15A10.37,10.37,0,0,0,102.09,0h-1.27a10.23,10.23,0,0,0-7,2.78L25.28,67,3,89.22a10.28,10.28,0,1,0,14.56,14.53l4.65-4.65v71.28a10.29,10.29,0,0,0,10.28,10.28h134.2A10.29,10.29,0,0,0,177,170.38V99l4.37,4.43a10.63,10.63,0,0,0,14.44.7l.39-.37A10.29,10.29,0,0,0,196.17,89.19Z"/></g></g></svg>