<?xml version="1.0" encoding="UTF-8"?>
<svg width="375px" height="66px" viewBox="0 0 375 66" version="1.1" xmlns="http://www.w3.org/2000/svg" xmlns:xlink="http://www.w3.org/1999/xlink">
    <!-- Generator: Sketch 55.2 (78181) - https://sketchapp.com -->
    <title>Group 2</title>
    <desc>Created with Sketch.</desc>
    <g id="Web" stroke="none" stroke-width="1" fill="none" fill-rule="evenodd">
        <g id="1.1-Login-sin-datos" transform="translate(-165.000000, -57.000000)">
            <g id="Group-2" transform="translate(165.000000, 57.000000)">
                <g id="Group" transform="translate(95.000000, 23.000000)" fill="#333333" font-family="Avenir-Heavy, Avenir" font-size="14" font-weight="600" line-spacing="21">
                    <text id="Título">
                        <tspan x="0" y="14">Asociación Mexicana de Gastroenterología</tspan>
                    </text>
                </g>
                <g id="WebLogo">
                    <path d="M30.09,59.06 C29.5011884,58.650706 28.8443012,58.3493505 28.15,58.17 C27.97,58.47 26.86,60.45 28.07,61.73 C29.28,63.01 28.86,64.15 28.86,64.15 C28.86,64.15 30.51,62.38 31.95,64.05 C31.8208832,62.7584279 31.2811422,61.5422582 30.41,60.58 C30.1100699,60.1340807 29.9953153,59.5889961 30.09,59.06 Z" id="Path" fill="#9D7D20" fill-rule="nonzero"></path>
                    <rect id="Rectangle" x="11.86" y="3.42" width="31.53" height="46.34" rx="15.765"></rect>
                    <rect id="Rectangle" fill="#9D7D20" fill-rule="nonzero" x="11.86" y="3.42" width="31.53" height="46.34" rx="15.765"></rect>
                    <rect id="Rectangle" fill="#010139" fill-rule="nonzero" x="16.52" y="8.9" width="21.69" height="34.98" rx="10.845"></rect>
                    <path d="M33.08,15.22 L33,15.12 C32.2130419,14.5637316 31.3163903,14.1818876 30.37,14 C30.0699966,13.89 29.18,13.37 29.01,13.29 C28.1297722,12.8487191 27.1844114,12.5516057 26.21,12.41 C25.0824619,12.4475464 23.9767155,12.7308086 22.97,13.24 C21.1784001,14.2333467 20.0677519,16.1214486 20.0699966,18.17 C20.0699966,18.17 20.0699966,18.25 20.0699966,18.28 C20.0772129,18.6979857 20.1308759,19.1138738 20.23,19.52 L20.23,19.52 C20.5330682,20.744368 21.2371127,21.8321168 22.23,22.61 C23.1178385,23.1849476 24.0712819,23.6515978 25.0699966,24 L25.0699966,23.46 L25.0699966,22.6 L25.0699966,22.6 L25.0699966,22.47 L25.0699966,21.64 L25.0699966,21.64 L25.0699966,21.07 L25.0699966,20.68 C24.3397736,20.0369612 23.8939328,19.1308976 23.83,18.16 L23.83,18.16 C23.83,18.09 23.83,18.03 23.83,17.96 C23.8572635,17.2612931 24.1506228,16.5994457 24.65,16.11 C24.9449732,15.8445174 25.2831832,15.6314451 25.65,15.48 C25.809389,15.417922 25.973174,15.3677837 26.14,15.33 L26.55,15.26 L26.89,15.26 C28.1351425,15.2690056 29.2800044,15.9444742 29.89,17.03 C29.9433333,17.1233333 29.9933333,17.22 30.04,17.32 C30.282631,17.7331339 30.6268661,18.077369 31.04,18.32 L31.04,18.32 L31.13,18.37 L31.31,18.46 L31.4,18.46 C31.7169075,18.5943949 32.0559492,18.668984 32.4,18.68 L32.68,18.68 C32.8280279,18.6717225 32.9751605,18.6516589 33.12,18.62 L33.22,18.62 L33.49,18.54 L33.49,18.54 C33.5628698,18.5139667 33.6187172,18.4543961 33.64,18.38 C33.6733333,18.26 33.7,18.14 33.72,18.02 L33.72,18.02 L33.72,17.86 L33.72,17.86 C33.8533035,16.9490731 33.6583583,16.0204254 33.17,15.24 L33.08,15.22 Z M24.71,21.44 L24.71,22.85 L24.71,21.44 Z" id="Shape" fill="#DBD3A4" fill-rule="nonzero"></path>
                    <path d="M31.17,16.22 L31.11,16.22 C31.1813687,16.7398666 31.5901334,17.1486313 32.11,17.22 C32.1385695,16.9645116 32.0565174,16.7090011 31.8845395,16.5179145 C31.7125615,16.3268279 31.4670758,16.2184076 31.21,16.22 L31.17,16.22 Z" id="Path" fill="#070000" fill-rule="nonzero"></path>
                    <path d="M34.39,20.2 C34.39,20.15 33.83,19.59 33.76,19.54 C33.5107235,19.2988379 33.3699853,18.9668399 33.37,18.62 C33.37,18.62 33.37,18.55 33.37,18.52 L33.37,18.52 L33.1,18.6 L33.1,18.6 C32.9230478,18.6442544 32.7421823,18.6710493 32.56,18.68 L32.28,18.68 C32.5323166,18.8291317 32.7614172,19.0144337 32.96,19.23 L33.07,19.36 L33.14,19.45 C33.2243395,19.5579491 33.301186,19.6715483 33.37,19.79 L33.48,19.99 C33.7524382,20.5625587 33.8364587,21.2067156 33.72,21.83 C34.0824201,21.3960028 34.1888662,20.802946 34,20.27 C34.3894242,20.6225195 34.5577447,21.1580845 34.44,21.67 C34.782489,21.2398463 34.782489,20.6301537 34.44,20.2 L34.39,20.2 Z" id="Path" fill="#C2B877" fill-rule="nonzero"></path>
                    <path d="M29.26,17.77 C29.181265,16.5935768 28.204055,15.6795828 27.025,15.6795828 C25.845945,15.6795828 24.868735,16.5935768 24.79,17.77 C24.79,17.83 24.79,17.89 24.79,17.96 L25.73,39.07 L28.31,39.07 L29.26,17.77 Z" id="Path" fill="#C2B877" fill-rule="nonzero"></path>
                    <path d="M25.57,35.19 C25.57,35.19 19.57,33.14 23.83,29.08 C28.09,25.02 28.48,24.54 29.14,22.13 C29.14,22.13 33.95,26 28.21,29.3 C27.4369937,29.7358117 26.7788493,30.3493942 26.29,31.09 C25.5938868,32.3361457 25.3401142,33.7812399 25.57,35.19 Z" id="Path" fill="#DBD3A4" fill-rule="nonzero"></path>
                    <path d="M31.07,39.07 C31.07,39.07 31.01,38.86 30.59,38.81 C30.2356986,38.7716788 29.8942332,38.6555806 29.59,38.47 C29.3165911,38.3062988 29.0080227,38.2102997 28.69,38.19 C28.69,38.19 27.85,37.84 29.16,37.19 C29.650514,36.8764916 29.9800881,36.3648226 30.0626845,35.7885681 C30.145281,35.2123136 29.9727018,34.6286693 29.59,34.19 L29.59,34.19 C29.3616676,33.9219349 29.0831041,33.7011223 28.77,33.54 L28.59,33.47 L28.59,34.03 C28.2712968,35.2491446 27.5125339,36.307138 26.46,37 C24.75,38 25.21,41 27.75,40.26 C28.3426464,39.8751524 29.0454327,39.6959419 29.75,39.75 C30.67,40 31.27,39.76 31.07,39.07 Z" id="Path" fill="#DBD3A4" fill-rule="nonzero"></path>
                    <path d="M27.51,59 C24.182979,57.5483276 21.0353308,55.7161145 18.13,53.54 C15.353567,51.5180247 12.8319179,49.1676193 10.62,46.54 C8.10858755,43.5640679 6.18151503,40.1408 4.94,36.45 C2,27.29 3.88,17.12 10.67,6.22 L11.67,6.86 C5.11,17.45 3.23,27.27 6.1,36.07 C8.62,43.8 14.43,49.33 18.86,52.61 C21.6955021,54.72079 24.7618743,56.5022381 28,57.92 L27.51,59 Z" id="Path" fill="#9D7D20" fill-rule="nonzero"></path>
                    <path d="M44.79,6.09 L43.79,6.74 C50.44,17.35 52.35,27.21 49.49,36.04 C47,43.77 41.15,49.3 36.73,52.58 C34.8227776,53.9905264 32.8177273,55.2637333 30.73,56.39 C29.83,57.52 28.73,58.12 28.17,57.73 L28.11,57.73 L27.57,57.96 L28,59 C31.3309706,57.5458671 34.4820278,55.7102672 37.39,53.53 C40.1701311,51.5088855 42.6951904,49.1584313 44.91,46.53 C47.4261793,43.5424101 49.3535038,40.1051219 50.59,36.4 C53.6,27.23 51.64,17 44.79,6.09 Z" id="Path" fill="#9D7D20" fill-rule="nonzero"></path>
                    <path d="M11.19,7 C11.1227643,7.01137712 11.0548724,6.98378309 11.0146383,6.92872589 C10.9744041,6.8736687 10.9687369,6.80060277 11,6.74 C11.215893,6.23774596 11.4984314,5.76684866 11.84,5.34 C11.7392585,5.41096649 11.6223896,5.45565168 11.5,5.47 C11.4121383,5.47325574 11.3275438,5.43647549 11.27,5.37 C11.2639991,5.34367094 11.2639991,5.31632906 11.27,5.29 C11.0169234,3.91394399 11.9024573,2.58564311 13.27,2.29 L13.27,2.29 C13.9260925,2.09692948 14.5217243,1.73886181 15,1.25 C15.0335482,1.20653569 15.0850996,1.18075995 15.14,1.18 L15.19,1.18 C15.2626082,1.20077983 15.3145235,1.26467566 15.32,1.34 C15.3708128,2.06813952 15.2615888,2.79857474 15,3.48 C14.3035841,5.1269113 12.9460577,6.40458316 11.26,7 L11.19,7 Z" id="Path" fill="#002804" fill-rule="nonzero"></path>
                    <path d="M15.17,1.37 C15.17,1.37 15.54,5.03 11.17,6.81 C11.5073162,6.03555286 12.0209793,5.35066875 12.67,4.81 C12.8751662,4.65748879 13.0599972,4.47937891 13.22,4.28 C13.423037,4.05289419 13.5551377,3.77131121 13.6,3.47 C13.6,3.47 12,5.28 11.52,5.28 C11.4913727,5.29283427 11.4586273,5.29283427 11.43,5.28 C11.1896839,4.00476117 12.0108752,2.77075476 13.28,2.5 C13.9994805,2.29857862 14.6520163,1.90843818 15.17,1.37 L15.17,1.37 Z M15.17,0.99999996 C15.0570296,0.99999996 14.9502248,1.05150826 14.88,1.14 C14.412713,1.6190504 13.8257439,1.9643263 13.18,2.14 L13.18,2.14 C12.2317907,2.37627706 11.4744216,3.08820405 11.18,4.02 C11.0564331,4.43504761 11.0290738,4.87279657 11.1,5.3 C11.1131786,5.3590739 11.140648,5.41401281 11.18,5.46 C11.2484605,5.543336 11.3440263,5.59996756 11.45,5.62 C11.2294021,5.93493706 11.03858,6.26971273 10.88,6.62 C10.8377321,6.73257647 10.8528089,6.85867206 10.9204266,6.95810988 C10.9880444,7.0575477 11.099768,7.11792343 11.22,7.12 L11.36,7.12 C13.0801607,6.50605492 14.4652189,5.2007645 15.18,3.52 C15.4540207,2.82399712 15.5734454,2.07673947 15.53,1.33 C15.5202422,1.1766919 15.4167687,1.04536009 15.27,0.99999996 L15.17,0.99999996 Z" id="Shape" fill="#9D7D20" fill-rule="nonzero"></path>
                    <path d="M10.37,8.6 L10.31,8.6 C10.2606381,8.58407212 10.2205463,8.54762502 10.2,8.5 C10.1409467,8.36622732 10.1409467,8.21377268 10.2,8.08 C10.4,7.61 11.11,7.18 12.32,6.79 L12.32,6.79 L12.92,6.61 C12.81,6.61 12.66,6.61 12.62,6.43 C12.6038055,6.38817972 12.6038055,6.34182028 12.62,6.3 C12.9708158,5.66601737 13.6456931,5.28037318 14.37,5.3 C14.7113543,5.309401 15.0489849,5.37355081 15.37,5.49 C15.4431101,5.49809122 15.5168899,5.49809122 15.59,5.49 C15.7744377,5.48824002 15.9571627,5.45440205 16.13,5.39 L16.19,5.39 C16.2599871,5.38702381 16.325344,5.42492136 16.3575267,5.48714134 C16.3897095,5.54936132 16.3828718,5.62460088 16.34,5.68 C15.5756447,6.68311436 14.531961,7.43804562 13.34,7.85 C13.1776491,7.89885545 13.0094895,7.92576099 12.84,7.93 C11.9990717,7.94994742 11.1728482,8.15479623 10.42,8.53 L10.37,8.6 Z" id="Path" fill="#002804" fill-rule="nonzero"></path>
                    <path d="M14.42,5.51 C14.7617226,5.51590868 15.099923,5.58016675 15.42,5.7 C15.5096647,5.71098673 15.6003353,5.71098673 15.69,5.7 C15.8948396,5.69813146 16.0978195,5.66091847 16.29,5.59 C15.5208283,6.57248808 14.4764167,7.30357618 13.29,7.69 C13.1405722,7.73418299 12.9858065,7.7577343 12.83,7.76 C11.9604131,7.78313244 11.1066999,7.99826816 10.33,8.39 C10.33,8.39 10,7.72 12.4,7 C13.1530538,6.79105085 13.8886265,6.52356985 14.6,6.2 C14.0720637,6.31040511 13.5376583,6.38722588 13,6.43 C12.89,6.43 12.82,6.43 12.82,6.43 C13.1474707,5.86621056 13.7583744,5.52810033 14.41,5.55 L14.42,5.51 Z M14.41,5.18 C13.6309902,5.15103161 12.8983853,5.54993686 12.5,6.22 C12.4709941,6.30080931 12.4709941,6.38919069 12.5,6.47 L12.5,6.55 L12.3,6.61 L12.3,6.61 C11,7 10.29,7.48 10.06,8 C9.9778544,8.18112119 9.9778544,8.38887881 10.06,8.57 C10.1043418,8.66069451 10.183817,8.72933214 10.28,8.76 L10.39,8.76 C10.4490852,8.77481711 10.5109148,8.77481711 10.57,8.76 C11.2979672,8.39723904 12.096881,8.19921768 12.91,8.18 C13.0965405,8.17480819 13.281534,8.14453653 13.46,8.09 C14.7048148,7.67482359 15.7978875,6.89853308 16.6,5.86 C16.6814254,5.75020352 16.695681,5.60445814 16.6370741,5.48096486 C16.5784671,5.35747157 16.4565468,5.27635204 16.32,5.27 L16.27,5.27 L16.18,5.27 C16.0295528,5.32637237 15.87063,5.35680441 15.71,5.36 L15.54,5.36 C15.1902409,5.23346247 14.8218987,5.16587675 14.45,5.16 L14.41,5.18 Z" id="Shape" fill="#9D7D20" fill-rule="nonzero"></path>
                    <path d="M9.3,8.82004892 C9.23893283,8.82142167 9.18131186,8.7917763 9.14696388,8.74126456 C9.11261589,8.69075282 9.10622868,8.6262685 9.13,8.57 C9.2654038,7.68487466 9.09990501,6.77991322 8.66,6 C8.20285118,5.00997431 8.43723737,3.8380434 9.24,3.1 C9.51903988,2.8392228 9.68728676,2.48125072 9.71,2.1 C9.72800092,1.96057863 9.72800092,1.81942137 9.71,1.68 C9.71437415,1.5917413 9.7821681,1.51971023 9.87,1.51 L9.94,1.51 C10.5093517,1.79356802 10.9492091,2.28349052 11.17,2.88 C11.66,4.07 11.48,5.66 10.65,7.6 C10.6317056,7.64558032 10.5955803,7.68170561 10.55,7.7 L10.48,7.7 L10.41,7.7 C10.34,7.7 10.14,7.54 10,7.01 C10,8.49 9.48,8.76 9.37,8.8 L9.3,8.82004892 Z" id="Path" fill="#002804" fill-rule="nonzero"></path>
                    <path d="M9.87,1.69 C9.87,1.69 12.53,2.77 10.48,7.54 C10.48,7.54 9.75,7.22 10.16,3.78 C10.16,3.78 9.63,3.78 9.79,6.1 C9.95,8.42 9.3,8.64 9.3,8.64 C9.46615799,7.71273428 9.29971572,6.75657659 8.83,5.94 C8.39373366,5.01629668 8.61299498,3.91592969 9.37,3.23 C9.66880373,2.94925818 9.8538906,2.56840636 9.89,2.16 C9.90945528,2.0072838 9.90945528,1.8527162 9.89,1.7 L9.87,1.69 Z M9.89,1.33 C9.78227858,1.33148406 9.6805535,1.37984427 9.61139661,1.46244833 C9.54223973,1.54505239 9.51251978,1.65369597 9.53,1.76 C9.54569109,1.88283426 9.54569109,2.00716574 9.53,2.13 C9.50957744,2.46174999 9.36286015,2.77307692 9.12,3 C8.25173434,3.79164095 8.00037718,5.05653505 8.5,6.12 C8.916863,6.84311825 9.09203046,7.68041868 9,8.51 C8.95891546,8.61354069 8.96807715,8.73026839 9.02481242,8.82613143 C9.08154768,8.92199447 9.17946499,8.98619333 9.29,9 L9.43,9 C9.58,8.94 9.96,8.7 10.12,7.73 C10.1764126,7.80165159 10.2481727,7.85974305 10.33,7.9 C10.3794756,7.91024144 10.4305244,7.91024144 10.48,7.9 L10.61,7.9 C10.7005227,7.86245105 10.772451,7.79052272 10.81,7.7 C11.67,5.7 11.81,4.07 11.34,2.84 C11.1010064,2.18982876 10.6212643,1.65638418 10,1.35 L9.86,1.35 L9.89,1.33 Z" id="Shape" fill="#9D7D20" fill-rule="nonzero"></path>
                    <path d="M9.75,44.28 C9.70023434,44.2788363 9.65317257,44.2571154 9.62,44.22 C9.24926428,43.8238383 8.93313296,43.3799092 8.68,42.9 C8.71389352,43.0176067 8.71389352,43.1423933 8.68,43.26 C8.64602891,43.3369034 8.58035588,43.3952795 8.5,43.42 L8.38,43.42 C7.04483971,43.0885947 6.20171403,41.7712109 6.46,40.42 L6.46,40.42 C6.55481031,39.7182646 6.46163725,39.0039379 6.19,38.35 C6.15745358,38.2936678 6.15783765,38.224157 6.19100456,38.1681879 C6.22417147,38.1122187 6.28495887,38.0785026 6.35,38.0799521 L6.41,38.0799521 C7.09396243,38.3425636 7.71186837,38.752225 8.22,39.28 C9.44297506,40.5749356 10.0668968,42.3233674 9.94,44.1 C9.94012489,44.176389 9.89202033,44.2445371 9.82,44.27 L9.75,44.28 Z" id="Path" fill="#002804" fill-rule="nonzero"></path>
                    <path d="M6.36,38.27 C6.36,38.27 9.86,39.4 9.76,44.1 C9.17198152,43.4765905 8.7401691,42.7226323 8.5,41.9 C8.44443481,41.649882 8.35705697,41.4079126 8.24,41.18 C8.11280107,40.9039601 7.90773592,40.6710895 7.65,40.51 C7.65,40.51 8.86,43.12 8.43,43.24 C7.1886455,42.9332348 6.4086497,41.7037499 6.66,40.45 C6.76097969,39.7072017 6.66083209,38.9509146 6.37,38.26 L6.36,38.27 Z M6.37,37.89 C6.24240314,37.8929604 6.12534084,37.9614735 6.06027416,38.0712736 C5.99520747,38.1810736 5.9913243,38.3166559 6.05,38.43 C6.31429029,39.0613595 6.40074672,39.7530109 6.3,40.43 L6.3,40.43 C6.13716108,41.3845135 6.4772371,42.3556194 7.2,43 C7.53309067,43.2821421 7.92654111,43.4839993 8.35,43.59 L8.52,43.59 C8.62154444,43.5605165 8.70983135,43.4969499 8.77,43.41 C8.97998789,43.742115 9.22107236,44.0535158 9.49,44.34 C9.55872226,44.4095886 9.65220133,44.4491375 9.75,44.45 L9.88,44.45 C10.014986,44.3949201 10.1050438,44.2657067 10.11,44.12 C10.2354524,42.2984508 9.59371717,40.5073933 8.34,39.18 C7.81227852,38.6332843 7.17032362,38.2098673 6.46,37.94 L6.35,37.94 L6.37,37.89 Z" id="Shape" fill="#9D7D20" fill-rule="nonzero"></path>
                    <path d="M10.9,45.66 C10.7504359,45.6511895 10.6119397,45.5782968 10.52,45.46 C10.1110873,44.7083393 9.99699566,43.8312597 10.2,43 L10.2,43 C10.2,42.79 10.26,42.58 10.28,42.37 C10.17,42.59 10.1,42.59 10.03,42.59 L10.03,42.59 C9.98733089,42.5838193 9.94829763,42.5625284 9.92,42.53 C9.27546053,41.614128 9.45026225,40.3555557 10.32,39.65 C10.4615715,39.4320849 10.5410865,39.1797114 10.55,38.92 C10.5525132,38.8380657 10.610068,38.7681777 10.69,38.7499534 L10.69,38.7499534 C10.7557731,38.7485056 10.8171219,38.7830143 10.85,38.84 C11.4653735,39.9561144 11.7334914,41.2305452 11.62,42.5 C11.5987491,42.668407 11.5550266,42.8332069 11.49,42.99 C11.1740601,43.7698627 11.0340663,44.609825 11.08,45.45 C11.0857139,45.5010977 11.0693035,45.5521998 11.0349079,45.5904171 C11.0005123,45.6286344 10.9514152,45.6503185 10.9,45.65 L10.9,45.66 Z" id="Path" fill="#002804" fill-rule="nonzero"></path>
                    <path d="M10.7,38.94 C11.2903836,40.0248217 11.5477834,41.2596449 11.44,42.49 C11.4239151,42.6442952 11.3869089,42.795684 11.33,42.94 C11.0047314,43.7454267 10.8613176,44.6127389 10.91,45.48 L10.91,45.48 C10.91,45.48 10.15,45.48 10.39,43.04 C10.5094689,42.2757926 10.5696484,41.5034892 10.57,40.73 C10.57,40.73 10.2,42.42 10.03,42.42 L10.03,42.42 C10.03,42.42 9.03,41.26 10.43,39.78 C10.59714,39.5346591 10.6908066,39.2467211 10.7,38.95 L10.7,38.94 Z M10.7,38.58 L10.61,38.58 C10.4553582,38.6182534 10.3425609,38.7511931 10.33,38.91 C10.3218426,39.1297037 10.25634,39.3434491 10.14,39.53 C9.54454388,40.0857015 9.2477463,40.8907649 9.34,41.7 C9.38803828,42.0461767 9.52595209,42.373722 9.74,42.65 C9.79714258,42.7143725 9.87494085,42.7568079 9.96,42.77 L10,42.77 L10,43 L10,43 C9.78599358,43.8788061 9.91848813,44.806268 10.37,45.59 C10.4959809,45.744396 10.6810462,45.838743 10.88,45.85 L10.88,45.85 C10.9818083,45.8475853 11.0781202,45.8033158 11.1462455,45.727621 C11.2143708,45.6519262 11.2482857,45.5514993 11.24,45.45 C11.1982919,44.6402472 11.3348384,43.8312094 11.64,43.08 C11.7107023,42.9071029 11.7577924,42.7254698 11.78,42.54 C11.9044882,41.2271113 11.6328098,39.9070332 11,38.75 C10.9345706,38.6406073 10.8174403,38.5725962 10.69,38.57 L10.7,38.58 Z" id="Shape" fill="#9D7D20" fill-rule="nonzero"></path>
                    <path d="M10.67,46.74 C10.6217128,46.7414536 10.574868,46.7234363 10.54,46.69 C9.78422906,46.2116416 8.88993641,46.0003913 8,46.09 C6.90238795,46.118001 5.9139676,45.4293475 5.56,44.39 C5.43753215,44.0442788 5.19185383,43.7558739 4.87,43.58 C4.74688196,43.5136747 4.61583137,43.4632706 4.48,43.43 C4.41255344,43.4180013 4.35776472,43.3687574 4.33866468,43.3029683 C4.31956464,43.2371793 4.3394648,43.1662515 4.39,43.12 C4.85958591,42.7265874 5.45771904,42.520089 6.07,42.54 C7.37,42.54 8.78,43.34 10.25,44.91 C10.2854528,44.9439526 10.305501,44.9909116 10.305501,45.04 C10.305501,45.0890884 10.2854528,45.1360474 10.25,45.17 C10.1109037,45.2697816 9.94043998,45.3159488 9.77,45.3 L9.46,45.3 C10.8,45.93 10.85,46.47 10.85,46.59 C10.8460365,46.6626929 10.7986754,46.725841 10.73,46.75 L10.67,46.74 Z" id="Path" fill="#002804" fill-rule="nonzero"></path>
                    <path d="M6.09,42.72 C7.09,42.72 8.42,43.19 10.14,45.03 C10.0324742,45.0965474 9.90559055,45.1247438 9.78,45.11 C8.62287422,44.9467804 7.52194289,44.5077798 6.57,43.83 C6.57,43.83 6.38,44.32 8.57,45.09 C10.76,45.86 10.7,46.55 10.7,46.55 C9.90651038,46.0178321 8.94874546,45.787259 8,45.9 C6.97779826,45.9312175 6.05572255,45.2894203 5.73,44.32 C5.60189028,43.9424841 5.34295682,43.6232511 5,43.42 C4.86083352,43.3479457 4.71294349,43.2941675 4.56,43.26 C4.99457546,42.8999202 5.5459371,42.7113901 6.11,42.73 L6.09,42.72 Z M6.11,42.36 C5.44150792,42.3374941 4.78876174,42.5657769 4.28,43 C4.18604427,43.0940153 4.14973561,43.2312026 4.18488292,43.3593869 C4.22003023,43.4875713 4.32123232,43.587054 4.45,43.62 C4.57174949,43.6481758 4.68937773,43.6918663 4.8,43.75 C5.08067103,43.9046286 5.29434228,44.1574729 5.4,44.46 C5.77915042,45.5658191 6.83132975,46.2982978 8,46.27 C8.84213394,46.1803903 9.69012025,46.3739141 10.41,46.82 C10.4778166,46.8835483 10.567065,46.9192477 10.66,46.92 L10.79,46.92 C10.9218189,46.8664312 11.0112409,46.742018 11.02,46.6 C11.02,46.44 10.96,45.99 10.13,45.46 C10.2187923,45.4353508 10.3008462,45.390905 10.37,45.33 C10.5123348,45.1858866 10.5123348,44.9541134 10.37,44.81 C8.86,43.2 7.37,42.38 6.05,42.38 L6.11,42.36 Z" id="Shape" fill="#9D7D20" fill-rule="nonzero"></path>
                    <path d="M16.89,52.42 L16.89,52.42 C15.1169412,52.360326 13.4493893,51.5628011 12.29,50.22 C11.8204561,49.6607054 11.4791235,49.0053469 11.29,48.3 C11.2714239,48.2265945 11.3007729,48.1494119 11.363429,48.1068953 C11.426085,48.0643787 11.50865,48.0656196 11.57,48.11 C12.1811666,48.4474712 12.8722414,48.6133291 13.57,48.59 L13.68,48.59 C15.0375919,48.4924573 16.239058,49.4623682 16.43,50.81 C16.437621,50.839516 16.437621,50.870484 16.43,50.9 C16.3737512,51.0290115 16.2398135,51.1061272 16.1,51.09 L16.1,51.09 L15.89,51.09 C16.3014099,51.3858173 16.6742917,51.7318247 17,52.12 C17.0480937,52.1736918 17.0595186,52.2508973 17.0290361,52.3162169 C16.9985537,52.3815364 16.932043,52.422372 16.86,52.42 L16.89,52.42 Z" id="Path" fill="#002804" fill-rule="nonzero"></path>
                    <path d="M11.45,48.26 C12.0782226,48.6123765 12.7899391,48.7885782 13.51,48.77 L13.62,48.77 C14.8852287,48.6621016 16.0139484,49.5624422 16.19,50.82 C16.19,50.87 16.11,50.89 16.03,50.89 C15.1560345,50.6272216 14.3217597,50.2470884 13.55,49.76 C13.6841874,50.0350753 13.8963257,50.264602 14.16,50.42 C14.3744572,50.5624727 14.606363,50.6767452 14.85,50.76 C15.6224115,51.091572 16.3071171,51.5982542 16.85,52.24 C12.17,51.85 11.41,48.24 11.41,48.24 L11.45,48.26 Z M11.41,47.87 C11.3001896,47.8709839 11.1964899,47.9206952 11.126951,48.0056872 C11.0574121,48.0906792 11.0292198,48.2021692 11.05,48.31 C11.2331412,49.0417455 11.5744884,49.7244397 12.05,50.31 C13.2407629,51.6936363 14.9556236,52.5166245 16.78,52.58 L16.78,52.58 C16.9201946,52.5763135 17.046255,52.4936814 17.1055617,52.3665955 C17.1648685,52.2395096 17.1472266,52.0898164 17.06,51.98 C16.8029281,51.6837191 16.5183189,51.4125032 16.21,51.17 C16.3036182,51.1188054 16.3775097,51.0378766 16.42,50.94 C16.4331945,50.8841014 16.4331945,50.8258986 16.42,50.77 C16.3600284,50.3401948 16.2026954,49.9297611 15.96,49.57 C15.3985797,48.7666262 14.4579641,48.3152824 13.48,48.38 L13.37,48.38 C12.7740848,48.3972995 12.1831609,48.2667465 11.65,48 C11.5904764,47.9612133 11.5210445,47.9403837 11.45,47.94 L11.41,47.87 Z" id="Shape" fill="#9D7D20" fill-rule="nonzero"></path>
                    <path d="M15.11,53.93 C13.838804,53.9072144 12.6030976,53.5069152 11.56,52.78 C11.4918861,52.7351508 11.4624362,52.6501103 11.4882256,52.5727419 C11.5140151,52.4953735 11.5885993,52.445011 11.67,52.45 L11.74,52.45 C11.9765451,52.4549829 12.2104946,52.3999359 12.42,52.29 C12.8694469,51.9284201 13.4235626,51.7215035 14,51.7 C14.4859982,51.6952404 14.9551504,51.8778875 15.31,52.21 C15.3410335,52.2423747 15.3588641,52.285168 15.36,52.33 C15.36,52.45 15.36,52.52 15.13,52.59 L15.76,52.59 C16.6076476,52.4741691 17.4678669,52.6811929 18.17,53.17 C18.2723296,53.2733093 18.3267281,53.4147454 18.32,53.56 C18.3097685,53.6515289 18.2320972,53.7205701 18.14,53.72 L18.14,53.72 C17.8632541,53.6661754 17.5819309,53.6393827 17.3,53.64 C16.7422606,53.6435232 16.1874415,53.7208616 15.65,53.87 C15.4839628,53.9163616 15.3123884,53.9399111 15.14,53.94 L15.11,53.93 Z" id="Path" fill="#002804" fill-rule="nonzero"></path>
                    <path d="M14,51.88 C14.4327215,51.8774813 14.8504925,52.0381625 15.17,52.33 C15.17,52.5 13.43,52.69 13.43,52.69 C13.828752,52.764411 14.2349223,52.7912652 14.64,52.77 L15.75,52.77 C18.23,52.77 18.13,53.54 18.13,53.54 C17.8399746,53.4847197 17.5452395,53.4579256 17.25,53.46 C16.6752317,53.4647163 16.1036105,53.5454158 15.55,53.7 C15.4005722,53.744183 15.2458065,53.7677343 15.09,53.77 L15.09,53.77 C13.8593296,53.7451273 12.663103,53.3591355 11.65,52.66 L11.72,52.66 C11.9922771,52.6672241 12.261547,52.6016327 12.5,52.47 C12.9203584,52.1118007 13.4482536,51.9041619 14,51.88 L14,51.88 Z M14,51.51 C13.3786962,51.5322037 12.7816939,51.7569575 12.3,52.15 C12.1202017,52.2400978 11.9210538,52.2847344 11.72,52.28 L11.65,52.28 C11.4943289,52.2840507 11.3578558,52.385138 11.3086116,52.5328705 C11.2593674,52.6806031 11.3078936,52.8433568 11.43,52.94 C12.5060955,53.6873649 13.780017,54.0980827 15.09,54.12 L15.09,54.12 C15.2760866,54.1180575 15.4610709,54.0911507 15.64,54.04 C16.1608425,53.8930427 16.6988523,53.8157038 17.24,53.81 C17.5116355,53.806894 17.7829246,53.8303388 18.05,53.88 L18.12,53.88 C18.3025057,53.876737 18.4553623,53.7408645 18.48,53.56 C18.4978441,53.3609799 18.4285355,53.1639976 18.29,53.02 C17.92,52.59 17.08,52.38 15.75,52.37 L15.53,52.37 C15.532486,52.3433913 15.532486,52.3166087 15.53,52.29 C15.5244591,52.2040295 15.4890929,52.122687 15.43,52.06 C15.0401395,51.7022616 14.5291026,51.5057089 14,51.51 L14,51.51 Z" id="Shape" fill="#9D7D20" fill-rule="nonzero"></path>
                    <path d="M19.24,53.59 C19.12,53.59 18.59,53.48 18.1,52.08 C18.1,52.62 17.97,52.81 17.92,52.86 C17.8811775,52.8737258 17.8388225,52.8737258 17.8,52.86 L17.8,52.86 C17.7502343,52.8588363 17.7031726,52.8371154 17.67,52.8 C16.28,51.2 15.67,49.74 15.74,48.46 C15.7700175,47.823619 16.041859,47.2227061 16.5,46.78 C16.5388225,46.7662742 16.5811775,46.7662742 16.62,46.78 L16.69,46.78 C16.7516622,46.805712 16.7940113,46.8634608 16.8,46.93 C16.8155367,47.070403 16.8491483,47.2082104 16.9,47.34 C17.0406071,47.6775461 17.3004273,47.9516031 17.63,48.11 C18.6266777,48.5687792 19.2098627,49.6217523 19.07,50.71 C18.8790483,51.5823167 18.995637,52.4938282 19.4,53.29 C19.4480937,53.3436918 19.4595186,53.4208973 19.4290361,53.4862169 C19.3985537,53.5515364 19.332043,53.592372 19.26,53.59 L19.24,53.59 Z" id="Path" fill="#002804" fill-rule="nonzero"></path>
                    <path d="M16.6,47 C16.6205638,47.15452 16.6608939,47.3057579 16.72,47.45 C16.8786523,47.8275046 17.1704738,48.1335613 17.54,48.31 C18.4674031,48.7362758 19.0072717,49.7185931 18.87,50.73 C18.6686268,51.6519264 18.7996825,52.6153624 19.24,53.45 C19.24,53.45 18.55,53.45 18.01,51.18 C17.53,49.18 17.07,49.08 17.01,49.08 L17.01,49.08 C18.44,52.23 17.84,52.76 17.84,52.76 C14.39,48.79 16.6,47 16.6,47 L16.6,47 Z M16.6,46.63 C16.5165028,46.6299509 16.4354438,46.6581454 16.37,46.71 C15.8751357,47.1830744 15.578458,47.8264716 15.54,48.51 C15.43,49.84 16.09,51.35 17.54,52.99 C17.602925,53.0646112 17.692782,53.1113369 17.79,53.12 L17.79,53.12 C17.8714665,53.1046549 17.9454197,53.0623959 18,53 C18.0668302,52.9357297 18.1181297,52.8570703 18.15,52.77 C18.59,53.66 19.03,53.7700025 19.15,53.7700025 L19.15,53.7700025 C19.2888073,53.7705122 19.4162242,53.6932898 19.48,53.57 C19.5565152,53.4512588 19.5565152,53.2987412 19.48,53.18 C19.116609,52.4140173 19.0113467,51.5508662 19.18,50.72 C19.3307497,49.5560972 18.7066671,48.4295065 17.64,47.94 C17.3516176,47.802852 17.1238028,47.5643584 17,47.27 C16.9548102,47.1543164 16.924566,47.0333395 16.91,46.91 C16.8906678,46.7791767 16.802983,46.6686176 16.68,46.62 L16.55,46.62 L16.6,46.63 Z" id="Shape" fill="#9D7D20" fill-rule="nonzero"></path>
                    <path d="M4.65,33.65 C4.58206958,33.6495293 4.52019039,33.6108548 4.49,33.55 C4.27049474,33.129431 4.10581882,32.6824535 4,32.22 C3.98116939,32.3039886 3.94356211,32.3826221 3.89,32.45 C3.83781117,32.5122061 3.76118846,32.5486931 3.68,32.55 L3.68,32.55 L3.6,32.55 C2.5353454,31.8942536 2.16328638,30.524201 2.75,29.42 L2.75,29.42 C3.02222302,28.8399886 3.13607838,28.1982584 3.08,27.56 C3.06221738,27.4847131 3.09452752,27.4064836 3.1602544,27.3656877 C3.22598129,27.3248917 3.31042413,27.3306538 3.37,27.38 C3.89099735,27.7924252 4.31442468,28.3148799 4.61,28.91 C5.31270557,30.3649225 5.37435378,32.047556 4.78,33.55 C4.75584101,33.6186754 4.69269292,33.6660365 4.62,33.67 L4.65,33.65 Z" id="Path" fill="#002804" fill-rule="nonzero"></path>
                    <path d="M3.3,27.51 C3.3,27.51 6.01,29.44 4.64,33.51 C4.30216584,32.8124709 4.13425418,32.0448747 4.15,31.27 C4.17896898,31.0409122 4.17896898,30.8090878 4.15,30.58 C4.11476811,30.3063597 4.00002997,30.0490682 3.82,29.84 C3.82,29.84 4.15,32.42 3.75,32.42 L3.75,32.42 C2.73662679,31.8062719 2.40279426,30.4931973 3,29.47 C3.29639354,28.8475731 3.41740287,28.1560912 3.35,27.47 L3.3,27.51 Z M3.35,27.1 C3.24227858,27.1014841 3.1405535,27.1498443 3.07139661,27.2324483 C3.00223973,27.3150524 2.97251978,27.423696 2.99,27.53 C3.04068754,28.1281721 2.93019031,28.7290008 2.67,29.27 L2.67,29.27 C2.25270624,30.0693659 2.28303758,31.0285948 2.75,31.8 C2.96318946,32.1369849 3.25048619,32.4208614 3.59,32.63 C3.64589861,32.6431945 3.70410139,32.6431945 3.76,32.63 L3.76,32.63 C3.8348093,32.6651183 3.91784473,32.6789575 4,32.67 C4.08819794,33.0139396 4.2087349,33.3487645 4.36,33.67 C4.4237758,33.7932898 4.55119274,33.8705122 4.69,33.8700025 L4.69,33.8700025 C4.84117686,33.8495026 4.96427403,33.738318 5,33.59 C5.60517977,32.0405996 5.53999186,30.3094985 4.82,28.81 C4.51013461,28.1872124 4.0661679,27.6407918 3.52,27.21 C3.45878351,27.1657834 3.38550318,27.1413566 3.31,27.14 L3.35,27.1 Z" id="Shape" fill="#9D7D20" fill-rule="nonzero"></path>
                    <path d="M5.44,34.21 L5.39,34.21 C5.26143125,34.1602148 5.15978517,34.0585687 5.11,33.93 C4.95124826,33.1653377 5.08695886,32.3689308 5.49,31.7 L5.49,31.7 L5.7,31.25 C5.65552843,31.2959514 5.59393379,31.3213139 5.53,31.32 L5.44,31.32 C5.40004056,31.3019617 5.36803834,31.2699594 5.35,31.23 C5.06691947,30.2567032 5.55672725,29.225529 6.49,28.83 C6.66828147,28.6820656 6.80307216,28.48852 6.88,28.27 C6.89124577,28.204833 6.93731966,28.1510802 7,28.13 L7,28.13 C7.08193434,28.1325132 7.15182234,28.190068 7.17,28.27 C7.3973577,29.4086169 7.2789498,30.5892133 6.83,31.66 C6.76520953,31.8040631 6.68110356,31.9386326 6.58,32.06 C6.10476211,32.6457368 5.7634467,33.3283676 5.58,34.06 C5.57122394,34.1094017 5.5422262,34.1528983 5.5,34.18 L5.44,34.21 Z" id="Path" fill="#002804" fill-rule="nonzero"></path>
                    <path d="M7,28.32 C7.21404609,29.418731 7.0992567,30.5561895 6.67,31.59 C6.61341739,31.7194662 6.53939854,31.840588 6.45,31.95 C5.96934542,32.5524432 5.62478957,33.2517892 5.44,34 C5.44,34 4.77,33.81 5.66,31.75 C5.97574674,31.1052464 6.23990681,30.4364867 6.45,29.75 C6.45,29.75 5.69,31.07 5.53,31.07 L5.53,31.07 C5.53,31.07 5,29.87 6.58,29 C6.78265657,28.8185874 6.92851738,28.5824318 7,28.32 L7,28.32 Z M7,28 C6.85062998,28.001007 6.71651628,28.091731 6.66,28.23 C6.59594912,28.4117927 6.48566414,28.5737738 6.34,28.7 C5.66873118,29.0247481 5.19043408,29.6476467 5.05,30.38 C4.99863849,30.6958584 5.02963749,31.0196258 5.14,31.32 C5.17431493,31.3977418 5.23434432,31.4613023 5.31,31.5 L5.31,31.5 L5.25,31.64 L5.25,31.64 C4.84504608,32.3568718 4.73391984,33.2028652 4.94,34 C5.01382399,34.1751851 5.15960216,34.3100299 5.34,34.37 L5.44,34.37 C5.61305227,34.3694162 5.76258407,34.24896 5.8,34.08 C5.98776771,33.3711181 6.32916759,32.7122163 6.8,32.15 C6.9093969,32.0161565 7.00021763,31.8681524 7.07,31.71 C7.53370102,30.6044969 7.65560732,29.3854339 7.42,28.21 C7.35598673,28.0761603 7.21821772,27.9934989 7.07,28 L7,28 Z" id="Shape" fill="#9D7D20" fill-rule="nonzero"></path>
                    <path d="M4.77,36.0000466 C4.70422686,36.0014944 4.64287808,35.9669857 4.61,35.91 C4.09749849,35.2942489 3.39327406,34.8681931 2.61,34.7 C1.65183039,34.4312567 0.976900752,33.5744598 0.94,32.58 C0.929814836,32.2509868 0.797982412,31.9374394 0.57,31.7 C0.480315542,31.6107414 0.379482014,31.5334357 0.27,31.47 C0.210101033,31.4391288 0.172462113,31.3773863 0.172462113,31.31 C0.172462113,31.2426137 0.210101033,31.1808712 0.27,31.15 C0.54212387,31.0372829 0.835785283,30.9860629 1.13,31 C2.13,31 3.57,31.58 4.89,34.32 C4.9102379,34.3637149 4.91210892,34.4137178 4.8951945,34.4588229 C4.87828009,34.5039281 4.84399181,34.5403712 4.8,34.56 C4.74395567,34.571877 4.68604433,34.571877 4.63,34.56 C4.46675599,34.5526938 4.30676595,34.5118453 4.16,34.44 C5.07,35.32 4.97,35.78 4.94,35.88 C4.91584101,35.9486754 4.85269292,35.9960365 4.78,36.0000466 L4.77,36.0000466 Z" id="Path" fill="#002804" fill-rule="nonzero"></path>
                    <path d="M1.13,31.17 C1.98,31.17 3.41,31.66 4.72,34.39 L4.63,34.39 C4.39,34.39 3.63,34.2 1.96,32.39 C1.96,32.39 1.66,32.76 3.32,34.02 C4.98,35.28 4.76,35.87 4.76,35.87 C4.76,35.87 4.36,35.13 2.64,34.58 C1.74253188,34.326951 1.11941039,33.5124131 1.11,32.58 C1.0986781,32.2061546 0.949015166,31.8498143 0.69,31.58 C0.591527857,31.4796262 0.480629145,31.3922515 0.36,31.32 C0.602806241,31.2149278 0.865508043,31.1637522 1.13,31.17 L1.13,31.17 Z M1.13,30.8 C0.809057045,30.7973936 0.491497676,30.8656859 0.2,31 C0.0859397963,31.0662054 0.0157417562,31.1881179 0.0157417562,31.32 C0.0157417562,31.4518821 0.0859397963,31.5737946 0.2,31.64 C0.294824183,31.6953313 0.382197048,31.7625411 0.46,31.84 C0.656949898,32.0450645 0.770951826,32.315819 0.78,32.6 C0.803779097,33.6765992 1.5250214,34.6125935 2.56,34.91 C3.28979376,35.0633352 3.95178566,35.4451189 4.45,36 C4.51473589,36.1162724 4.63692629,36.1888229 4.77,36.19 L4.77,36.19 C4.9101944,36.1962695 5.04186927,36.1226865 5.11,36 C5.16,35.86 5.23,35.46 4.69,34.79 C4.75283556,34.8012295 4.81716444,34.8012295 4.88,34.79 C5.06463031,34.7040413 5.1450811,34.4850364 5.06,34.3 C4.61406022,33.2001431 3.90703086,32.2254036 3,31.46 C2.47319941,31.048582 1.82819687,30.8172224 1.16,30.8 L1.13,30.8 Z" id="Shape" fill="#9D7D20" fill-rule="nonzero"></path>
                    <path d="M7.27,14.6700177 C7.21657758,14.6707482 7.16558348,14.6477254 7.13081322,14.6071601 C7.09604296,14.5665948 7.08109015,14.5126795 7.09,14.46 C7.1585712,14.1156546 7.26592202,13.7801833 7.41,13.46 C7.35747417,13.4731251 7.30252583,13.4731251 7.25,13.46 C7.19142991,13.458598 7.13505005,13.4374555 7.09,13.4 C7.0578571,13.3982278 7.02677761,13.387868 7,13.37 C6.60765953,12.3892943 7.04559112,11.2725687 8,10.82 L8,10.82 C8.47764439,10.5774642 8.88163407,10.2114564 9.17,9.76 C9.20019039,9.69914523 9.26206958,9.66047073 9.33,9.66 L9.33,9.66 C9.40532434,9.66547647 9.46922017,9.71739183 9.49,9.79 C9.63582525,10.331345 9.65973299,10.8983001 9.56,11.45 C9.30311425,12.7787302 8.50165234,13.939218 7.35,14.65 C7.32524027,14.6627674 7.29785503,14.6696138 7.27,14.6700177 Z" id="Path" fill="#002804" fill-rule="nonzero"></path>
                    <path d="M9.34,9.84 C9.34,9.84 10.19,12.48 7.27,14.49 C7.39373816,13.8592691 7.66438795,13.2665804 8.06,12.76 C8.18647407,12.614129 8.29399368,12.4528495 8.38,12.28 C8.49337533,12.0793672 8.54552076,11.8499273 8.53,11.62 C8.53,11.62 7.53,13.32 7.25,13.32 L7.25,13.32 C6.88228781,12.4382533 7.26317788,11.4225464 8.12,11 C8.62407594,10.7307627 9.04570525,10.3298693 9.34,9.84 L9.34,9.84 Z M9.34,9.46999747 C9.20119274,9.46948785 9.0737758,9.54671024 9.01,9.67 C8.76359481,10.0809894 8.41583484,10.4218631 8,10.66 L8,10.66 C6.95934868,11.1532724 6.48527948,12.3735616 6.92,13.44 C6.94472464,13.4949246 6.98248449,13.5429825 7.03,13.58 C7.0743241,13.616164 7.12527491,13.6433378 7.18,13.66 C7.0853908,13.9066844 7.01179565,14.1609222 6.96,14.42 C6.93996646,14.5639225 7.00603127,14.7062473 7.12888935,14.7838419 C7.25174742,14.8614364 7.40865074,14.8599336 7.53,14.78 C8.72181351,14.0418923 9.54902411,12.8373576 9.81,11.46 C9.91473392,10.8818975 9.89083429,10.287821 9.74,9.72 C9.69267719,9.58034823 9.56695247,9.4821258 9.42,9.46999747 L9.34,9.46999747 Z" id="Shape" fill="#9D7D20" fill-rule="nonzero"></path>
                    <path d="M6.92,16 L6.92,16 C6.86865038,15.9963305 6.8213294,15.9708499 6.79,15.93 C6.7217192,15.8269428 6.69994302,15.6999151 6.73,15.58 C6.81,15.19 7.27,14.75 8.11,14.26 L8.11,14.26 L8.38,14.11 C8.32307706,14.093337 8.27585491,14.0533798 8.25,14 C8.23380547,13.9581797 8.23380547,13.9118203 8.25,13.87 C8.48160353,13.1789764 9.15336048,12.7338859 9.88,12.79 L10.23,12.79 C10.4157657,12.7827706 10.5958384,12.7239007 10.75,12.62 C10.8178613,12.5756984 10.9069605,12.5822092 10.9676605,12.6359055 C11.0283606,12.6896017 11.0456923,12.7772412 11.01,12.85 C10.5984272,13.7450454 9.92559916,14.4945689 9.08,15 C8.96400781,15.0664822 8.83954225,15.1169413 8.71,15.15 C8.08829915,15.2827578 7.50408569,15.5526575 7,15.94 C6.97953566,15.9671546 6.95179847,15.9879575 6.92,16 L6.92,16 Z" id="Path" fill="#002804" fill-rule="nonzero"></path>
                    <path d="M10.84,12.8 C10.4355136,13.6323037 9.79577002,14.3276772 9,14.8 C8.89964309,14.857482 8.79201189,14.9012072 8.68,14.93 C8.04378687,15.0851465 7.44965651,15.3787971 6.94,15.79 C6.94,15.79 6.59,15.33 8.21,14.39 C8.73280837,14.1259637 9.23431687,13.8217152 9.71,13.48 C9.31388006,13.6603165 8.90218524,13.8042424 8.48,13.91 L8.48,13.91 C8.69113884,13.3326775 9.25641846,12.9626023 9.87,13 L10.21,13 L10.21,13 C10.4310644,12.9912675 10.6455037,12.9220935 10.83,12.8 L10.84,12.8 Z M10.83,12.43 L10.83,12.43 C10.7657142,12.4335443 10.7035552,12.454264 10.65,12.49 C10.5273253,12.5704932 10.3862856,12.6186531 10.24,12.63 L9.88,12.63 C9.06787998,12.571969 8.32092642,13.0754405 8.07,13.85 C8.04556609,13.9247199 8.04556609,14.0052801 8.07,14.08 L8.01,14.08 L8,14.08 C7.1,14.6 6.62,15.08 6.53,15.52 C6.48586712,15.6918245 6.51872162,15.8743495 6.62,16.02 C6.68114828,16.0983492 6.77124594,16.1488039 6.87,16.16 L6.87,16.16 C6.95816797,16.1595536 7.04327857,16.1276371 7.11,16.07 C7.57667205,15.6969952 8.1193938,15.4307544 8.7,15.29 C8.846606,15.2559534 8.98790074,15.2021268 9.12,15.13 C9.98779972,14.6173759 10.683874,13.858655 11.12,12.95 C11.1702035,12.8368793 11.1605254,12.706149 11.0942114,12.6016543 C11.0278975,12.4971596 10.9137302,12.4327396 10.79,12.43 L10.83,12.43 Z" id="Shape" fill="#9D7D20" fill-rule="nonzero"></path>
                    <path d="M6.17,16.32 C6.12034358,16.3175526 6.07391076,16.294676 6.04171183,16.2567949 C6.00951289,16.2189138 5.99441565,16.1694021 6,16.12 C5.95803346,15.4579258 5.69779693,14.8284348 5.26,14.33 C4.75822003,13.6491284 4.75822003,12.7208716 5.26,12.04 C5.41026831,11.820677 5.47435877,11.5536335 5.44,11.29 C5.4097154,11.1879973 5.36599878,11.0904756 5.31,11 C5.28622868,10.9437315 5.29261589,10.8792472 5.32696388,10.8287354 C5.36131186,10.7782237 5.41893283,10.7485783 5.48,10.7499511 L5.48,10.7499511 C5.95846626,10.8683922 6.37350465,11.1653593 6.64,11.58 C7.2323298,12.6848768 7.36181301,13.9797089 7,15.18 C6.98520982,15.2675526 6.90878439,15.3312405 6.82,15.33 L6.82,15.33 C6.68462689,15.2862999 6.57048632,15.1935607 6.5,15.07 C6.62,16.01 6.34,16.25 6.26,16.3 C6.232245,16.3143669 6.20122755,16.3212596 6.17,16.32 Z" id="Path" fill="#002804" fill-rule="nonzero"></path>
                    <path d="M5.48,10.93 C5.48,10.93 7.61,11.3 6.86,15.15 C6.86,15.15 6.27,15.03 6.02,12.43 C6.02,12.43 5.63,12.53 6.12,14.2 C6.61,15.87 6.12,16.15 6.12,16.15 C6.09908519,15.4389503 5.82618342,14.758468 5.35,14.23 C4.89325932,13.6118874 4.89325932,12.7681126 5.35,12.15 C5.52410615,11.8954697 5.59882334,11.5859271 5.56,11.28 C5.54473265,11.1632706 5.51448344,11.0489958 5.47,10.94 L5.48,10.93 Z M5.47,10.57 C5.34717302,10.5708258 5.23276254,10.632552 5.16462885,10.7347526 C5.09649516,10.8369531 5.0835211,10.9663037 5.13,11.08 C5.16409746,11.1599376 5.18762905,11.243979 5.2,11.33 C5.22832328,11.5481014 5.17488832,11.7689659 5.05,11.95 C4.50317647,12.6936285 4.50317647,13.7063715 5.05,14.45 C5.45549853,14.9148044 5.70396507,15.4957262 5.76,16.11 C5.73432412,16.2514732 5.79778346,16.3942567 5.92,16.47 C5.97592051,16.5085251 6.042096,16.5294226 6.11,16.5300059 C6.18428576,16.5304085 6.25714299,16.5095921 6.32,16.47 C6.45,16.39 6.67,16.15 6.67,15.47 L6.74,15.47 L6.81,15.47 C6.98610407,15.4684193 7.13668876,15.3429321 7.17,15.17 C7.53951035,13.9197616 7.39555872,12.5738139 6.77,11.43 C6.47481885,10.9747009 6.01700184,10.6492216 5.49,10.52 L5.47,10.57 Z" id="Shape" fill="#9D7D20" fill-rule="nonzero"></path>
                    <path d="M4,23.8000003 C3.93976382,23.8001116 3.8834645,23.7700853 3.85,23.72 C2.87859487,22.4133108 2.49788318,20.7599343 2.8,19.16 C2.93224755,18.500949 3.20887698,17.8793866 3.61,17.34 C3.64354817,17.2965357 3.69509965,17.2707599 3.75,17.27 L3.8,17.27 C3.87260817,17.2907798 3.92452353,17.3546757 3.93,17.43 C4.04423186,18.064529 4.32360616,18.6577682 4.74,19.15 L4.74,19.15 C5.60235076,20.0694383 5.60235076,21.5005617 4.74,22.42 L4.66,22.42 L4.56,22.42 C4.45,22.42 4.34,22.36 4.23,22.17 C4.26294246,22.6414928 4.23606209,23.1152593 4.15,23.58 C4.16175839,23.6293034 4.15218479,23.6812795 4.1236314,23.7231578 C4.09507801,23.7650361 4.05019138,23.792935 4,23.8000003 Z" id="Path" fill="#002804" fill-rule="nonzero"></path>
                    <path d="M3.71,17.46 C3.82756262,18.1360241 4.12458061,18.7680507 4.57,19.29 C5.36246622,20.1329993 5.36246622,21.4470007 4.57,22.29 L4.57,22.29 C4.19,22.29 3.85,19.8 3.85,19.8 C3.7284874,20.0515087 3.68329404,20.3330982 3.72,20.61 C3.74035994,20.8454572 3.79076941,21.0773408 3.87,21.3 C4.09492019,22.0523942 4.13945606,22.8471882 4,23.62 C1.6,20.05 3.74,17.46 3.74,17.46 L3.71,17.46 Z M3.74,17.09 C3.63218371,17.0904678 3.52993453,17.1379407 3.46,17.22 C3.04323986,17.7835968 2.75638029,18.4324458 2.62,19.12 C2.30684727,20.7687629 2.69853271,22.47332 3.7,23.82 C3.76352528,23.9264744 3.87615772,23.9940539 4,24 L4,24 C4.14348716,23.9721413 4.25712539,23.8624217 4.29,23.72 C4.35281485,23.3902761 4.38627914,23.0556333 4.39,22.72 L4.52,22.72 L4.65,22.72 C4.70647491,22.7024206 4.75791237,22.6715582 4.8,22.63 C5.07204308,22.3455604 5.27704415,22.0038919 5.4,21.63 C5.65628852,20.7557076 5.43624802,19.811051 4.82,19.14 L4.82,19.14 C4.42618685,18.6765596 4.16070142,18.1180058 4.05,17.52 C4.03630313,17.3704541 3.93357525,17.2440198 3.79,17.2 L3.68,17.2 L3.74,17.09 Z" id="Shape" fill="#9D7D20" fill-rule="nonzero"></path>
                    <path d="M3.77,25.44 L3.77,25.44 C3.72254032,25.4263588 3.68276907,25.3938187 3.66,25.35 C3.27955145,24.6844447 2.75717657,24.1108566 2.13,23.67 C2.00295819,23.5789063 1.88861898,23.4712929 1.79,23.35 C1.05077193,22.425957 0.608084005,21.3000656 0.52,20.12 C0.515461245,20.0399743 0.564384456,19.9665895 0.64,19.94 L0.71,19.94 C0.76324622,19.9382971 0.814511595,19.960268 0.85,20 C0.983518038,20.1919959 1.16671649,20.3440852 1.38,20.44 C3.3,20.94 3.12,22.44 3.12,22.44 C3.11381929,22.4826691 3.09252842,22.5217024 3.06,22.55 C3.02099097,22.5831795 2.97120217,22.6009613 2.92,22.6 L2.92,22.6 C2.87736577,22.6110081 2.83263423,22.6110081 2.79,22.6 L3.11,22.98 L3.11,22.98 C3.83,23.89 4.11,24.59 4.11,25.05 C4.09390987,25.1863476 4.02135517,25.3096906 3.91,25.39 L3.77,25.44 Z" id="Path" fill="#002804" fill-rule="nonzero"></path>
                    <path d="M0.71,20.12 C0.86372863,20.3457143 1.07887479,20.5226894 1.33,20.63 C3.12,21.09 2.94,22.47 2.94,22.47 L2.94,22.47 C2.75,22.47 1.71,21.47 1.71,21.47 C2.09771616,22.0486418 2.52896476,22.5968958 3,23.11 C4.4,24.89 3.81,25.25 3.81,25.25 C3.41893326,24.5572141 2.87935928,23.9595847 2.23,23.5 C2.11401445,23.4178133 2.0097281,23.3202551 1.92,23.21 C1.23016435,22.3153082 0.819689148,21.2369411 0.74,20.11 L0.71,20.12 Z M0.74,19.74 L0.62,19.74 C0.466911167,19.7924222 0.365646675,19.938243 0.37,20.1 C0.435677269,21.3145618 0.864137473,22.4815062 1.6,23.45 C1.71664445,23.5844655 1.85124068,23.7022372 2,23.8 C2.60356822,24.2248774 3.1055814,24.7781164 3.47,25.42 C3.51874055,25.5090004 3.60189436,25.5740773 3.7,25.6 L3.8,25.6 C3.86815903,25.6087672 3.93741291,25.5983791 4,25.57 C4.15974255,25.4623124 4.26540049,25.2910737 4.29,25.1 C4.38,24.58 4.06,23.85 3.29,22.89 L3.29,22.89 L3.19,22.77 L3.19,22.77 C3.25437247,22.7128574 3.29680789,22.6350591 3.31,22.55 C3.33878973,22.228105 3.28366432,21.9042432 3.15,21.61 C2.81867215,20.9358083 2.18849491,20.457615 1.45,20.32 C1.26371717,20.2247765 1.1078291,20.079281 1,19.9 C0.931813762,19.807747 0.824693125,19.7523397 0.71,19.75 L0.74,19.74 Z" id="Shape" fill="#9D7D20" fill-rule="nonzero"></path>
                    <path d="M4.48,26.1500003 C4.41976382,26.1501116 4.3634645,26.1200853 4.33,26.07 C4.27,25.98 4.05,25.55 4.71,24.46 C4.55959754,24.6022196 4.36604654,24.6901973 4.16,24.71 L4.16,24.71 C4.05880127,24.6945357 3.98804911,24.6016735 4,24.5 C4.1452617,23.1548496 4.72038286,21.8923885 5.64,20.9 C6.10044359,20.4642193 6.70620627,20.2147876 7.34,20.2 C7.43311779,20.1910296 7.52688221,20.1910296 7.62,20.2 C7.68744656,20.2119987 7.74223528,20.2612426 7.76133532,20.3270317 C7.78043536,20.3928207 7.7605352,20.4637485 7.71,20.51 C7.62090754,20.5998296 7.54361902,20.7006407 7.48,20.81 C7.30811038,21.1136903 7.26147092,21.4724553 7.35,21.81 C7.60126689,22.7809988 7.1972377,23.8031927 6.35,24.34 C4.88,25.23 4.66,26 4.66,26 C4.64549479,26.0704459 4.59044591,26.1254948 4.52,26.14 L4.48,26.1500003 Z" id="Path" fill="#002804" fill-rule="nonzero"></path>
                    <path d="M7.34,20.38 C7.41982886,20.3725996 7.50017114,20.3725996 7.58,20.38 C7.47910839,20.4817119 7.39172419,20.5959836 7.32,20.72 C7.13906528,21.0493629 7.08567194,21.433795 7.17,21.8 C7.38902159,22.7123848 6.98222881,23.660212 6.17,24.13 C4.68,25.14 4.48,26 4.48,26 C4.48,26 4.11,25.48 5.4,23.82 C6.69,22.16 6.3,21.87 6.3,21.87 C4.98,24.46 4.3,24.56 4.16,24.56 L4.16,24.56 C4.87,20.76 6.7,20.4 7.36,20.4 L7.34,20.38 Z M7.36,20.03 L7.36,20.03 C6.67790122,20.0434564 6.02535658,20.3108927 5.53,20.78 C4.56639933,21.7964276 3.95923727,23.0984919 3.8,24.49 C3.78255575,24.5868289 3.80439537,24.6866182 3.86069099,24.7673086 C3.9169866,24.847999 4.00310181,24.9029449 4.1,24.92 L4.3,24.92 C3.94,25.72 4.12,26.09 4.2,26.21 C4.26812352,26.3088419 4.37996562,26.368491 4.5,26.37 L4.57,26.37 C4.71089181,26.3409896 4.82098959,26.2308918 4.85,26.09 C4.85,26.04 5.11,25.34 6.42,24.49 C7.35258411,23.9294061 7.81082449,22.826385 7.55,21.77 C7.48463242,21.4924374 7.5237918,21.200522 7.66,20.95 C7.71480023,20.8517879 7.78201969,20.7610416 7.86,20.68 C7.99853981,20.5898178 8.06045068,20.4186791 8.0116733,20.2607332 C7.96289592,20.1027874 7.81526604,19.9963598 7.65,20 C7.54689846,19.9902118 7.44310154,19.9902118 7.34,20 L7.36,20.03 Z" id="Shape" fill="#9D7D20" fill-rule="nonzero"></path>
                    <path d="M44.26,7 L44.19,7 C42.5173727,6.40665286 41.1687464,5.14140935 40.47,3.51 C40.1884576,2.82621908 40.0620894,2.08850203 40.1,1.35 C40.1054765,1.27467566 40.1573918,1.21077983 40.23,1.19 L40.28,1.19 C40.3349004,1.19075995 40.3864518,1.21653569 40.42,1.26 C40.9115598,1.76866656 41.5292187,2.13788164 42.21,2.33 L42.21,2.33 C43.5775427,2.62564311 44.4630766,3.95394399 44.21,5.33 C44.2160009,5.35632906 44.2160009,5.38367094 44.21,5.41 C44.1524562,5.47647549 44.0678617,5.51325574 43.98,5.51 L43.98,5.51 C43.8576104,5.49565168 43.7407415,5.45096649 43.64,5.38 C43.9815686,5.80684866 44.264107,6.27774596 44.48,6.78 C44.5037713,6.8362685 44.4973841,6.90075282 44.4630361,6.95126456 C44.4286881,7.0017763 44.3710672,7.03142167 44.31,7.03004892 L44.26,7 Z" id="Path" fill="#002804" fill-rule="nonzero"></path>
                    <path d="M40.28,1.37 C40.7979837,1.90843818 41.4505195,2.29857862 42.17,2.5 C43.4172425,2.77980659 44.2235394,3.99145496 44,5.25 C43.9713727,5.26283427 43.9386273,5.26283427 43.91,5.25 C43.44,5.25 41.81,3.4 41.81,3.4 C41.8548623,3.70131121 41.986963,3.98289419 42.19,4.21 C42.3500028,4.40937891 42.5348338,4.58748879 42.74,4.74 C43.3890207,5.28066875 43.9026838,5.96555286 44.24,6.74 C39.89,4.95 40.24,1.3 40.24,1.3 L40.28,1.37 Z M40.24,0.93 L40.14,0.93 C39.999507,0.972600543 39.8974903,1.09423589 39.88,1.24 C39.8416498,1.9989536 39.9714071,2.75700965 40.26,3.46 C40.9747811,5.1407645 42.3598393,6.44605492 44.08,7.06 L44.22,7.06 C44.340232,7.05792343 44.4519556,6.9975477 44.5195734,6.89810988 C44.5871911,6.79867206 44.6022679,6.67257647 44.56,6.56 C44.40142,6.20971273 44.2105979,5.87493706 43.99,5.56 C44.0959737,5.53996756 44.1915395,5.483336 44.26,5.4 C44.299352,5.35401281 44.3268214,5.2990739 44.34,5.24 C44.4146194,4.82801182 44.397548,4.40464272 44.29,4 C43.9955784,3.06820405 43.2382093,2.35627706 42.29,2.12 L42.29,2.12 C41.6459343,1.94035992 41.0599384,1.59565647 40.59,1.12 C40.5114627,1.03322037 40.3964969,0.98871747 40.28,1 L40.24,0.93 Z" id="Shape" fill="#9D7D20" fill-rule="nonzero"></path>
                    <path d="M45.07,8.6 L44.98,8.6 C44.2303048,8.22590937 43.4075812,8.0210819 42.57,8 C42.4005105,7.99576099 42.2323509,7.96885545 42.07,7.92 C40.878039,7.50804562 39.8343553,6.75311436 39.07,5.75 C39.0271282,5.69460088 39.0202905,5.61936132 39.0524733,5.55714134 C39.084656,5.49492136 39.1500129,5.45702381 39.22,5.46 L39.28,5.46 C39.4528373,5.52440205 39.6355623,5.55824002 39.82,5.56 C39.8931101,5.56809122 39.9668899,5.56809122 40.04,5.56 C40.3610151,5.44355081 40.6986457,5.379401 41.04,5.37 C41.7643069,5.35037318 42.4391842,5.73601737 42.79,6.37 C42.8061945,6.41182028 42.8061945,6.45817972 42.79,6.5 C42.79,6.65 42.6,6.68 42.49,6.68 L43.09,6.86 L43.09,6.86 C44.29,7.25 45,7.68 45.21,8.15 C45.2690533,8.28377268 45.2690533,8.43622732 45.21,8.57 C45.1894537,8.61762502 45.1493619,8.65407212 45.1,8.67 L45.07,8.6 Z" id="Path" fill="#002804" fill-rule="nonzero"></path>
                    <path d="M41,5.51 C41.6516256,5.48810033 42.2625293,5.82621056 42.59,6.39 C42.59,6.39 42.51,6.39 42.41,6.39 C41.8790484,6.34639159 41.3513489,6.26957458 40.83,6.16 C41.5304916,6.49576657 42.2560073,6.77661137 43,7 C45.36,7.76 45,8.45 45,8.45 C44.2233001,8.05826816 43.3695869,7.84313244 42.5,7.82 C42.3441935,7.8177343 42.1894278,7.79418299 42.04,7.75 C40.8535833,7.36357618 39.8091717,6.63248808 39.04,5.65 C39.2321805,5.72091847 39.4351604,5.75813146 39.64,5.76 C39.7296647,5.77098673 39.8203353,5.77098673 39.91,5.76 C40.230077,5.64016675 40.5682774,5.57590868 40.91,5.57 L41,5.51 Z M40.91,5.2 L40.91,5.2 C40.5381013,5.20587675 40.1697591,5.27346247 39.82,5.4 L39.65,5.4 C39.4860031,5.39794507 39.3236019,5.36749484 39.17,5.31 L39.05,5.31 C38.9133454,5.31170319 38.7887577,5.38859632 38.7259706,5.50998479 C38.6631834,5.63137325 38.6724226,5.77748717 38.75,5.89 C39.5894421,6.9248235 40.7224522,7.68132561 42,8.06 C42.178466,8.11453653 42.3634595,8.14480819 42.55,8.15 C43.363119,8.16921768 44.1620328,8.36723904 44.89,8.73 C44.9490852,8.74481711 45.0109148,8.74481711 45.07,8.73 L45.18,8.73 C45.276183,8.69933214 45.3556582,8.63069451 45.4,8.54 C45.4821456,8.35887881 45.4821456,8.15112119 45.4,7.97 C45.17,7.45 44.4,6.97 43.17,6.58 L43.17,6.58 L42.97,6.52 L42.97,6.44 C42.9990059,6.35919069 42.9990059,6.27080931 42.97,6.19 C42.5640221,5.4963609 41.802174,5.09029969 41,5.14 L40.91,5.2 Z" id="Shape" fill="#9D7D20" fill-rule="nonzero"></path>
                    <path d="M46.15,8.82 L46.09,8.82 C45.98,8.82 45.51,8.51 45.46,7.03 C45.32,7.55 45.12,7.69 45.05,7.72 L44.98,7.72 L44.9,7.72 C44.8544197,7.70170561 44.8182944,7.66558032 44.8,7.62 C43.96,5.67 43.8,4.08 44.28,2.9 C44.4986237,2.2997432 44.9387418,1.80595214 45.51,1.51994328 L45.58,1.51994328 C45.6355536,1.51860652 45.6886362,1.54295097 45.7238259,1.5859606 C45.7590156,1.62897022 45.7723666,1.68582243 45.76,1.74 C45.7421091,1.87942842 45.7421091,2.02057158 45.76,2.16 C45.7827132,2.54125072 45.9509601,2.8992228 46.23,3.16 C46.9952655,3.89521206 47.2154669,5.03225174 46.78,6 C46.3435355,6.78110442 46.1815704,7.68599626 46.32,8.57 C46.3394955,8.62514138 46.330985,8.68631711 46.2971789,8.73404336 C46.2633728,8.78176961 46.2084862,8.81009568 46.15,8.81 L46.15,8.82 Z" id="Path" fill="#002804" fill-rule="nonzero"></path>
                    <path d="M45.58,1.69 C45.5605447,1.8427162 45.5605447,1.9972838 45.58,2.15 C45.6161094,2.55840636 45.8011963,2.93925818 46.1,3.22 C46.857005,3.90592969 47.0762663,5.00629668 46.64,5.93 C46.1702843,6.74657659 46.003842,7.70273428 46.17,8.63 C46.17,8.63 45.52,8.39 45.68,6.09 C45.84,3.79 45.31,3.77 45.31,3.77 C45.7,7.22 45,7.54 45,7.54 C42.95,2.77 45.61,1.69 45.61,1.69 L45.58,1.69 Z M45.61,1.32 L45.47,1.32 C44.8563146,1.62363757 44.3809077,2.14908737 44.14,2.79 C43.63,4.02 43.81,5.66 44.67,7.65 C44.707549,7.74052272 44.7794773,7.81245105 44.87,7.85 L45,7.85 C45.0494756,7.86024144 45.1005244,7.86024144 45.15,7.85 C45.2318273,7.80974305 45.3035874,7.75165159 45.36,7.68 C45.51,8.68 45.9,8.9 46.05,8.95002578 L46.19,8.95002578 C46.3095104,8.95142817 46.4219379,8.89345041 46.4900735,8.79525506 C46.558209,8.69705971 46.5731682,8.57145084 46.53,8.46 C46.4310654,7.6369269 46.5956145,6.80367795 47,6.08 C47.4678341,5.01663289 47.1972893,3.77293442 46.33,3 C46.0939165,2.78051574 45.9477966,2.48114813 45.92,2.16 C45.9043089,2.03716574 45.9043089,1.91283426 45.92,1.79 C45.9374802,1.68369597 45.9077603,1.57505239 45.8386034,1.49244833 C45.7694465,1.40984427 45.6677214,1.36148406 45.56,1.36 L45.61,1.32 Z" id="Shape" fill="#9D7D20" fill-rule="nonzero"></path>
                    <path d="M45.69,44.28 L45.62,44.28 C45.5479797,44.2545371 45.4998751,44.186389 45.5,44.11 C45.3732901,42.3382215 45.9933105,40.5941874 47.21,39.3 C47.7113501,38.7710304 48.3222784,38.3580565 49,38.0899521 L49.06,38.0899521 C49.1250411,38.0885026 49.1858285,38.1222187 49.2189954,38.1781879 C49.2521624,38.234157 49.2525464,38.3036678 49.22,38.36 C48.9652623,39.0184912 48.8893586,39.7326763 49,40.43 L49,40.43 C49.258286,41.7812109 48.4151603,43.0985947 47.08,43.43 L47,43.43 C46.9196441,43.4052795 46.8539711,43.3469034 46.82,43.27 C46.7861065,43.1523933 46.7861065,43.0276067 46.82,42.91 C46.566867,43.3899092 46.2507357,43.8338383 45.88,44.23 C45.8321484,44.2828086 45.7576471,44.3024142 45.69,44.28 Z" id="Path" fill="#002804" fill-rule="nonzero"></path>
                    <path d="M49.09,38.27 C48.7991679,38.9609146 48.6990203,39.7172017 48.8,40.46 C49.0493474,41.7230049 48.2534974,42.9565724 47,43.25 C46.57,43.13 47.78,40.52 47.78,40.52 C47.5222641,40.6810895 47.3171989,40.9139601 47.19,41.19 C47.072943,41.4179126 46.9855652,41.659882 46.93,41.91 C46.6883898,42.7290675 46.2566603,43.4794545 45.67,44.1 C45.57,39.4 49.07,38.27 49.07,38.27 L49.09,38.27 Z M49.07,37.9 L48.96,37.9 C48.2496764,38.1698673 47.6077215,38.5932843 47.08,39.14 C45.8262828,40.4673933 45.1845476,42.2584508 45.31,44.08 C45.3149562,44.2257067 45.405014,44.3549201 45.54,44.41 L45.67,44.41 C45.7677987,44.4091375 45.8612777,44.3695886 45.93,44.3 C46.1989276,44.0135158 46.4400121,43.702115 46.65,43.37 C46.7101687,43.4569499 46.7984556,43.5205165 46.9,43.55 L47.07,43.55 C47.5004995,43.4601629 47.904369,43.2719187 48.25,43 C48.9901359,42.3537807 49.3389833,41.3679076 49.17,40.4 L49.17,40.4 C49.0737634,39.7229655 49.1600699,39.0325136 49.42,38.4 C49.4786757,38.2866559 49.4747925,38.1510736 49.4097258,38.0412736 C49.3446592,37.9314735 49.2275969,37.8629604 49.1,37.86 L49.07,37.9 Z" id="Shape" fill="#9D7D20" fill-rule="nonzero"></path>
                    <path d="M44.54,45.6600035 C44.4885848,45.6603185 44.4394877,45.6386344 44.4050921,45.6004171 C44.3706965,45.5621998 44.3542861,45.5110977 44.36,45.46 C44.4059337,44.619825 44.2659399,43.7798627 43.95,43 C43.8849734,42.8432069 43.8412509,42.678407 43.82,42.51 C43.7065086,41.2405452 43.9746265,39.9661144 44.59,38.85 C44.6228781,38.7930143 44.6842269,38.7585056 44.75,38.7599534 L44.75,38.7599534 C44.829932,38.7781777 44.8874868,38.8480657 44.89,38.93 C44.8989135,39.1897114 44.9784285,39.4420849 45.12,39.66 C45.9897378,40.3655557 46.1645395,41.624128 45.52,42.54 C45.4917024,42.5725284 45.4526691,42.5938193 45.41,42.6 L45.41,42.6 C45.34,42.6 45.26,42.6 45.16,42.38 C45.16,42.59 45.21,42.8 45.24,43.01 L45.24,43.01 C45.4404236,43.8381148 45.3263954,44.7111431 44.92,45.46 C44.8272232,45.5772932 44.6892107,45.6499314 44.54,45.6600035 L44.54,45.6600035 Z" id="Path" fill="#002804" fill-rule="nonzero"></path>
                    <path d="M44.75,38.94 C44.7591934,39.2367211 44.85286,39.5246591 45.02,39.77 C46.4,41.25 45.42,42.41 45.42,42.41 L45.42,42.41 C45.25,42.41 44.88,40.72 44.88,40.72 C44.8818884,41.4834734 44.9420633,42.2456884 45.06,43 C45.3,45.42 44.56,45.44 44.54,45.44 L44.54,45.44 C44.5886824,44.5727389 44.4452686,43.7054267 44.12,42.9 C44.0630911,42.755684 44.0260849,42.6042952 44.01,42.45 C43.9022166,41.2196449 44.1596164,39.9848217 44.75,38.9 L44.75,38.94 Z M44.75,38.53 C44.6225597,38.5325962 44.5054294,38.6006073 44.44,38.71 C43.8056981,39.8630598 43.5305863,41.1794176 43.65,42.49 C43.6722076,42.6754698 43.7192977,42.8571029 43.79,43.03 C44.0951616,43.7812094 44.2317081,44.5902472 44.19,45.4 C44.1817143,45.5014993 44.2156292,45.6019262 44.2837545,45.677621 C44.3518798,45.7533158 44.4481917,45.7975853 44.55,45.8 L44.55,45.8 C44.7489538,45.788743 44.9340191,45.694396 45.06,45.54 C45.4986382,44.7700837 45.630764,43.8630575 45.43,43 L45.43,43 L45.43,42.79 L45.51,42.79 C45.5950591,42.7768079 45.6728574,42.7343725 45.73,42.67 C45.9440479,42.393722 46.0819617,42.0661767 46.13,41.72 C46.2222537,40.9107649 45.9254561,40.1057015 45.33,39.55 C45.21366,39.3634491 45.1481574,39.1497037 45.14,38.93 C45.1274391,38.7711931 45.0146418,38.6382534 44.86,38.6 L44.75,38.53 Z" id="Shape" fill="#9D7D20" fill-rule="nonzero"></path>
                    <path d="M44.77,46.74 L44.7,46.74 C44.6313246,46.715841 44.5839635,46.6526929 44.58,46.58 C44.58,46.46 44.58,45.92 45.97,45.29 L45.66,45.29 C45.48956,45.3059488 45.3190963,45.2597816 45.18,45.16 C45.1445472,45.1260474 45.124499,45.0790884 45.124499,45.03 C45.124499,44.9809116 45.1445472,44.9339526 45.18,44.9 C46.66,43.33 48.06,42.53 49.36,42.53 C49.972424,42.5091396 50.5708872,42.7157519 51.04,43.11 C51.0905352,43.1562515 51.1104354,43.2271793 51.0913353,43.2929683 C51.0722353,43.3587574 51.0174466,43.4080013 50.95,43.42 C50.8141686,43.4532706 50.683118,43.5036747 50.56,43.57 C50.2381462,43.7458739 49.9924679,44.0342788 49.87,44.38 C49.5160324,45.4193475 48.5276121,46.108001 47.43,46.08 C46.5394003,45.9798611 45.6416521,46.1919276 44.89,46.68 C44.8592267,46.7147168 44.8162374,46.7362114 44.77,46.74 L44.77,46.74 Z" id="Path" fill="#002804" fill-rule="nonzero"></path>
                    <path d="M49.36,42.72 C49.9240629,42.7013901 50.4754245,42.8899202 50.91,43.25 C50.7570565,43.2841675 50.6091665,43.3379457 50.47,43.41 C50.110126,43.6082803 49.83598,43.932271 49.7,44.32 C49.3742775,45.2894203 48.4522017,45.9312175 47.43,45.9 C46.4944751,45.7969767 45.5525831,46.0271383 44.77,46.55 C44.77,46.55 44.77,45.86 46.9,45.09 C49.03,44.32 48.9,43.83 48.9,43.83 C47.9480571,44.5077798 46.8471258,44.9467804 45.69,45.11 C45.5508267,45.1233019 45.4117111,45.0840641 45.3,45 C47.03,43.16 48.4,42.69 49.35,42.69 L49.36,42.72 Z M49.35,42.32 L49.35,42.32 C48,42.32 46.54,43.14 45.03,44.75 C44.8876652,44.8941134 44.8876652,45.1258866 45.03,45.27 C45.0991538,45.330905 45.1812077,45.3753508 45.27,45.4 C44.43,45.93 44.37,46.4 44.38,46.54 C44.3849562,46.6857067 44.475014,46.8149201 44.61,46.87 L44.74,46.87 C44.8347916,46.8687038 44.9250028,46.8290108 44.99,46.76 C45.7129906,46.3215436 46.5583731,46.128614 47.4,46.21 C48.5555651,46.2455444 49.6036724,45.5360564 50,44.45 C50.1056577,44.1474729 50.319329,43.8946286 50.6,43.74 C50.7106223,43.6818663 50.8282505,43.6381758 50.95,43.61 C51.0787677,43.577054 51.1799698,43.4775713 51.2151171,43.3493869 C51.2502644,43.2212026 51.2139557,43.0840153 51.12,42.99 C50.6164,42.5604729 49.9716648,42.3325002 49.31,42.35 L49.35,42.32 Z" id="Shape" fill="#9D7D20" fill-rule="nonzero"></path>
                    <path d="M38.55,52.42 C38.477957,52.422372 38.4114463,52.3815364 38.3809639,52.3162169 C38.3504814,52.2508973 38.3619063,52.1736918 38.41,52.12 C38.7671143,51.7105074 39.1774226,51.3506468 39.63,51.05 L39.42,51.05 C39.2801865,51.0661272 39.1462488,50.9890115 39.09,50.86 C39.082379,50.830484 39.082379,50.799516 39.09,50.77 C39.280942,49.4223682 40.4824081,48.4524573 41.84,48.55 L41.95,48.55 C42.6477586,48.5733291 43.3388334,48.4074712 43.95,48.07 C44.01135,48.0256196 44.093915,48.0243787 44.156571,48.0668953 C44.2192271,48.1094119 44.2485761,48.1865945 44.23,48.26 C44.0408765,48.9653469 43.6995439,49.6207054 43.23,50.18 C42.0706107,51.5228011 40.4030588,52.320326 38.63,52.38 L38.55,52.42 Z" id="Path" fill="#002804" fill-rule="nonzero"></path>
                    <path d="M44,48.26 C44,48.26 43.24,51.86 38.56,52.26 C39.1028829,51.6182542 39.7875885,51.111572 40.56,50.78 C40.803637,50.6967452 41.0355428,50.5824727 41.25,50.44 C41.5136743,50.284602 41.7258126,50.0550753 41.86,49.78 C41.0882403,50.2670884 40.2539655,50.6472216 39.38,50.91 C39.3,50.91 39.24,50.91 39.22,50.84 C39.3960516,49.5824422 40.5247713,48.6821016 41.79,48.79 L41.9,48.79 C42.6354198,48.8098126 43.3620587,48.6264228 44,48.26 L44,48.26 Z M44,47.89 L44,47.89 C43.9254758,47.8877715 43.852098,47.9087366 43.79,47.95 C43.2245333,48.2623863 42.5857727,48.4177605 41.94,48.4 L41.83,48.4 C40.8520359,48.3352824 39.9114203,48.7866262 39.35,49.59 C39.1073046,49.9497611 38.9499716,50.3601948 38.89,50.79 C38.8768055,50.8458986 38.8768055,50.9041014 38.89,50.96 C38.9324903,51.0578766 39.0063818,51.1388054 39.1,51.19 C38.7916811,51.4325032 38.5070719,51.7037191 38.25,52 C38.1627734,52.1098164 38.1451315,52.2595096 38.2044383,52.3865955 C38.263745,52.5136814 38.3898054,52.5963135 38.53,52.6 L38.53,52.6 C40.3543764,52.5366245 42.0692371,51.7136363 43.26,50.33 C43.733885,49.743392 44.0750446,49.0610728 44.26,48.33 C44.2873845,48.2209375 44.2636858,48.1053401 44.1955961,48.0158508 C44.1275064,47.9263615 44.0224157,47.8726928 43.91,47.87 L44,47.89 Z" id="Shape" fill="#9D7D20" fill-rule="nonzero"></path>
                    <path d="M40.32,53.93 C40.1476116,53.9299111 39.9760372,53.9063616 39.81,53.86 C39.2725585,53.7108616 38.7177394,53.6335232 38.16,53.63 C37.8780691,53.6293827 37.5967459,53.6561754 37.32,53.71 L37.32,53.71 C37.2279028,53.7105701 37.1502315,53.6415289 37.14,53.55 C37.1332719,53.4047454 37.1876704,53.2633093 37.29,53.16 C37.9921331,52.6711929 38.8523524,52.4641691 39.7,52.58 L40.33,52.58 C40.15,52.51 40.09,52.43 40.1,52.32 C40.1011359,52.275168 40.1189665,52.2323747 40.15,52.2 C40.5048496,51.8678875 40.9740018,51.6852404 41.46,51.69 C42.0456893,51.7128963 42.6077224,51.9271714 43.06,52.3 C43.2695054,52.4099359 43.5034549,52.4649829 43.74,52.46 L43.81,52.46 C43.8914007,52.455011 43.9659849,52.5053735 43.9917744,52.5827419 C44.0175638,52.6601103 43.9881139,52.7451508 43.92,52.79 C42.8769024,53.5169152 41.641196,53.9172144 40.37,53.94 L40.32,53.93 Z" id="Path" fill="#002804" fill-rule="nonzero"></path>
                    <path d="M41.42,51.88 C41.9658895,51.9007094 42.4896673,52.1010808 42.91,52.45 C43.148453,52.5816327 43.4177229,52.6472241 43.69,52.64 L43.76,52.64 C42.746897,53.3391355 41.5506704,53.7251273 40.32,53.75 L40.32,53.75 C40.1641935,53.7477343 40.0094278,53.724183 39.86,53.68 C39.3063895,53.5254158 38.7347683,53.4447163 38.16,53.44 C37.8647605,53.4379256 37.5700254,53.4647197 37.28,53.52 C37.28,53.52 37.18,52.76 39.66,52.75 L40.77,52.75 C41.1809219,52.7794616 41.5938966,52.7593165 42,52.69 C42,52.69 40.25,52.5 40.26,52.33 C40.5795075,52.0381625 40.9972785,51.8774813 41.43,51.88 L41.42,51.88 Z M41.43,51.51 L41.43,51.51 C40.8960904,51.505878 40.3808482,51.7062499 39.99,52.07 C39.9309071,52.132687 39.8955409,52.2140295 39.89,52.3 C39.887514,52.3266087 39.887514,52.3533913 39.89,52.38 L39.67,52.38 C38.33,52.38 37.5,52.6 37.13,53.03 C36.9914645,53.1739976 36.9221559,53.3709799 36.94,53.57 C36.9646377,53.7508645 37.1174943,53.886737 37.3,53.89 L37.37,53.89 C37.6370754,53.8403388 37.9083645,53.816894 38.18,53.82 C38.7211477,53.8257038 39.2591575,53.9030427 39.78,54.05 C39.9589291,54.1011507 40.1439134,54.1280575 40.33,54.13 L40.33,54.13 C41.644452,54.1071193 42.922225,53.6928005 44,52.94 C44.1209774,52.8445682 44.1701473,52.6841519 44.1234276,52.5373185 C44.0767079,52.3904851 43.9438803,52.2879771 43.79,52.28 L43.7,52.28 C43.4989462,52.2847344 43.2997983,52.2400978 43.12,52.15 C42.6383061,51.7569575 42.0413038,51.5322037 41.42,51.51 L41.43,51.51 Z" id="Shape" fill="#9D7D20" fill-rule="nonzero"></path>
                    <path d="M36.2,53.59 C36.1318149,53.5890661 36.0700119,53.5496817 36.0403657,53.4882717 C36.0107196,53.4268618 36.018321,53.3539717 36.06,53.3 C36.4599856,52.4990433 36.579706,51.5870552 36.4,50.71 C36.2601373,49.6217523 36.8433223,48.5687792 37.84,48.11 C38.1695727,47.9516031 38.4293929,47.6775461 38.57,47.34 C38.6208517,47.2082104 38.6544633,47.070403 38.67,46.93 C38.6759887,46.8634608 38.7183378,46.805712 38.78,46.78 L38.85,46.78 C38.8888225,46.7662742 38.9311775,46.7662742 38.97,46.78 C39.428141,47.2227061 39.6999825,47.823619 39.73,48.46 C39.84,49.74 39.19,51.2 37.8,52.8 C37.7668274,52.8371154 37.7197657,52.8588363 37.67,52.86 L37.67,52.86 C37.6311775,52.8737258 37.5888225,52.8737258 37.55,52.86 C37.49,52.81 37.34,52.62 37.37,52.08 C36.88,53.48 36.37,53.59 36.23,53.59 L36.2,53.59 Z" id="Path" fill="#002804" fill-rule="nonzero"></path>
                    <path d="M38.84,47 C38.84,47 41.05,48.83 37.65,52.76 C37.65,52.76 37.05,52.23 38.48,49.08 L38.48,49.08 C38.38,49.08 37.93,49.19 37.48,51.18 C36.94,53.42 36.25,53.45 36.25,53.45 C36.6903175,52.6153624 36.8213732,51.6519264 36.62,50.73 C36.4827283,49.7185931 37.0225969,48.7362758 37.95,48.31 C38.3195262,48.1335613 38.6113477,47.8275046 38.77,47.45 C38.8291061,47.3057579 38.8694362,47.15452 38.89,47 L38.84,47 Z M38.89,46.63 L38.76,46.63 C38.637017,46.6786176 38.5493322,46.7891767 38.53,46.92 C38.515434,47.0433395 38.4851898,47.1643164 38.44,47.28 C38.3161972,47.5743584 38.0883824,47.812852 37.8,47.95 C36.7333329,48.4395065 36.1092503,49.5660972 36.26,50.73 C36.4286533,51.5608662 36.323391,52.4240173 35.96,53.19 C35.8834848,53.3087412 35.8834848,53.4612588 35.96,53.58 C36.0237758,53.7032898 36.1511927,53.7805122 36.29,53.7800025 L36.29,53.7800025 C36.45,53.7800025 36.89,53.66 37.29,52.78 C37.3218703,52.8670703 37.3731698,52.9457297 37.44,53.01 C37.5067214,53.0676371 37.591832,53.0995536 37.68,53.1 L37.68,53.1 C37.777218,53.0913369 37.867075,53.0446112 37.93,52.97 C39.35,51.33 40.01,49.82 39.93,48.49 C39.891542,47.8064716 39.5948643,47.1630744 39.1,46.69 C39.0345562,46.6381454 38.9534972,46.6099999 38.87,46.6099999 L38.89,46.63 Z" id="Shape" fill="#9D7D20" fill-rule="nonzero"></path>
                    <path d="M50.8,33.65 L50.8,33.65 C50.7273071,33.6460365 50.664159,33.5986754 50.64,33.53 C50.0456462,32.027556 50.1072944,30.3449225 50.81,28.89 C51.0910899,28.2997809 51.4971328,27.7777257 52,27.36 C52.0595759,27.3106538 52.1440187,27.3048917 52.2097456,27.3456877 C52.2754725,27.3864836 52.3077826,27.4647131 52.29,27.54 C52.2339216,28.1782584 52.347777,28.8199886 52.62,29.4 L52.62,29.4 C53.2067136,30.504201 52.8346546,31.8742536 51.77,32.53 L51.69,32.53 L51.69,32.53 C51.6088115,32.5286931 51.5321888,32.4922061 51.48,32.43 C51.4264379,32.3626221 51.3888306,32.2839886 51.37,32.2 C51.3041364,32.6638121 51.1798146,33.117419 51,33.55 C50.9646323,33.6257212 50.8817976,33.6671386 50.8,33.65 L50.8,33.65 Z" id="Path" fill="#002804" fill-rule="nonzero"></path>
                    <path d="M52.14,27.51 C52.0725971,28.1960912 52.1936065,28.8875731 52.49,29.51 C53.0506512,30.5269769 52.7112901,31.8050903 51.72,32.41 L51.72,32.41 C51.32,32.41 51.65,29.83 51.65,29.83 C51.46997,30.0390682 51.3552319,30.2963597 51.32,30.57 C51.291031,30.7990878 51.291031,31.0309122 51.32,31.26 C51.3357458,32.0348747 51.1678342,32.8024709 50.83,33.5 C49.46,29.5 52.17,27.5 52.17,27.5 L52.14,27.51 Z M52.17,27.13 C52.0944968,27.1313566 52.0212165,27.1557834 51.96,27.2 C51.4138321,27.6307918 50.9698654,28.1772124 50.66,28.8 C49.9400081,30.2994985 49.8748202,32.0305996 50.48,33.58 C50.5273228,33.7196518 50.6530475,33.8178742 50.8,33.8300025 L50.8,33.8300025 C50.9388073,33.8305122 51.0662242,33.7532898 51.13,33.63 C51.2812651,33.3087645 51.4018021,32.9739396 51.49,32.63 C51.5617826,32.6755333 51.6449942,32.6998033 51.73,32.7 L51.73,32.7 C51.7858986,32.7131945 51.8441014,32.7131945 51.9,32.7 C52.2395138,32.4908614 52.5268105,32.2069849 52.74,31.87 C53.2069624,31.0985948 53.2372938,30.1393659 52.82,29.34 L52.82,29.34 C52.5634608,28.7978172 52.4531458,28.1979793 52.5,27.6 C52.5174802,27.493696 52.4877603,27.3850524 52.4186034,27.3024483 C52.3494465,27.2198443 52.2477214,27.1714841 52.14,27.17 L52.17,27.13 Z" id="Shape" fill="#9D7D20" fill-rule="nonzero"></path>
                    <path d="M50,34.21 L49.91,34.21 C49.8677738,34.1828983 49.8387761,34.1394017 49.83,34.09 C49.6465533,33.3583676 49.3052379,32.6757368 48.83,32.09 C48.7288964,31.9686326 48.6447905,31.8340631 48.58,31.69 C48.1310502,30.6192133 48.0126423,29.4386169 48.24,28.3 C48.2581777,28.220068 48.3280657,28.1625132 48.41,28.1599998 L48.41,28.1599998 C48.486389,28.1598751 48.5545371,28.2079797 48.58,28.28 C48.6564743,28.498752 48.7913437,28.6924105 48.97,28.84 C49.9032728,29.235529 50.3930805,30.2667032 50.11,31.24 C50.0919617,31.2799594 50.0599594,31.3119617 50.02,31.33 L49.93,31.33 L49.93,31.33 C49.8660662,31.3313139 49.8044716,31.3059514 49.76,31.26 L49.97,31.7 L49.97,31.7 C50.3730411,32.3689308 50.5087517,33.1653377 50.35,33.93 C50.3002148,34.0585687 50.1985687,34.1602148 50.07,34.21 L50,34.21 Z" id="Path" fill="#002804" fill-rule="nonzero"></path>
                    <path d="M48.4,28.32 C48.4921223,28.5739526 48.6552586,28.7960958 48.87,28.96 C50.47,29.86 49.94,31.13 49.94,31.13 L49.94,31.13 C49.78,31.13 49.02,29.81 49.02,29.81 C49.2300932,30.4964867 49.4942533,31.1652464 49.81,31.81 C50.67,33.83 50,34 50,34 C49.8044008,33.2369728 49.4424183,32.5266675 48.94,31.92 C48.8506015,31.810588 48.7765826,31.6894662 48.72,31.56 C48.2907433,30.5261895 48.1759539,29.388731 48.39,28.29 L48.4,28.32 Z M48.39,27.92 L48.39,27.92 C48.2311931,27.9325609 48.0982534,28.0453582 48.06,28.2 C47.8243927,29.3754339 47.946299,30.5944969 48.41,31.7 C48.4797824,31.8581524 48.5706031,32.0061565 48.68,32.14 C49.1508324,32.7022163 49.4922323,33.3611181 49.68,34.07 C49.7174159,34.23896 49.8669477,34.3594162 50.04,34.36 L50.14,34.36 C50.3203978,34.3000299 50.466176,34.1651851 50.54,33.99 C50.7305222,33.1775376 50.5940423,32.322742 50.16,31.61 L50.16,31.61 L50.1,31.47 L50.1,31.47 C50.1756557,31.4313023 50.2356851,31.3677418 50.27,31.29 C50.3803625,30.9896258 50.4113615,30.6658584 50.36,30.35 C50.2195659,29.6176467 49.7412688,28.9947481 49.07,28.67 C48.9243359,28.5437738 48.8140509,28.3817927 48.75,28.2 C48.6830793,28.0700528 48.5459297,27.9916816 48.4,28 L48.39,27.92 Z" id="Shape" fill="#9D7D20" fill-rule="nonzero"></path>
                    <path d="M50.66,36 C50.5873071,35.9960365 50.524159,35.9486754 50.5,35.88 C50.5,35.78 50.36,35.31 51.28,34.44 C51.133234,34.5118453 50.973244,34.5526938 50.81,34.56 C50.7539557,34.571877 50.6960443,34.571877 50.64,34.56 C50.5960082,34.5403712 50.5617199,34.5039281 50.5448055,34.4588229 C50.5278911,34.4137178 50.5297621,34.3637149 50.55,34.32 C51.87,31.57 53.33,31 54.31,31 C54.6023541,30.9938463 54.8925015,31.0518757 55.16,31.17 C55.219899,31.2008712 55.2575379,31.2626137 55.2575379,31.33 C55.2575379,31.3973863 55.219899,31.4591288 55.16,31.49 C55.050518,31.5534357 54.9496845,31.6307414 54.86,31.72 C54.6320176,31.9574394 54.5001852,32.2709868 54.49,32.6 C54.4686379,33.6001307 53.8005635,34.4706519 52.84,34.75 C52.0567259,34.9181931 51.3525015,35.3442489 50.84,35.96 C50.8071219,36.0169857 50.7457731,36.0514944 50.68,36.0500466 L50.66,36 Z" id="Path" fill="#002804" fill-rule="nonzero"></path>
                    <path d="M54.31,31.17 C54.574492,31.1637522 54.8371938,31.2149278 55.08,31.32 C54.9593709,31.3922515 54.8484721,31.4796262 54.75,31.58 C54.4909848,31.8498143 54.3413219,32.2061546 54.33,32.58 C54.3205896,33.5124131 53.6974681,34.326951 52.8,34.58 C51.08,35.13 50.68,35.87 50.68,35.87 C50.68,35.87 50.46,35.28 52.12,34.02 C53.78,32.76 53.48,32.39 53.48,32.39 C51.82,34.23 51.06,34.39 50.81,34.39 L50.72,34.39 C52.03,31.66 53.46,31.17 54.31,31.17 L54.31,31.17 Z M54.31,30.8 C53.6418031,30.8172224 52.9968006,31.048582 52.47,31.46 C51.5647501,32.2033496 50.8513892,33.1533543 50.39,34.23 C50.3049189,34.4150364 50.3853697,34.6340413 50.57,34.72 C50.6328356,34.7312295 50.6971644,34.7312295 50.76,34.72 C50.22,35.39 50.28,35.79 50.34,35.93 C50.3905044,36.0657322 50.5155558,36.1595208 50.66,36.17 L50.66,36.17 C50.7969122,36.1851784 50.9299954,36.1186368 51,36 C51.5031513,35.4302079 52.1763501,35.0375087 52.92,34.88 C53.9549786,34.5825935 54.6762209,33.6465992 54.7,32.57 C54.7090482,32.285819 54.8230501,32.0150645 55.02,31.81 C55.097803,31.7325411 55.1851758,31.6653313 55.28,31.61 C55.3940602,31.5437946 55.4642582,31.4218821 55.4642582,31.29 C55.4642582,31.1581179 55.3940602,31.0362054 55.28,30.97 C54.9877186,30.8391265 54.6701926,30.7742556 54.35,30.78 L54.31,30.8 Z" id="Shape" fill="#9D7D20" fill-rule="nonzero"></path>
                    <path d="M48.18,14.67 C48.1473357,14.6794451 48.1126643,14.6794451 48.08,14.67 C46.9283477,13.959218 46.1268858,12.7987302 45.87,11.47 C45.770267,10.9183001 45.7941748,10.351345 45.94,9.81 C45.9607798,9.73739183 46.0246757,9.68547647 46.1,9.68 L46.1,9.68 C46.1679304,9.68047073 46.2298096,9.71914523 46.26,9.78 C46.5428166,10.2201387 46.9358177,10.578666 47.4,10.82 L47.4,10.82 C48.3544089,11.2725687 48.7923405,12.3892943 48.4,13.37 C48.3892358,13.3970315 48.3720792,13.4210507 48.35,13.44 C48.30495,13.4774555 48.2485701,13.498598 48.19,13.5 L48.19,13.5 C48.1374742,13.5131251 48.0825258,13.5131251 48.03,13.5 C48.1741584,13.8201524 48.2815122,14.155633 48.35,14.5 C48.3589098,14.5526795 48.343957,14.6065948 48.3091868,14.6471601 C48.2744165,14.6877254 48.2234224,14.7107482 48.17,14.7100177 L48.18,14.67 Z" id="Path" fill="#002804" fill-rule="nonzero"></path>
                    <path d="M46.11,9.84 C46.4015562,10.3285407 46.8195975,10.7293076 47.32,11 C48.1999028,11.400802 48.6094225,12.4223995 48.25,13.32 L48.25,13.32 C47.92,13.32 46.97,11.62 46.97,11.62 C46.9544792,11.8499273 47.0066247,12.0793672 47.12,12.28 C47.2060063,12.4528495 47.3135259,12.614129 47.44,12.76 C47.835612,13.2665804 48.1062618,13.8592691 48.23,14.49 C45.31,12.49 46.16,9.84 46.16,9.84 L46.11,9.84 Z M46.16,9.47 L46.16,9.47 C46.0130475,9.4821258 45.8873228,9.58034823 45.84,9.72 C45.6891657,10.287821 45.6652661,10.8818975 45.77,11.4599975 C46.0165,12.8323825 46.8248667,14.0394951 48,14.79 C48.1213493,14.8699336 48.2782526,14.8714364 48.4011107,14.7938419 C48.5239687,14.7162473 48.5900335,14.5739225 48.57,14.43 C48.5182043,14.1709222 48.4446092,13.9166844 48.35,13.67 C48.4047251,13.6533378 48.4556759,13.626164 48.5,13.59 C48.5475155,13.5529825 48.5852754,13.5049246 48.61,13.45 C49.047027,12.37281 48.5575742,11.1425637 47.5,10.66 L47.5,10.66 C47.0682649,10.4246463 46.7061216,10.0797479 46.45,9.66 C46.3862242,9.53671024 46.2588073,9.45948785 46.12,9.45999747 L46.16,9.47 Z" id="Shape" fill="#9D7D20" fill-rule="nonzero"></path>
                    <path d="M48.52,16 C48.4811775,16.0137258 48.4388225,16.0137258 48.4,16 C47.9103697,15.607244 47.3401704,15.3272659 46.73,15.18 C46.6004577,15.1469413 46.4759922,15.0964822 46.36,15.03 C45.5241164,14.5336127 44.8555424,13.7988778 44.44,12.92 C44.4043077,12.8472412 44.4216394,12.7596017 44.4823395,12.7059055 C44.5430395,12.6522092 44.6321387,12.6456984 44.7,12.69 C44.8541616,12.7939007 45.0342343,12.8527706 45.22,12.86 L45.22,12.86 L45.57,12.86 C46.2966395,12.8038859 46.9683965,13.2489764 47.2,13.94 C47.2161945,13.9818203 47.2161945,14.0281797 47.2,14.07 C47.1741451,14.1233798 47.1269229,14.163337 47.07,14.18 L47.34,14.33 L47.34,14.33 C48.18,14.81 48.64,15.26 48.72,15.65 C48.750057,15.7699151 48.7282808,15.8969428 48.66,16 C48.6286706,16.0408499 48.5813496,16.0663305 48.53,16.07 L48.52,16 Z" id="Path" fill="#002804" fill-rule="nonzero"></path>
                    <path d="M44.61,12.8 C44.7944963,12.9220935 45.0089356,12.9912675 45.23,13 L45.23,13 L45.57,13 C46.2165903,12.9334192 46.8229843,13.3238373 47.03,13.94 L47.03,13.94 C46.6078148,13.8342424 46.1961199,13.6903165 45.8,13.51 C46.2756831,13.8517152 46.7771916,14.1559637 47.3,14.42 C48.92,15.36 48.57,15.82 48.57,15.82 C48.0603435,15.4087971 47.4662131,15.1151465 46.83,14.96 C46.7179881,14.9312072 46.6103569,14.887482 46.51,14.83 C45.71423,14.3576772 45.0744864,13.6623037 44.67,12.83 L44.61,12.8 Z M44.67,12.46 C44.547173,12.4608258 44.4327625,12.522552 44.3646288,12.6247526 C44.2964952,12.7269531 44.2835211,12.8563037 44.33,12.97 C44.7639858,13.8826888 45.4603353,14.6451915 46.33,15.16 C46.4620993,15.2321268 46.603394,15.2859534 46.75,15.32 C47.3306062,15.4607544 47.873328,15.7269952 48.34,16.1 C48.4067214,16.1576371 48.491832,16.1895536 48.58,16.19 L48.58,16.19 C48.6787541,16.1788039 48.7688517,16.1283492 48.83,16.05 C48.9312784,15.9043495 48.9641329,15.7218245 48.92,15.55 C48.83,15.1 48.35,14.63 47.45,14.11 L47.45,14.11 L47.39,14.11 C47.4144339,14.0352801 47.4144339,13.9547199 47.39,13.88 C47.1390736,13.1054405 46.39212,12.601969 45.58,12.66 L45.22,12.66 C45.0738019,12.6482303 44.9328641,12.6001052 44.81,12.52 C44.7535729,12.4825228 44.6877169,12.4617261 44.62,12.46 L44.67,12.46 Z" id="Shape" fill="#9D7D20" fill-rule="nonzero"></path>
                    <path d="M49.28,16.32 C49.2473357,16.3294451 49.2126643,16.3294451 49.18,16.32 C49.11,16.32 48.82,16.03 48.94,15.09 C48.8695137,15.2135607 48.7553731,15.3062999 48.62,15.35 L48.62,15.35 C48.5312156,15.3512405 48.4547902,15.2875526 48.44,15.2 C48.0812417,13.9983976 48.2143276,12.7035082 48.81,11.6 C49.0764954,11.1853593 49.4915337,10.8883922 49.97,10.7699511 L49.97,10.7699511 C50.0310672,10.7685783 50.0886881,10.7982237 50.1230361,10.8487354 C50.1573841,10.8992472 50.1637713,10.9637315 50.14,11.02 C50.1012741,11.1129281 50.0743963,11.2103602 50.06,11.31 C50.0256412,11.5736335 50.0897317,11.840677 50.24,12.06 C50.74178,12.7408716 50.74178,13.6691284 50.24,14.35 C49.8022031,14.8484348 49.5419665,15.4779258 49.5,16.14 C49.5089098,16.1926795 49.493957,16.2465948 49.4591868,16.2871601 C49.4244165,16.3277254 49.3734224,16.3507482 49.32,16.3500177 L49.28,16.32 Z" id="Path" fill="#002804" fill-rule="nonzero"></path>
                    <path d="M50,10.93 C49.9555166,11.0389958 49.9252674,11.1532706 49.91,11.27 C49.8711767,11.5759271 49.9458939,11.8854697 50.12,12.14 C50.5767407,12.7581126 50.5767407,13.6018874 50.12,14.22 C49.6438166,14.748468 49.3709148,15.4289503 49.35,16.14 C49.35,16.14 48.91,15.86 49.35,14.19 C49.79,12.52 49.45,12.42 49.45,12.42 C49.2,15.02 48.61,15.14 48.61,15.14 C47.83,11.3 50,10.93 50,10.93 L50,10.93 Z M50,10.56 L49.9,10.56 C49.3729982,10.6892216 48.9151811,11.0147009 48.62,11.47 C47.9944413,12.6138139 47.8504897,13.9597616 48.22,15.21 C48.2533112,15.3829321 48.4038959,15.5084193 48.58,15.51 L48.65,15.51 L48.72,15.51 C48.72,16.15 48.94,16.39 49.07,16.51 C49.132857,16.5495921 49.2057142,16.5704085 49.28,16.5700059 C49.347904,16.5694226 49.4140795,16.5485251 49.47,16.51 C49.5922165,16.4342567 49.6556759,16.2914732 49.63,16.15 C49.6860349,15.5357262 49.9345015,14.9548044 50.34,14.49 C50.8868235,13.7463715 50.8868235,12.7336285 50.34,11.99 C50.2151117,11.8089659 50.1616767,11.5881014 50.19,11.37 C50.202371,11.283979 50.2259025,11.1999376 50.26,11.12 C50.3251865,11.0142178 50.332924,10.8827788 50.2805991,10.770079 C50.2282741,10.6573792 50.1228742,10.5784683 50,10.56 Z" id="Shape" fill="#9D7D20" fill-rule="nonzero"></path>
                    <path d="M51.47,23.8 L51.47,23.8 C51.3995541,23.7854948 51.3445052,23.7304459 51.33,23.66 C51.2439379,23.1952593 51.2170575,22.7214928 51.25,22.25 C51.14,22.44 51.04,22.5 50.92,22.5 L50.84,22.5 L50.76,22.5 C49.8976492,21.5805617 49.8976492,20.1494383 50.76,19.23 L50.76,19.23 C51.1763938,18.7377682 51.4557681,18.144529 51.57,17.51 C51.5754765,17.4346757 51.6273918,17.3707798 51.7,17.35 L51.75,17.35 C51.8049004,17.3507599 51.8564518,17.3765357 51.89,17.42 C52.291123,17.9593866 52.5677524,18.580949 52.7,19.24 C53.0021168,20.8399343 52.6214051,22.4933108 51.65,23.8 C51.5943078,23.8321539 51.5256922,23.8321539 51.47,23.8 L51.47,23.8 Z" id="Path" fill="#002804" fill-rule="nonzero"></path>
                    <path d="M51.73,17.46 C51.73,17.46 53.87,20.05 51.47,23.62 C51.3256445,22.851984 51.3633188,22.0608237 51.58,21.31 C51.6592306,21.0873408 51.7096401,20.8554572 51.73,20.62 C51.766706,20.3430982 51.7215126,20.0615087 51.6,19.81 C51.6,19.81 51.26,22.3 50.88,22.3 L50.88,22.3 C50.0875338,21.4570007 50.0875338,20.1429993 50.88,19.3 C51.3254194,18.7780507 51.6224374,18.1460241 51.74,17.47 L51.73,17.46 Z M51.74,17.1 L51.63,17.1 C51.4864248,17.1440198 51.3836969,17.2704541 51.37,17.42 C51.2562538,18.0050523 50.9907142,18.5499258 50.6,19 L50.6,19 C49.9587611,19.6776907 49.729789,20.6470061 50,21.54 C50.1229558,21.9138919 50.3279569,22.2555604 50.6,22.54 C50.6420876,22.5815582 50.6935251,22.6124206 50.75,22.63 L50.88,22.63 L51.01,22.63 C51.0137209,22.9656333 51.0471851,23.3002761 51.11,23.63 C51.1428746,23.7724217 51.2565128,23.8821413 51.4,23.91 L51.47,23.91 C51.5900344,23.908491 51.7018765,23.8488419 51.77,23.75 C52.7714673,22.40332 53.1631527,20.6987629 52.85,19.05 C52.7136197,18.3624458 52.4267601,17.7135968 52.01,17.15 C51.9400655,17.0679407 51.8378163,17.0204678 51.73,17.02 L51.74,17.1 Z" id="Shape" fill="#9D7D20" fill-rule="nonzero"></path>
                    <path d="M51.67,25.44 L51.58,25.44 C51.4686448,25.3596906 51.3960901,25.2363476 51.38,25.1 C51.3,24.64 51.62,23.94 52.38,23.03 L52.38,23.03 L52.7,22.65 C52.6573134,22.6605878 52.6126866,22.6605878 52.57,22.65 C52.5187978,22.6509613 52.469009,22.6331795 52.43,22.6 C52.3974716,22.5717024 52.3761807,22.5326691 52.37,22.49 C52.37,22.49 52.19,20.95 54.11,20.49 C54.3232835,20.3940852 54.506482,20.2419959 54.64,20.05 C54.6756694,20.0036968 54.7316004,19.9775957 54.79,19.98 L54.85,19.98 C54.9256155,20.0065895 54.9745388,20.0799743 54.97,20.16 C54.8918027,21.3275586 54.4670169,22.4452327 53.75,23.37 C53.6514688,23.4913745 53.5371179,23.5989988 53.41,23.69 C52.7828234,24.1308566 52.2604486,24.7044447 51.88,25.37 C51.8572309,25.4138187 51.8174597,25.4463588 51.77,25.46 L51.67,25.44 Z" id="Path" fill="#002804" fill-rule="nonzero"></path>
                    <path d="M54.74,20.12 C54.6603109,21.2469411 54.2498357,22.3253082 53.56,23.22 C53.4702719,23.3302551 53.3659855,23.4278133 53.25,23.51 C52.6006407,23.9695847 52.0610667,24.5672141 51.67,25.26 C51.67,25.26 51.07,24.9 52.48,23.12 C52.9496475,22.590549 53.3775932,22.0255268 53.76,21.43 C53.76,21.43 52.76,22.43 52.53,22.43 L52.53,22.43 C52.53,22.43 52.35,21.05 54.14,20.59 C54.3911252,20.4826894 54.6062714,20.3057143 54.76,20.08 L54.74,20.12 Z M54.76,19.71 L54.76,19.71 C54.6947442,19.716503 54.6325043,19.7407074 54.58,19.78 L54.51,19.84 L54.51,19.84 C54.3980239,19.9995155 54.2463609,20.1270502 54.07,20.21 C53.3315051,20.347615 52.7013279,20.8258083 52.37,21.5 C52.2363357,21.7942432 52.1812103,22.118105 52.21,22.44 C52.2231921,22.5250591 52.2656275,22.6028574 52.33,22.66 L52.33,22.66 L52.23,22.78 L52.23,22.78 C51.47,23.78 51.14,24.47 51.23,24.99 C51.2545995,25.1810737 51.3602574,25.3523124 51.52,25.46 C51.5776703,25.4934843 51.6433181,25.51076 51.71,25.510024 L51.81,25.510024 C51.9081056,25.4840773 51.9912595,25.4190004 52.04,25.33 C52.4044186,24.6881164 52.9064318,24.1348774 53.51,23.71 C53.6523485,23.6077181 53.7801785,23.486616 53.89,23.35 C54.6291699,22.3961539 55.0677828,21.2439248 55.150002,20.04 L55.150002,20.04 C55.150636,19.8468192 55.0025459,19.6856623 54.81,19.67 L54.76,19.71 Z" id="Shape" fill="#9D7D20" fill-rule="nonzero"></path>
                    <path d="M51,26.15 L51,26.15 C50.9295541,26.1354948 50.8745052,26.0804459 50.86,26.01 C50.86,26.01 50.64,25.22 49.21,24.3 C48.3627623,23.7631927 47.9587331,22.7409988 48.21,21.77 C48.2985291,21.4324553 48.2518896,21.0736903 48.08,20.77 C48.016381,20.6606407 47.9390925,20.5598296 47.85,20.47 C47.7994648,20.4237485 47.7795646,20.3528207 47.7986647,20.2870317 C47.8177647,20.2212426 47.8725534,20.1719987 47.94,20.16 C48.0331178,20.1510296 48.1268822,20.1510296 48.22,20.16 C48.8537937,20.1747876 49.4595564,20.4242193 49.92,20.86 C50.8524998,21.8510133 51.438476,23.1177043 51.59,24.47 C51.6025008,24.5684278 51.5371617,24.6599026 51.44,24.68 L51.44,24.68 C51.2339535,24.6601973 51.0404025,24.5722196 50.89,24.43 C51.55,25.52 51.33,25.95 51.27,26.04 C51.2562814,26.0960551 51.2165176,26.1421337 51.1630733,26.1639072 C51.1096291,26.1856808 51.0489855,26.180509 51,26.15 L51,26.15 Z" id="Path" fill="#002804" fill-rule="nonzero"></path>
                    <path d="M48.1,20.38 C48.76,20.38 50.59,20.73 51.3,24.54 L51.3,24.54 C51.19,24.54 50.48,24.43 49.16,21.85 C49.16,21.85 48.77,22.13 50.06,23.8 C51.35,25.47 51,26 51,26 C51,26 50.8,25.17 49.27,24.18 C48.4577712,23.710212 48.0509784,22.7623848 48.27,21.85 C48.3543281,21.483795 48.3009347,21.0993629 48.12,20.77 C48.0482758,20.6459836 47.9608916,20.5317119 47.86,20.43 C47.9398289,20.4225996 48.0201711,20.4225996 48.1,20.43 L48.1,20.38 Z M48.1,20.06 C47.9969013,20.0501515 47.8930987,20.0501515 47.79,20.06 C47.6618767,20.089581 47.5590793,20.1849394 47.5199752,20.3104841 C47.4808711,20.4360288 47.5113363,20.5728952 47.6,20.67 C47.6779803,20.7510416 47.7451998,20.8417879 47.8,20.94 C47.9362082,21.190522 47.9753676,21.4824374 47.91,21.76 C47.6511562,22.8010204 48.0909656,23.8904564 49,24.46 C50.35,25.33 50.57,26.05 50.57,26.05 C50.6062699,26.1885378 50.7192278,26.2937055 50.86,26.3200085 L51,26.3200085 C51.1182215,26.3208002 51.2297073,26.2650573 51.3,26.17 C51.39,26.05 51.56,25.68 51.2,24.88 L51.4,24.88 C51.4968982,24.8629449 51.5830134,24.807999 51.639309,24.7273086 C51.6956046,24.6466182 51.7174442,24.5468289 51.7,24.45 C51.5407627,23.0584919 50.9336007,21.7564276 49.97,20.74 C49.4629951,20.2652249 48.7945969,20.0007251 48.1,20 L48.1,20.06 Z" id="Shape" fill="#9D7D20" fill-rule="nonzero"></path>
                    <path d="M18.65,66 C18.65,66 24.91,58.81 28.26,58.24 L25.88,57.71 C25.88,57.71 18.93,61.45 18.41,62.18 L18.65,66 Z" id="Path" fill="#9D7D20" fill-rule="nonzero"></path>
                    <path d="M19.22,64.48 L23,60.23 C21.6160191,60.9312134 20.2797866,61.7229312 19,62.6 L19.22,64.48 Z" id="Path" fill="#042302" fill-rule="nonzero"></path>
                    <path d="M36.64,65.07 C36.64,65.07 31.06,58.67 28.08,58.16 L30.2,57.69 C30.2,57.69 36.39,61.02 36.86,61.69 L36.64,65.07 Z" id="Path" fill="#9D7D20" fill-rule="nonzero"></path>
                    <path d="M35.89,63.22 L32.23,59.63 C33.5270413,60.1760198 34.786468,60.8074035 36,61.52 L35.89,63.22 Z" id="Path" fill="#042302" fill-rule="nonzero"></path>
                    <path d="M28,57.77 C27.0923065,58.1792872 26.2390819,58.6999557 25.46,59.32 C24.8850491,60.086116 24.6599292,61.0592148 24.84,62 C24.9816062,62.4319283 25.0159278,62.8918378 24.94,63.34 C25.6661522,62.4905203 26.6371398,61.8862726 27.72,61.61 C27.2528418,60.8149186 27.2152916,59.8386147 27.62,59.01 C28,58.32 28.06,58 28,57.77 Z" id="Path" fill="#9D7D20" fill-rule="nonzero"></path>
                    <path d="M26.85,60 C27.24,59.29 27.24,58.92 27.18,58.74 L25.87,59.13 C25.3283143,59.922275 25.1467073,60.9065851 25.37,61.84 C25.476889,62.1113407 25.5377254,62.3986233 25.55,62.69 C25.9275972,62.4120195 26.3371929,62.1803629 26.77,62 C26.5014079,61.3539801 26.530667,60.6225029 26.85,60 L26.85,60 Z" id="Path" fill="#042302" fill-rule="nonzero"></path>
                    <path d="M28.74,64.32 L28.84,64.13 C28.84,64.13 29.34,63.13 28.06,61.75 C26.78,60.37 27.91,58.53 28.13,58.16 L28.13,58.16 L28.13,58.16 C28.8281524,58.3372141 29.488691,58.6386907 30.08,59.05 L30.08,59.05 L30.08,59.05 C29.9883143,59.568045 30.0993038,60.101511 30.39,60.54 C31.2788215,61.4942152 31.8424575,62.7055076 32,64 L32,64.08 L31.95,64.02 C31.6277194,63.6013066 31.1377557,63.3453554 30.61,63.32 L30.61,63.32 C29.9705948,63.3783935 29.3738888,63.6660911 28.93,64.13 L28.74,64.32 Z M28.17,58.2 C27.99,58.5 26.92,60.46 28.1,61.7 C28.7776259,62.2567229 29.0993387,63.1376031 28.94,64 C29.3867696,63.5638141 29.9765623,63.3044474 30.6,63.27 C31.1134579,63.2937317 31.5929399,63.5334727 31.92,63.93 C31.7524473,62.6806653 31.2202599,61.5084617 30.39,60.56 C30.0958045,60.1116767 29.9815323,59.568884 30.07,59.04 C29.4896305,58.6551722 28.8466997,58.3743129 28.17,58.21 L28.17,58.2 Z" id="Shape" fill="#9D7D20" fill-rule="nonzero"></path>
                    <path d="M32.42,51.6 C30.97,50.6 28.79,51.31 27.56,53.13 C26.33,54.95 26.51,57.23 27.96,58.21 C29.41,59.19 31.59,58.5 32.82,56.68 C34.05,54.86 33.88,52.58 32.42,51.6 Z M31,56 C30.06,57.4 28.77,58.19 28.14,57.76 C27.51,57.33 27.75,55.85 28.7,54.45 C29.65,53.05 30.93,52.26 31.56,52.69 C32.19,53.12 32,54.57 31,56 Z" id="Shape" fill="#9D7D20" fill-rule="nonzero"></path>
                    <path d="M27.88,56.35 C27.7374596,56.5176908 27.5643998,56.6568173 27.37,56.76 C26.2181127,57.1112241 24.9795238,56.5913383 24.4234028,55.523194 C23.8672818,54.4550497 24.1516864,53.1422291 25.1,52.4 C26.2400421,51.9689844 27.5174677,52.510789 28,53.63 C28.23893,54.0473179 28.3663558,54.5191377 28.37,55 C28.479339,54.7937936 28.5995068,54.5935139 28.73,54.4 L28.8,54.3 C28.7149714,53.790466 28.5495791,53.2976643 28.31,52.84 C27.31,50.84 25.21,49.96 23.65,50.77 C22.09,51.58 21.65,53.82 22.65,55.77 C23.65,57.72 25.75,58.65 27.31,57.84 C27.5261269,57.7254732 27.7247977,57.5806792 27.9,57.41 C27.7882886,57.0664808 27.7813265,56.6974888 27.88,56.35 L27.88,56.35 Z" id="Path" fill="#9D7D20" fill-rule="nonzero"></path>
                    <path d="M30.78,63.34 C30.670676,62.7208671 30.3657564,62.1530858 29.91,61.72 L28.69,61.72 C29.2249253,62.2033358 29.5452122,62.879897 29.58,63.6 C29.9428442,63.3896556 30.3626331,63.2987013 30.78,63.34 Z" id="Path" fill="#042302" fill-rule="nonzero"></path>
                    <path d="M29.9,61.73 C29.2522244,60.892559 29.1581786,59.7522531 29.66,58.82 C29.7512453,58.5992982 29.8581857,58.3854173 29.98,58.18 L28.76,58.18 C28.58,58.48 27.47,60.46 28.68,61.74" id="Path" fill="#042302" fill-rule="nonzero"></path>
                    <path d="M26.66,51.7 C26.66,51.7 23.92,50.7 23.58,53.94 C23.5799948,54.8678549 23.9382389,55.7598826 24.58,56.43 C24.58,56.43 22.45,55 22.68,53 C22.7574335,52.3801854 23.1300464,51.8361707 23.68,51.54 C24.6171653,50.9976413 25.7862949,51.0604134 26.66,51.7 L26.66,51.7 Z" id="Path" fill="#042302" fill-rule="nonzero"></path>
                    <path d="M27.52,56.5 C27.52,56.5 27.99,52.6 31.14,52.14 C31.14,52.15 27.14,51.26 27.52,56.5 Z" id="Path" fill="#042302" fill-rule="nonzero"></path>
                    <path d="M30.19,57.46 C31.9363397,56.5942031 32.8499276,54.6341418 32.39,52.74 C32.39,52.74 34.62,56.47 30.19,57.46 Z" id="Path" fill="#042302" fill-rule="nonzero"></path>
                </g>
            </g>
        </g>
    </g>
</svg>