<?xml version="1.0" encoding="UTF-8"?>
<svg width="214px" height="290px" viewBox="0 0 214 290" version="1.1" xmlns="http://www.w3.org/2000/svg" xmlns:xlink="http://www.w3.org/1999/xlink">
    <!-- Generator: Sketch 57.1 (83088) - https://sketch.com -->
    <title>GastroIcono_App_RellenoBlanco</title>
    <desc>Created with Sketch.</desc>
    <g id="Styleguide" stroke="none" stroke-width="1" fill="none" fill-rule="evenodd">
        <g id="Logos" transform="translate(-205.000000, -270.000000)">
            <g id="Group" transform="translate(88.000000, 179.000000)">
                <g id="GastroIcono_App_RellenoBlanco" transform="translate(117.000000, 91.000000)">
                    <path d="M198,178.0298 L198,91.1191919 C198,42.1036363 157.760116,2 108.578035,2 L105.421965,2 C56.2398844,2 16,42.1036363 16,91.1191919 L16,178.0298 C16,203.216719 26.6270116,226.049318 43.6308613,242.296795 C38.5601098,239.439739 34.7788757,237.104554 34.7788757,237.104554 C36.1288844,240.73354 39.4808931,243.765689 42.6850925,245.972962 C45.4925169,247.888492 48.532628,249.441009 51.7324913,250.593268 C53.7245582,251.327487 55.6636998,252.197133 57.5362399,253.196072 C59.0695636,254.172015 60.6342726,255.101126 62.2303671,255.983406 C71.9715751,262.389503 78.5451416,270.554132 78.5451416,270.554132 C74.0705007,270.116654 69.6259836,269.413902 65.2352081,268.449608 C60.8322484,265.076624 55.4306502,263.255145 49.8772486,263.270735 L49.8772486,263.270735 C49.5645347,263.270735 49.2512948,263.279123 48.9375289,263.29118 L48.9375289,263.29118 L48.9335838,263.289345 C42.5383353,263.517123 35.9410983,266.053613 29.3086185,270.840624 L29.286263,270.853205 C28.6843304,270.741195 28.0891484,270.62202 27.5007168,270.49568 C28.6160366,270.909473 29.8385751,271.293909 31.1683324,271.648987 C38.2792197,266.768925 44.4972023,265.148529 49.6150318,265.148529 C49.6460665,265.148529 49.6760491,265.150101 49.7070838,265.150363 C49.7638931,265.150363 49.8214913,265.148529 49.8780376,265.148529 C59.9272254,265.148529 65.7354451,271.382678 65.7354451,271.382678 C65.8369653,273.593358 42.5975116,275.760003 42.5975116,275.760003 C44.4929942,276.927203 58.3015867,277.112518 66.7566965,277.114353 C70.4671821,277.114353 73.0838266,277.077919 73.0838266,277.077919 L73.1693035,277.080278 L73.3468324,277.077919 C106.159697,277.78065 104.66635,287.787687 104.66635,287.787687 L107.014991,288 L109.618749,287.688869 C109.569303,286.654824 110.039558,277.740022 140.946419,277.078181 C140.946419,277.078181 143.629078,277.114615 147.412942,277.114615 C155.855428,277.114615 169.790789,276.933231 171.695477,275.760265 C171.695477,275.760265 148.456286,273.594145 148.557543,271.38294 C148.557543,271.38294 154.365763,265.149053 164.414951,265.148791 C169.509636,265.148791 175.694217,266.752936 182.765127,271.581624 C183.900786,271.288841 185.407546,270.893833 187.377723,270.367506 C186.599225,270.540851 185.808893,270.702402 185.006725,270.852157 L184.98437,270.839575 C178.351627,266.052302 171.755179,263.516075 165.359405,263.288297 L165.35546,263.290131 C165.041957,263.278074 164.728454,263.269686 164.41574,263.269686 L164.41574,263.269686 C158.862338,263.254097 153.46074,265.075575 149.05778,268.44856 L149.099072,268.41763 C148.938639,268.540824 148.785306,268.661397 148.644598,268.77568 C148.20871,268.783718 147.770367,268.796736 147.329569,268.814735 C143.501217,269.590922 139.635493,270.171219 135.747584,270.553345 C135.747584,270.553345 147.346139,256.147228 162.560234,250.592481 C165.760089,249.440205 168.800198,247.887688 171.607633,245.972175 C174.811832,243.764903 178.163841,240.732753 179.514113,237.103767 C179.514113,237.103767 175.375454,239.658867 169.95096,242.69521 C187.197827,226.423356 198,203.42379 198,178.0298 Z" id="Path" fill="#FFFFFF" fill-rule="nonzero"></path>
                    <path d="M43,260 L42.9984319,260 L42.4043883,260 C34.9617244,260 22.6791599,259.811309 21,258.59158 C21,258.59158 31.2056332,257.468961 37.1774314,256 C39.0068663,257.389469 40.9477225,258.722803 43,260 Z" id="Path" fill="#FFFFFF" fill-rule="nonzero"></path>
                    <path d="M128.388496,74.0001162 C128.257282,74.0001162 128.128927,74.0103613 128,74.0187192 C128.345061,77.0396768 130.769967,79.4797627 133.944071,80 C134.173223,78.4853318 133.69138,76.9516579 132.62429,75.7992278 C131.557201,74.6467978 130.010741,73.9899541 128.388496,74.0001162 L128.388496,74.0001162 Z" id="Path" fill="#28ABD8" fill-rule="nonzero"></path>
                    <path d="M98.9342507,157.228124 C101.970103,152.750658 106.05129,149.036755 110.843918,146.39026 C120.346975,141.062758 125.431115,135.056323 125.954443,128.537617 C126.519884,121.498282 121.694591,115.273198 118.535042,112 C115.05978,123.079762 111.021759,127.513339 88.1777285,148.69874 C81.8092751,154.604602 79.1381835,160.085968 80.2425101,164.990802 C81.7116373,171.523352 89.3799612,175.932112 93.8782749,178 C93.5824108,169.702587 95.2779291,162.728037 98.9342507,157.228124 Z" id="Path"></path>
                    <path d="M126.112301,205.434583 C123.718902,205.193348 121.409272,204.428205 119.34993,203.194322 C118.072442,202.45317 116.6383,202.017933 115.161524,201.923214 C114.921594,201.903901 114.686274,201.846934 114.464342,201.754436 C113.168589,201.215666 111.626177,199.893925 111.542452,197.942695 C111.415401,194.980909 114.592987,192.981156 116.993653,191.734573 C119.135387,190.6153 120.637347,188.57877 121.064577,186.214748 C121.643746,183.333395 120.8033,180.286429 118.759067,177.854973 C118.753485,177.848644 118.747903,177.842051 118.742587,177.835458 C118.166931,177.156515 117.519164,176.541138 116.810519,176 C116.778072,176.141687 116.732057,176.279974 116.673103,176.412978 C116.322785,177.202542 115.978579,178.144269 115.613376,179.141377 C113.875073,183.892208 111.493545,190.399383 103.708394,194.921573 C99.2204356,197.528399 98.1120682,202.922695 99.6589983,206.425362 C101.08951,209.663258 104.50578,210.766116 109.054871,209.468636 C110.59489,208.545633 116.863944,205.08226 122.245241,206.438284 C125.285676,207.203058 126.633526,206.675628 126.896663,206.407165 C127.0075,206.294032 127.029561,206.002099 126.960986,205.622349 C126.689392,205.5172 126.403189,205.45388 126.112301,205.434583 Z" id="Path"></path>
                    <path d="M136.400813,86.1019411 C136.636271,86.1019411 136.880362,86.0953387 137.129163,86.082398 C137.86684,86.0436382 138.600294,85.9457018 139.322584,85.7895154 L139.823848,85.662221 C140.276694,85.5509419 140.723602,85.416341 141.162819,85.2589463 L141.343337,85.1929222 C141.458973,84.7360359 141.56519,84.2714908 141.651525,83.7992869 C141.703849,83.5180246 141.747539,83.2341212 141.78809,82.9491615 C142.485168,78.0995762 141.449926,73.1578424 138.867627,69.008319 C138.811425,68.9362043 138.751245,68.8673423 138.687371,68.8020599 L138.599467,68.7064572 C135.773971,65.6128351 128.035516,63.5420573 125.492308,62.8614816 C124.800585,62.6766143 124.485856,62.5910471 124.268973,62.5115542 C123.760123,62.324046 123.065522,61.8837977 121.539493,60.9055856 C117.419502,58.2630397 108.847002,52.763766 101.045496,52.0792288 C100.427026,52.024825 99.8122193,52 99.205261,52 C88.3838759,52 79.5500174,60.2662089 76.1327379,63.9772877 C70.8978445,69.6474906 67.9910406,77.1126953 68,84.8635943 C68,85.0711739 68.0036834,85.2776971 68.0076077,85.4839562 C68.1982064,94.7261144 72.5011554,103.390381 79.7232098,109.074079 C82.0694173,110.920375 88.6967733,114.342269 92.4706408,116 L91.7247624,99.1493464 C88.1269437,95.3411651 85.974828,90.3741219 85.6470698,85.1221445 L85.6413142,85.0553281 C85.6350353,84.9895682 85.6292797,84.9232801 85.625617,84.8569919 C85.6065187,84.4959725 85.5963156,84.1151459 85.5926529,83.6574673 C85.5489623,77.8439192 89.4010542,73.1226727 90.7538908,71.9271095 C92.6311762,70.2673298 94.7845216,68.9558695 97.1143945,68.0533474 C106.918556,64.2663354 117.990863,68.3086637 123.127264,77.5502443 C123.432313,78.0993001 123.718525,78.6723887 123.978314,79.2549848 C125.128328,81.2448803 126.728923,82.9314889 128.649014,84.1766803 L128.665496,84.1766803 L129.342569,84.6079493 C129.366638,84.6222105 129.390968,84.6362076 129.415561,84.6502047 C129.715639,84.8189621 130.028013,84.9800607 130.344573,85.129011 C130.501545,85.2026938 130.656686,85.2763766 130.815489,85.3442493 C131.360035,85.5757633 131.918372,85.7727222 132.48724,85.933976 L135.745978,86.085039 C135.992424,86.0953387 136.206168,86.1019411 136.400813,86.1019411 Z" id="Path"></path>
                    <path d="M143.656594,93.5458508 C142.194621,92.2336873 141.370725,90.4321397 141.372412,88.5512154 C141.372412,88.3651299 141.387143,88.1823135 141.402693,88 L141.402693,88 C140.882624,88.1703513 140.353526,88.3163054 139.817433,88.4373009 L139.809249,88.448114 C138.768009,88.6903977 137.703554,88.8382097 136.631091,88.8894384 C136.346102,88.9030176 136.059386,88.9099749 135.770942,88.9103101 C135.512325,88.9103101 135.255617,88.9032691 135,88.892456 C136.489876,89.6985733 137.844693,90.7000791 139.021939,91.865549 C139.247274,92.0886002 139.467699,92.3161777 139.679395,92.5505448 C139.824253,92.7109807 139.963656,92.8754401 140.101967,93.0409053 C140.590961,93.6267232 141.036375,94.2423802 141.435157,94.8836547 C141.655582,95.23772 141.865095,95.5980721 142.056603,95.9679799 C143.670408,99.0889775 144.169256,102.601239 143.481454,106 C145.544539,103.610843 146.095537,100.398736 144.932768,97.5393965 C147.250288,99.4545296 148.253747,102.380348 147.551679,105.17544 C149.544586,102.797876 149.473989,99.4622755 147.381996,97.1581727 C147.131017,96.8833194 144.097171,93.82171 143.656594,93.5458508 Z" id="Path"></path>
                    <path d="M96.3140985,136 C108.859177,123.672329 111.207069,119.696756 113.850891,110.467775 L115,84.4314671 C114.98694,78.6573374 110.275348,73.9870226 104.476366,74 C98.6773832,74.0130316 93.9869668,78.7044307 94,84.4785604 C94,84.7416517 94.0129742,85.0286844 94.039925,85.3522867 L94.0452095,85.4367391 L96.3140985,136 Z" id="Path"></path>
                    <path d="M102.155753,161.095152 C99.8107473,164.635209 98.4154161,169.114078 98,174.286233 L98.8098757,192 C99.2087495,191.71187 99.622979,191.444621 100.050819,191.199378 C106.399045,187.567021 108.367099,182.26938 109.94812,178.012704 C110.283159,177.110449 110.602281,176.251491 110.945278,175.450091 L111.021411,173.759917 L112,152 C108.048588,154.254039 104.680392,157.365933 102.155753,161.095152 L102.155753,161.095152 Z" id="Path"></path>
                    <path d="M107.585247,34 L106.415271,34 C73.1869634,34 46,61.2083054 46,94.4626972 L46,171.501414 C46.0069352,187.186971 52.1268694,202.251265 63.0586817,213.491573 C65.5341235,202.112459 72.2322548,196.61635 72.5503166,196.361387 L75.1536632,194.275347 L75.5146215,197.593273 C75.7205134,199.480599 76.1666072,201.333847 76.8420589,203.107968 C78.542225,207.577941 82.0079481,211.345326 86.5983965,213.715909 C90.1404964,215.545153 95.1847584,218.86465 99.1011563,224.29139 C99.2293227,224.46887 99.3543503,224.64792 99.4783316,224.827232 C101.308519,222.343684 103.37027,220.039716 105.63581,217.946363 L106.876408,216.802693 L108.117006,217.946363 C110.436421,220.088355 112.542562,222.450649 114.40579,225 C114.567436,224.762575 114.729868,224.525412 114.898838,224.29139 C118.815497,218.864912 123.860021,215.545153 127.401598,213.715909 C131.992046,211.345326 135.457769,207.577941 137.157935,203.107968 C137.833362,201.33384 138.279455,199.480595 138.485373,197.593273 L138.846331,194.275347 L141.449678,196.361387 C141.76774,196.616089 148.465871,202.112459 150.941313,213.491834 C152.337192,212.048787 153.66184,210.540123 154.915255,208.965843 C163.389272,198.320313 168.002423,185.111775 168,171.501153 L168,94.4624354 C168,61.2083054 140.813554,34 107.585247,34 Z M94.1228085,179.252666 C89.73638,177.181547 82.258788,172.763666 80.8262019,166.216553 C79.7506507,161.301572 82.3542589,155.808866 88.5640501,149.890785 C110.839888,128.661291 114.777472,124.218804 118.166296,113.116119 C121.246997,116.396089 125.952272,122.634052 125.401156,129.68795 C124.890845,136.220143 119.934468,142.239005 110.666471,147.577529 C105.993048,150.2295 102.013371,153.951086 99.0530285,158.437815 C95.4886957,163.950154 93.8353496,170.939134 94.1228085,179.252666 Z M94.715224,84.2303954 C94.7023222,78.48528 99.3455243,73.8174546 105.086133,73.8044885 C110.826742,73.7915764 115.490906,78.4384233 115.503836,84.1835387 L114.366294,110.087447 C111.749346,119.270054 109.424826,123.225651 97.0062901,135.491377 L94.76024,85.181927 L94.7550087,85.097899 C94.7280676,84.776708 94.715224,84.4921647 94.715224,84.2293483 L94.715224,84.2303954 Z M112.538484,151.70537 L111.573575,173.675147 L111.498506,175.381621 C111.160304,176.19075 110.844596,177.056945 110.515287,177.968949 C108.956365,182.266679 107.016083,187.61515 100.756333,191.2828 C100.334471,191.530403 99.926032,191.80023 99.5327369,192.091144 L98.734182,174.206277 C99.142745,168.98424 100.519618,164.462175 102.831844,160.887976 C105.321182,157.122482 108.642393,153.9803 112.538746,151.704323 L112.538484,151.70537 Z M125.848954,206.570653 C125.59079,206.836872 124.264399,207.361458 121.271584,206.601542 C115.975959,205.255524 109.80671,208.693079 108.291208,209.609533 C103.814278,210.897177 100.452396,209.802719 99.0449201,206.588715 C97.5226175,203.111895 98.6133394,197.757403 103.029848,195.169813 C110.691842,190.68073 113.034933,184.221834 114.7453,179.506059 C115.104689,178.516309 115.443414,177.581531 115.788156,176.797793 C115.846174,176.665772 115.891456,176.528505 115.923384,176.387863 C116.620747,176.925008 117.258201,177.535844 117.824693,178.209777 C117.829924,178.216322 117.835417,178.222866 117.84091,178.229148 C119.852599,180.642923 120.679664,183.667668 120.109716,186.527236 C119.689288,188.873814 118.211239,190.895316 116.103602,192.00633 C113.741156,193.243976 110.614158,195.228711 110.739185,198.168642 C110.82184,200.105736 112.339696,201.417462 113.614559,201.952257 C113.832956,202.044076 114.064531,202.100623 114.300641,202.119789 C115.753907,202.213809 117.165216,202.645834 118.422367,203.381517 C120.448923,204.606296 122.721784,205.365792 125.077078,205.605248 C125.363145,205.624371 125.644611,205.687135 125.911729,205.791366 C125.978951,206.167528 125.958287,206.457569 125.849215,206.569606 L125.848954,206.570653 Z M131.68994,87.3378592 C131.121194,87.1780235 130.562976,86.9828 130.018546,86.7533283 C129.859253,86.6860536 129.704669,86.6130199 129.54773,86.5399863 C129.231238,86.3923484 128.919977,86.2326691 128.618917,86.0653985 C128.59433,86.0517865 128.570266,86.0376509 128.54594,86.0235154 L127.869013,85.596046 L127.852534,85.596046 C125.932565,84.3616749 124.332118,82.6896423 123.182309,80.7169273 C122.922576,80.1394641 122.636686,79.5714247 122.331441,79.0272062 C119.216633,73.4612239 113.757979,69.5995515 107.475849,68.51776 C101.193718,67.4359685 94.7592951,69.2496367 89.9647254,73.4536134 C88.6121779,74.6386432 84.7609094,79.3172466 84.8045906,85.0806222 C84.8082524,85.5342685 84.8184534,85.9117399 84.8375476,86.2695786 C84.8409479,86.3358062 84.8469639,86.4004632 84.8532415,86.4661673 L84.8589959,86.532395 C85.186684,91.7381005 87.3383398,96.6613821 90.9353894,100.436012 L91.6811084,117.138205 C87.9083091,115.495078 81.282108,112.103333 78.9364019,110.273304 C78.0751175,109.6006 77.2502819,108.88242 76.4654067,108.121821 C70.6984152,102.548507 67.3748444,94.9141269 67.2233039,86.8923278 C67.2193805,86.687886 67.2156978,86.4831823 67.2156978,86.2774316 C67.2067403,78.5948211 70.1129229,71.1953877 75.3466974,65.5751415 C78.7632466,61.8957116 87.595217,53.7023313 98.4142892,53.7023313 C99.0211177,53.7023313 99.6355316,53.7285082 100.25413,53.7808621 C108.053969,54.45963 116.624637,59.9101912 120.743747,62.5294552 C122.268142,63.4980018 122.963641,63.9354184 123.472645,64.1212746 C123.689481,64.1998054 124.004143,64.2848804 124.695718,64.468119 C127.237597,65.1426986 134.973614,67.195232 137.800075,70.261598 L137.887961,70.3563585 C137.951823,70.4210634 138.011991,70.4893189 138.068178,70.5608004 C140.649893,74.6735868 141.685002,79.5715763 140.988279,84.3782951 C140.947736,84.661006 140.903009,84.9421462 140.851742,85.2209306 C140.765426,85.6889742 140.659231,86.1491647 140.54362,86.6022874 L140.363141,86.6677297 C139.924016,86.8237312 139.477204,86.9571462 139.024456,87.0674515 L138.523299,87.1936243 C137.801164,87.3484358 137.067867,87.4455094 136.330347,87.4839265 C136.081599,87.4967532 135.836514,87.5032975 135.602153,87.5032975 C135.407549,87.5032975 135.193851,87.4978003 134.948243,87.4865442 L131.68994,87.3378592 Z M147.815361,104.694999 C147.586269,105.27448 147.276954,105.818872 146.896487,106.31221 C147.569528,103.402687 146.607419,100.357128 144.385472,98.3635839 C145.500336,101.340069 144.972039,104.683774 142.993952,107.170813 C143.653416,103.632807 143.175121,99.9766504 141.627803,96.7277873 C141.444708,96.3427246 141.243042,95.9686562 141.03196,95.5990379 C140.649606,94.9314921 140.222542,94.2906121 139.753697,93.6807922 C139.621345,93.5085479 139.487424,93.3373508 139.348534,93.1703419 C139.14556,92.9263729 138.934478,92.6894717 138.718165,92.4572823 C137.58942,91.2440637 136.290421,90.2015268 134.861926,89.3623833 C135.107012,89.3736394 135.353144,89.380969 135.601106,89.380969 C135.877841,89.380969 136.152745,89.3737267 136.425818,89.3592421 C137.454097,89.3059196 138.474698,89.1520517 139.473038,88.8998369 L139.480885,88.8885808 C139.994891,88.7626282 140.502191,88.6106945 141.000834,88.4333639 L141.000834,88.4333639 C140.985925,88.6231467 140.9718,88.813453 140.9718,89.0071623 C140.970182,90.965147 141.760135,92.8405029 143.161876,94.206425 C143.58404,94.4943713 146.492893,97.6795806 146.733271,97.9670034 C148.300838,99.8405805 148.716159,102.423301 147.815099,104.694475 L147.815361,104.694999 Z" id="Shape" fill="#28ABD8" fill-rule="nonzero"></path>
                    <path d="M33.9565721,254.969819 C33.985088,254.990027 34.0146504,255.009973 34.0434279,255.030181 C34.0146504,255.009973 33.985088,254.990027 33.9565721,254.969819 Z" id="Path"></path>
                    <path d="M31.964813,253.973756 C31.9880966,253.991077 32.0119034,254.007873 32.035187,254.026244 C32.012165,254.007873 31.9880966,253.991077 31.964813,253.973756 Z" id="Path"></path>
                    <path d="M31.9727922,251.979267 L32.0272078,252.020733 L31.9727922,251.979267 Z" id="Path"></path>
                    <path d="M27.9992152,249.999344 L28.0007848,250.000656 L27.9992152,249.999344 Z" id="Path"></path>
                    <path d="M28.995291,251.996063 L29.004709,252.003937 L28.995291,251.996063 Z" id="Path"></path>
                    <path d="M29.9856112,251.988584 L30.0143888,252.011416 L29.9856112,251.988584 Z" id="Path"></path>
                    <path d="M32,254 C32.6575758,254.671071 33.3242424,255.337737 34,256 C33.3230303,255.337737 32.6563636,254.671071 32,254 Z" id="Path" fill="#28ABD8" fill-rule="nonzero"></path>
                    <path d="M28,251 C28.656707,251.66975 29.3233736,252.336416 30,253 C29.3230575,252.336802 28.6563908,251.670135 28,251 Z" id="Path" fill="#28ABD8" fill-rule="nonzero"></path>
                    <path d="M30,251 C30.6570003,251.670232 31.323667,252.336898 32,253 C31.3233552,252.337295 30.6566885,251.670628 30,251 Z" id="Path" fill="#28ABD8" fill-rule="nonzero"></path>
                    <path d="M31,252 C31.6575638,252.670551 32.3242305,253.337218 33,254 C32.3236134,253.337626 31.6569467,252.67096 31,252 Z" id="Path" fill="#28ABD8" fill-rule="nonzero"></path>
                    <path d="M28,250 C28.6561514,250.669507 29.3228181,251.336173 30,252 C29.3237887,251.336173 28.6571221,250.669507 28,250 Z" id="Path" fill="#28ABD8" fill-rule="nonzero"></path>
                    <path d="M26,249 C26.6556667,249.669105 27.3223333,250.335771 28,251 C27.322,250.335771 26.6553333,249.669105 26,249 Z" id="Path" fill="#28ABD8" fill-rule="nonzero"></path>
                    <path d="M123.863176,262 C123.915499,261.976586 123.966513,261.948816 124.018313,261.925402 C124.055724,261.28832 124.093134,260.651783 124.136824,260 C124.046044,260.67792 123.954479,261.342227 123.863176,262 Z" id="Path"></path>
                    <path d="M143.450556,289.24042 C145.30447,289.730635 147.215062,289.985916 149.135452,290 C149.221352,290 149.308112,289.999412 149.39573,289.998235 C174.997862,289.655126 194,275.174706 194,275.174706 C193.521878,275.20042 193.057242,275.212941 192.606092,275.212269 C186.450118,275.212269 182.828381,272.983193 182.828381,272.983193 C175.4174,267.716303 168.961204,266 163.694042,266 C153.847524,266 148.156444,271.996218 148.156444,271.996218 C148.056971,274.122437 170.827736,276.206303 170.827736,276.206303 C168.961719,277.334454 155.308176,277.508908 147.034926,277.508908 C143.326601,277.508908 140.698819,277.473866 140.698819,277.473866 C108.54746,278.15 110.010174,287.77395 110.010174,287.77395 C114.137477,286.932013 118.344229,286.519466 122.560239,286.543193 C131.607109,286.544454 139.54612,288.238067 143.450556,289.24042 Z" id="Path" fill="#28ABD8" fill-rule="nonzero"></path>
                    <path d="M70.5499032,289.24042 C68.6959718,289.730635 66.7853633,289.985916 64.8649558,290 C64.7790545,290 64.6922942,289.999412 64.6046748,289.998235 C39.0023105,289.655126 20,275.174706 20,275.174706 C20.4781266,275.20042 20.9427667,275.212941 21.3939202,275.212269 C27.5499504,275.212269 31.1717206,272.983193 31.1717206,272.983193 C38.5827686,267.716303 45.0390237,266 50.3062332,266 C60.1528404,266 65.8439728,271.996218 65.8439728,271.996218 C65.9434465,274.122437 43.1724745,276.206303 43.1724745,276.206303 C45.0385083,277.334454 58.6921749,277.508908 66.9655,277.508908 C70.6738588,277.508908 73.3016651,277.473866 73.3016651,277.473866 C105.453058,278.149748 103.989815,287.774454 103.989815,287.774454 C99.8624756,286.932517 95.655685,286.519971 91.4396368,286.543697 C82.3934578,286.544454 74.4543746,288.238067 70.5499032,289.24042 Z" id="Path" fill="#28ABD8" fill-rule="nonzero"></path>
                    <path d="M42.406677,260 L43,260 L43,260 C40.9469803,258.726793 39.0067007,257.39346 37.1791612,256 C31.2059404,257.468848 21,258.591381 21,258.591381 C22.6796008,259.811324 34.9632173,260 42.406677,260 Z" id="Path"></path>
                    <path d="M35.9683447,255.979005 C35.9892738,255.993176 36.0107262,256.007086 36.0316553,256.020995 L35.9683447,255.979005 Z" id="Path"></path>
                    <path d="M48,262 C48.6582614,262.676985 49.3249281,263.343652 50,264 C49.3249281,263.344155 48.6582614,262.677488 48,262 Z" id="Path"></path>
                    <path d="M45.8663154,261.937538 C45.9544792,261.979792 46.0452592,262.020471 46.1336846,262.062462 C46.0452592,262.020471 45.9544792,261.979792 45.8663154,261.937538 Z" id="Path"></path>
                    <path d="M64,266.122561 C63.6722222,266.040941 63.3451389,265.959846 63,265.877439 C63.3451389,265.958534 63.6729167,266.039629 64,266.122561 Z" id="Path"></path>
                    <path d="M51.4441813,249.786969 C48.2748245,248.637412 45.2636894,247.088571 42.4830058,245.177599 C39.3096034,242.97555 35.98954,239.950577 34.6521366,236.330181 C34.6521366,236.330181 59.5399783,251.808847 67.0540803,251.808847 C68.0762795,251.808847 68.7767621,251.52251 69.0495049,250.87165 C68.9277765,249.760833 68.7290549,248.659886 68.454785,247.576814 C67.4239025,245.423317 66.510071,243.298235 65.7132905,241.201569 C65.346247,240.2309 65.0081189,239.266507 64.6916123,238.30839 C60.4045754,231.100022 51.9740369,223.430638 35.4800033,223.228241 C35.4800033,223.228241 35.3278718,223.231641 35.0434065,223.231641 C32.306601,223.231641 17.3125223,222.906603 7.43751524,216 C7.43751524,216 10.8682909,233.797603 27.5920848,249.02445 L27.5894798,249.022096 L27.5894798,249.022096 C27.4514152,249.019481 27.3154346,249.01399 27.1755465,249.01399 C22.4524338,249.01399 16.6633581,250.592373 10.0180212,255.438658 C10.0180212,255.438658 6.77037656,257.489562 1.25039659,257.489562 C0.845754363,257.489562 0.428955498,257.477969 0,257.454783 C0,257.454783 11.9014311,266.758248 29.2105669,270 L29.2327094,269.987448 C35.802241,265.211506 42.3358237,262.681281 48.6706454,262.454042 C48.1416582,262.227413 47.6195308,261.997124 47.1042632,261.763173 L47.1042632,261.763173 C47.6202254,261.996949 48.1424397,262.227326 48.6709059,262.454304 L48.6709059,262.454304 L48.6748134,262.456134 L48.6748134,262.456134 C48.985589,262.444105 49.2958437,262.435738 49.6055774,262.435738 L49.6055774,262.435738 C55.1059682,262.420223 60.4559937,264.23739 64.8169124,267.602353 C69.1658434,268.564363 73.5680034,269.265452 78,269.701896 C78,269.701896 66.5145863,255.328307 51.4441813,249.786969 Z M44.1684362,260.357115 L44.1314453,260.33881 L44.1684362,260.357115 Z M33.1813576,253.615254 L33.1368122,253.582829 L33.1368122,253.582829 L33.1813576,253.615254 Z M42.1130968,259.601395 C34.694598,259.601395 22.4519128,259.440837 20.7782049,258.402964 C20.7782049,258.402964 30.9507022,257.447723 36.903111,256.197777 C38.725564,257.380083 40.6593371,258.514709 42.7044302,259.601656 L42.7044302,259.601656 L42.1130968,259.601395 Z M45.867673,261.185269 L45.7598263,261.134801 C45.7975987,261.152844 45.8364131,261.170364 45.874446,261.1871 L45.867673,261.185269 Z" id="Shape" fill="#28ABD8" fill-rule="nonzero"></path>
                    <path d="M66,269 C65.3275503,268.677143 64.6608837,268.34381 64,268 C64.6598691,268.345238 65.3265358,268.678571 66,269 Z" id="Path" fill="#28ABD8" fill-rule="nonzero"></path>
                    <path d="M46,262 C46.661613,262.336818 47.3249105,262.673182 48,263 C47.3249105,262.672727 46.6607707,262.337273 46,262 Z" id="Path" fill="#28ABD8" fill-rule="nonzero"></path>
                    <path d="M42,260 C43.3002279,260.683154 44.6335612,261.349821 46,262 C44.6328415,261.350299 43.2995082,260.683632 42,260 Z" id="Path" fill="#28ABD8" fill-rule="nonzero"></path>
                    <path d="M38,256 C37.3236102,255.338875 36.6569436,254.672208 36,254 C36.6580709,254.671782 37.3247375,255.338448 38,256 Z" id="Path" fill="#28ABD8" fill-rule="nonzero"></path>
                    <path d="M34,254 C34.6582053,254.670959 35.324872,255.337626 36,256 C35.3242782,255.338485 34.6576115,254.671818 34,254 Z" id="Path" fill="#28ABD8" fill-rule="nonzero"></path>
                    <path d="M73.3008636,277.473866 C73.3008636,277.473866 70.6723237,277.508908 66.9647938,277.508908 C58.6926239,277.508908 45.0381318,277.334454 43.1721261,276.206303 C43.1721261,276.206303 65.9424979,274.122941 65.8432834,271.996218 C65.8432834,271.996218 60.1522367,266.000504 50.3057774,266 C45.0383895,266 38.5824891,267.714286 31.1715526,272.983193 C31.1715526,272.983193 27.5498368,275.212269 21.3938993,275.212269 C20.9425807,275.212269 20.4779476,275.199748 20,275.174706 C20,275.174706 39.0020247,289.654874 64.6040041,289.998235 C64.6899041,289.999412 64.7766631,290 64.8642811,290 C66.7846598,289.985916 68.6952396,289.730635 70.5491431,289.24042 C74.4535557,288.238067 82.3925196,286.544454 91.4398511,286.542941 C95.6558359,286.519214 99.8625632,286.931761 103.989841,287.773697 C103.989841,287.773697 105.451773,278.149496 73.3008636,277.473866 Z" id="Path" fill="#28ABD8" fill-rule="nonzero"></path>
                    <path d="M154.042251,249.982154 L153.957749,250.017846 L154.042251,249.982154 Z" id="Path" fill="#28ABD8" fill-rule="nonzero"></path>
                    <path d="M149.065403,251.984385 C149.020929,251.995407 148.978024,252.005118 148.934597,252.015615 C148.978024,252.005118 149.020929,251.995407 149.065403,251.984385 Z" id="Path" fill="#28ABD8" fill-rule="nonzero"></path>
                    <path d="M156.077699,249.965489 L155.922301,250.034511 L156.077699,249.965489 Z" id="Path" fill="#28ABD8" fill-rule="nonzero"></path>
                    <path d="M147,252.005643 C146.656062,252.005643 146.324162,252.000656 146,251.994357 C146.320722,252.001443 146.652623,252.005643 147,252.005643 Z" id="Path" fill="#28ABD8" fill-rule="nonzero"></path>
                    <path d="M148.040289,251.99462 C148.012819,251.998819 147.987966,252.001443 147.959711,252.00538 C147.986919,252.001443 148.011511,251.998557 148.040289,251.99462 Z" id="Path" fill="#28ABD8" fill-rule="nonzero"></path>
                    <path d="M150.067758,251.980317 C150.02276,251.993439 149.976716,252.006561 149.932242,252.019683 C149.976716,252.007348 150.022237,251.993439 150.067758,251.980317 Z" id="Path" fill="#28ABD8" fill-rule="nonzero"></path>
                    <path d="M149.073644,251.984778 C149.024461,251.995014 148.974754,252.005774 148.926356,252.015222 C148.974754,252.005774 149.024461,251.995014 149.073644,251.984778 Z" id="Path" fill="#28ABD8" fill-rule="nonzero"></path>
                    <path d="M154.09078,249.962733 L153.90922,250.037267 L154.09078,249.962733 Z" id="Path" fill="#28ABD8" fill-rule="nonzero"></path>
                    <path d="M158.076522,247.963389 L157.923478,248.036611 L158.076522,247.963389 Z" id="Path" fill="#28ABD8" fill-rule="nonzero"></path>
                    <path d="M152.091565,249.966407 L151.908435,250.033593 L152.091565,249.966407 Z" id="Path" fill="#28ABD8" fill-rule="nonzero"></path>
                    <path d="M148.067104,251.994226 C148.022106,251.998425 147.977109,252.002362 147.932896,252.005774 C147.977109,252.002362 148.021845,251.998163 148.067104,251.994226 Z" id="Path" fill="#28ABD8" fill-rule="nonzero"></path>
                    <path d="M152.04212,251.985172 L151.95788,252.014828 L152.04212,251.985172 Z" id="Path" fill="#28ABD8" fill-rule="nonzero"></path>
                    <path d="M152.083716,251.973756 C152.027469,251.991602 151.972007,252.008661 151.916284,252.026244 C151.972007,252.008661 152.027469,251.991602 152.083716,251.973756 Z" id="Path" fill="#28ABD8" fill-rule="nonzero"></path>
                    <path d="M157.064749,249.970606 L156.935251,250.029394 L157.064749,249.970606 Z" id="Path" fill="#28ABD8" fill-rule="nonzero"></path>
                    <path d="M158.050361,247.976249 L157.949639,248.023751 L158.050361,247.976249 Z" id="Path" fill="#28ABD8" fill-rule="nonzero"></path>
                    <path d="M152,251.88295 C151.319542,251.96562 150.654599,252.043303 150,252.11705 C150.654599,252.041991 151.320281,251.96457 152,251.88295 Z" id="Path" fill="#28ABD8" fill-rule="nonzero"></path>
                    <path d="M153,251.881113 C152.323914,251.963695 151.657248,252.042953 151,252.118887 C151.656201,252.043303 152.322868,251.964045 153,251.881113 Z" id="Path" fill="#28ABD8" fill-rule="nonzero"></path>
                    <path d="M160,248 C159.330113,248.337875 158.663446,248.671208 158,249 C158.661728,248.671662 159.328395,248.338329 160,248 Z" id="Path" fill="#28ABD8" fill-rule="nonzero"></path>
                    <path d="M149,251.973756 C148.655433,251.995801 148.323068,252.013122 148,252.026244 C148.32423,252.013122 148.656595,251.995801 149,251.973756 Z" id="Path" fill="#28ABD8" fill-rule="nonzero"></path>
                    <path d="M158,249 C157.328833,249.339919 156.662166,249.673253 156,250 C156.662166,249.673253 157.328833,249.339919 158,249 Z" id="Path" fill="#28ABD8" fill-rule="nonzero"></path>
                    <path d="M154,250 C153.315154,250.715711 152.648487,251.382378 152,252 C152.6476,251.384089 153.314267,250.717422 154,250 Z" id="Path" fill="#28ABD8" fill-rule="nonzero"></path>
                    <path d="M151,251.915362 C150.660623,251.975024 150.32729,252.031449 150,252.084638 C150.32729,252.031449 150.660623,251.975024 151,251.915362 Z" id="Path" fill="#28ABD8" fill-rule="nonzero"></path>
                    <path d="M149,251.950661 C148.656716,251.988715 148.321828,252.022308 148,252.049339 C148.321828,252.022308 148.656716,251.988715 149,251.950661 Z" id="Path" fill="#28ABD8" fill-rule="nonzero"></path>
                    <path d="M147,251.98963 C146.653909,252.001965 146.317113,252.010363 146,252.010363 C146.317113,252.010626 146.653909,252.00249 147,251.98963 Z" id="Path" fill="#28ABD8" fill-rule="nonzero"></path>
                    <path d="M155,250 C154.326523,250.342632 153.659857,250.675965 153,251 C153.660326,250.675402 154.326993,250.342068 155,250 Z" id="Path" fill="#28ABD8" fill-rule="nonzero"></path>
                    <path d="M150,251.9151 C149.31694,251.976686 148.650273,252.033287 148,252.0849 C148.650273,252.033112 149.31694,251.976511 150,251.9151 Z" id="Path" fill="#28ABD8" fill-rule="nonzero"></path>
                    <path d="M149,251.944231 C148.659649,251.984997 148.326316,252.022176 148,252.055769 C148.326316,252.022002 148.659649,251.984822 149,251.944231 Z" id="Path" fill="#28ABD8" fill-rule="nonzero"></path>
                    <path d="M158,249 C157.328755,249.340513 156.662088,249.673846 156,250 C156.662088,249.67641 157.328755,249.343077 158,249 Z" id="Path" fill="#28ABD8" fill-rule="nonzero"></path>
                    <path d="M156,249 C155.327191,249.341613 154.660524,249.674947 154,250 C154.659705,249.675893 155.326372,249.34256 156,249 Z" id="Path" fill="#28ABD8" fill-rule="nonzero"></path>
                    <path d="M212.749868,257.490245 C207.229907,257.490245 203.982273,255.439281 203.982273,255.439281 C197.336958,250.592855 191.547902,249.014426 186.824805,249.014426 C186.684917,249.014426 186.548676,249.019656 186.410873,249.022533 C203.131745,233.795767 206.561989,216 206.561989,216 C200.0451,220.557988 191.300428,222.249909 185.319124,222.872285 C183.760041,223.034678 182.392945,223.124373 181.29807,223.173536 C180.544709,223.20727 179.922378,223.222175 179.457649,223.22819 L179.314375,223.229759 L179.195327,223.229759 C179.108581,223.229759 179.027045,223.229759 178.95645,223.229759 C178.671986,223.229759 178.519855,223.226359 178.519855,223.226359 C177.981665,223.232897 177.455458,223.250679 176.934982,223.27343 C176.906588,223.27343 176.877152,223.274737 176.849018,223.276045 L176.849018,223.276045 C176.010039,223.314224 175.191727,223.37097 174.394081,223.446283 C160.592874,224.763994 153.222593,231.72519 149.308083,238.3059 C148.991838,239.264568 148.65345,240.228727 148.286408,241.199163 C147.494145,243.294147 146.580317,245.41929 145.544923,247.574594 C145.270654,248.657697 145.071933,249.758676 144.950205,250.869525 C145.194813,251.45346 145.785884,251.741897 146.643444,251.795505 C146.741652,251.801781 146.841163,251.80675 146.946404,251.80675 C147.097493,251.80675 147.259002,251.798382 147.422856,251.786091 C147.46688,251.782691 147.511425,251.778769 147.556491,251.774585 C147.701329,251.761248 147.850334,251.743989 148.004809,251.722284 C148.030859,251.718362 148.056909,251.715747 148.085043,251.711563 C148.264787,251.685413 148.451824,251.651156 148.643551,251.613238 C148.691744,251.603562 148.741238,251.593102 148.790212,251.582904 C148.951026,251.549431 149.116009,251.512385 149.285159,251.471765 C149.328923,251.461305 149.371644,251.451629 149.415408,251.440646 C149.62207,251.388346 149.833942,251.331948 150.051024,251.271454 C150.09557,251.258902 150.141157,251.245304 150.185962,251.232229 C150.369353,251.179928 150.556131,251.123705 150.746295,251.06356 C150.801781,251.0463 150.857006,251.029303 150.913014,251.011259 C151.143815,250.937515 151.378264,250.860372 151.618183,250.777999 L151.702063,250.748449 C151.919666,250.672962 152.140916,250.593988 152.365813,250.511528 L152.548162,250.444583 C153.055439,250.256301 153.577652,250.052504 154.1148,249.83319 L154.295586,249.758924 C154.539759,249.658507 154.786278,249.555388 155.035141,249.449566 L155.119282,249.414002 C155.399057,249.294583 155.681784,249.171764 155.967464,249.045545 L156.1222,248.97677 C156.373147,248.86537 156.626004,248.752052 156.880772,248.636817 L157.009719,248.57824 C157.303561,248.444176 157.5994,248.307411 157.897237,248.167943 L157.997529,248.120611 C158.265842,247.994567 158.535458,247.866605 158.806376,247.736725 L158.958768,247.663766 C159.263551,247.517325 159.569376,247.36914 159.876243,247.219212 L159.877546,247.219212 C169.177339,242.65547 179.349021,236.33051 179.349021,236.33051 C178.011622,239.951012 174.69157,242.976073 171.518178,245.178185 C168.737502,247.08921 165.726378,248.638096 162.557032,249.787689 C147.486938,255.32945 136,269.701887 136,269.701887 C139.850844,269.320659 143.679715,268.741719 147.471569,267.967341 L147.471569,267.967341 C147.907643,267.949908 148.341807,267.93692 148.774061,267.928377 C148.913428,267.814362 149.065298,267.693025 149.224202,267.571165 C149.211438,267.581102 149.196329,267.592085 149.183565,267.602022 C153.544469,264.236961 158.894476,262.419742 164.394849,262.435256 L164.394849,262.435256 C164.704581,262.435256 165.014835,262.443624 165.32561,262.455654 L165.329517,262.453823 L165.329517,262.453823 C165.858155,262.227188 166.38002,261.996978 166.895113,261.763195 C166.379847,261.996978 165.857982,262.227188 165.329517,262.453823 C171.663797,262.681069 178.198139,265.211628 184.767388,269.987448 L184.789531,270 C202.098609,266.757369 214,257.454419 214,257.454419 C213.571046,257.478826 213.154335,257.490768 212.749868,257.490245 Z M183.185121,251.786875 L183.159071,251.80675 L183.185121,251.786875 Z M182.042054,252.690367 L181.996206,252.725408 L182.042054,252.690367 Z M180.863038,253.583659 C180.840896,253.600134 180.818232,253.616085 180.79609,253.63256 C180.817972,253.617393 180.840896,253.60118 180.863038,253.584967 L180.863038,253.583659 Z M179.64625,254.466753 C179.621502,254.484274 179.595974,254.501533 179.571487,254.519053 C179.595974,254.50284 179.621502,254.485581 179.64625,254.46806 L179.64625,254.466753 Z M178.390387,255.338864 L178.335682,255.375212 L178.390387,255.338864 Z M171.887044,259.601354 L171.295712,259.601354 L171.293889,259.601354 C173.340191,258.517688 175.274131,257.382941 177.09571,256.197115 C183.04888,257.447097 193.220562,258.402365 193.220562,258.402365 C191.547902,259.442884 179.305257,259.603446 171.887044,259.603446 L171.887044,259.601354 Z M168.147329,261.178475 C168.230167,261.13925 168.31535,261.100025 168.397928,261.061322 C168.31535,261.103163 168.230167,261.141342 168.147329,261.180567 L168.147329,261.178475 Z" id="Shape" fill="#28ABD8" fill-rule="nonzero"></path>
                    <path d="M85.94319,214.643151 C81.0981367,212.146908 77.1759758,208.086402 75.2353191,202.999192 C74.498104,201.069428 74.0116987,199.053265 73.7879961,197 C73.7879961,197 44.0240574,220.791534 88.3012829,273.644154 C88.3012829,273.644154 96.3696078,266.735611 78.1328639,224.663381 C78.2043735,224.648781 78.2773125,224.642337 78.3502786,224.644173 C79.5606855,224.644173 85.6319576,226.044511 91.6001884,252.695396 C97.3768307,278.49087 105.049329,282.412184 107,283 L105.588518,279.524942 C104.940448,277.905741 104.407666,276.242885 103.994143,274.548769 C103.376534,272.00103 102.941221,269.412652 102.6915,266.803233 C102.56395,265.533667 102.468551,264.221213 102.408202,262.90218 C102.199738,257.594502 102.424661,252.278689 103.080738,247.007478 C103.987291,239.389293 102.690709,232.594681 99.226832,226.812828 L98.606739,225.777441 L98.6156991,225.765074 C94.7728616,219.931912 89.4600373,216.454749 85.94319,214.643151 Z" id="Path" fill="#28ABD8" fill-rule="nonzero"></path>
                    <path d="M104.168059,247.53753 C102.107849,264.640938 104.74479,274.55156 106.542051,279 C108.339311,274.550772 110.976518,264.639888 108.916308,247.53753 C107.954469,239.552019 109.329096,232.435617 113,226.339257 C111.080462,223.674924 108.88454,221.215211 106.447836,219 C104.054702,221.17716 101.894133,223.590517 100,226.202236 C103.733182,232.329046 105.13735,239.491909 104.168059,247.53753 Z" id="Path" fill="#28ABD8" fill-rule="nonzero"></path>
                    <path d="M140.235821,197 C140.012657,199.052548 139.527435,201.068007 138.79202,202.997101 C136.856085,208.082537 132.943468,212.141627 128.110204,214.636999 C121.525292,218.036934 108.6273,227.303244 110.96467,246.984781 C113.275488,266.445372 109.775611,276.891374 107.814964,280.989393 L107,283 C108.761374,282.522073 116.595547,278.945644 122.466971,252.675977 C128.420679,226.034384 134.477178,224.634534 135.68464,224.634534 C135.757428,224.632699 135.83019,224.63914 135.901525,224.653735 C117.709419,266.712348 125.757849,273.617431 125.757849,273.617431 C169.927336,220.783238 140.235821,197 140.235821,197 Z" id="Path" fill="#28ABD8" fill-rule="nonzero"></path>
                    <polygon id="Path" fill="#FFFFFF" fill-rule="nonzero" points="29.9951601 251.995932 30.0027469 252.002231 30.0048399 252.004068"></polygon>
                    <path d="M45.942445,261.9731 C45.9787221,261.990596 46.0148248,262.00748 46.0507531,262.023751 L46.057555,262.0269 C46.0193594,262.007742 45.980379,261.990158 45.942445,261.9731 Z" id="Path" fill="#FFFFFF" fill-rule="nonzero"></path>
                    <polygon id="Path" fill="#FFFFFF" fill-rule="nonzero" points="31.9997384 251.999738 31.9997384 251.999738 32.0002616 252.000262"></polygon>
                    <path d="M171,260 L171.001568,260 L171.595103,260 C179.037944,260 191.3208,259.811309 193,258.59158 C193,258.59158 182.794124,257.468961 176.822184,256 C174.992706,257.389469 173.051978,258.722803 171,260 Z" id="Path" fill="#FFFFFF" fill-rule="nonzero"></path>
                    <polygon id="Path" fill="#FFFFFF" fill-rule="nonzero" points="35.9869193 255.990946 36.0130807 256.009054 36.0130807 256.009054"></polygon>
                    <path d="M43,260 L43,260 C41.6288441,259.349144 40.2955108,258.682477 39,258 C40.2957435,258.682059 41.6290768,259.348725 43,260 Z" id="Path" fill="#FFFFFF" fill-rule="nonzero"></path>
                    <polygon id="Path" fill="#FFFFFF" fill-rule="nonzero" points="33.977632 253.983729 33.977632 253.983729 34.022368 254.016271"></polygon>
                    <path d="M48,263 C48.6645092,263.334561 49.3247033,263.675261 50,264 L50,264 C49.3247033,263.671578 48.6645092,263.335175 48,263 Z" id="Path" fill="#FFFFFF" fill-rule="nonzero"></path>
                    <path d="M27.6846843,221.118261 C28.1581023,221.975383 28.6450242,222.823825 29.1454498,223.663587 C30.9292617,223.852178 32.4707887,223.945553 33.6422238,223.99132 C33.1900635,223.281319 32.7480963,222.564742 32.3163224,221.841589 L32.341152,221.844745 C31.8924765,221.105109 31.4551268,220.358021 31.0291028,219.60348 C29.514219,216.882926 28.1472741,214.081581 26.9343072,211.211821 C22.4830427,200.688145 20.1968887,189.365877 20.2138451,177.928468 L20.2138451,90.7150827 C20.196818,79.2774965 22.4829735,67.9550425 26.9343072,57.4312034 C35.6457036,36.8724098 51.9163817,20.4980457 72.3450602,11.7310675 C82.8023325,7.2514625 94.0531588,4.95084032 105.418369,4.9680808 L108.554742,4.9680808 C119.92004,4.95080477 131.170959,7.25142767 141.628312,11.7310675 C162.057089,20.4979899 178.327868,36.8723611 187.039327,57.4312034 C191.49066,67.9550425 193.776816,79.2774965 193.759789,90.7150827 L193.759789,177.928468 C193.776745,189.365877 191.490591,200.688145 187.039327,211.211821 C185.164532,215.656828 182.920427,219.934726 180.330887,224 C180.542854,223.992635 180.763445,223.984481 181.002332,223.973697 C182.046222,223.926615 183.338668,223.842183 184.806491,223.693572 C185.24506,222.95832 185.673872,222.216755 186.092926,221.468878 L186.208449,221.452044 L186.208449,221.452044 C186.971285,220.110248 187.698923,218.751268 188.391364,217.375103 C194.728592,204.766893 198.02061,190.831894 198,176.702493 L198,90.6921992 C198,66.5659174 188.599149,43.8184305 171.529703,26.6400444 C154.460257,9.46165832 131.85616,0 107.882513,0 L106.118564,0 C82.1436105,0 59.5400355,9.46060621 42.4703283,26.6389923 C25.4006211,43.8173784 16,66.5648653 16,90.6921992 L16,176.702493 C15.9738709,192.262684 19.9667578,207.562585 27.5871954,221.10169 C27.619866,221.106687 27.6517524,221.111948 27.6846843,221.118261 Z" id="Path" fill="#28ABD8" fill-rule="nonzero"></path>
                </g>
            </g>
        </g>
    </g>
</svg>