<svg xmlns="http://www.w3.org/2000/svg" viewBox="0 0 325.88 602.45"><defs><style>.cls-1{fill:#2d9bd6;}</style></defs><title>microRecurso 1</title><g id="Capa_2" data-name="Capa 2"><g id="Capa_1-2" data-name="Capa 1"><path class="cls-1" d="M162.94,405a99.73,99.73,0,0,1-99.62-99.62V99.62a99.62,99.62,0,1,1,199.24,0V305.41A99.73,99.73,0,0,1,162.94,405Zm0-387.39a82.08,82.08,0,0,0-82,82V305.41a82,82,0,0,0,164,0V99.62A82.08,82.08,0,0,0,162.94,17.63Z"/><path class="cls-1" d="M162.94,468.35C73.1,468.35,0,395.25,0,305.41V248.61a27.44,27.44,0,0,1,54.88,0v56.79a108.06,108.06,0,0,0,216.12,0V248.61a27.44,27.44,0,0,1,54.88,0v56.79C325.88,395.25,252.79,468.35,162.94,468.35ZM27.44,238.81a9.82,9.82,0,0,0-9.81,9.8v56.79c0,80.12,65.19,145.31,145.31,145.31s145.31-65.19,145.31-145.31V248.61a9.81,9.81,0,0,0-19.62,0v56.79a125.69,125.69,0,0,1-251.39,0V248.61A9.81,9.81,0,0,0,27.44,238.81Z"/><path class="cls-1" d="M267.21,602.45H58.69V575a27.47,27.47,0,0,1,27.44-27.44H135.5V463.25l9.88,1.19a131.81,131.81,0,0,0,35.12,0l9.88-1.19v84.31h49.38A27.48,27.48,0,0,1,267.21,575ZM76.32,584.81H249.57V575a9.83,9.83,0,0,0-9.81-9.81h-67V482.9a136.39,136.39,0,0,1-19.61,0v82.3h-67a9.82,9.82,0,0,0-9.8,9.81Z"/></g></g></svg>