<svg xmlns="http://www.w3.org/2000/svg" viewBox="0 0 155.65 154.68"><defs><style>.cls-1{fill:#fff;}</style></defs><title>perfilRecurso 1</title><g id="Capa_2" data-name="Capa 2"><g id="Capa_1-2" data-name="Capa 1"><circle class="cls-1" cx="77.85" cy="49.24" r="49.24"/><path class="cls-1" d="M155.41,141.27a52.2,52.2,0,0,0-43.46-40.66l-.66-.09-.4-.06-.33.24-.54.39a54.49,54.49,0,0,1-64.19.2l-.54-.39-.33-.24-.4,0-.65.09A51.82,51.82,0,0,0,.24,141.27a10.94,10.94,0,0,0,2.23,9.19,11.31,11.31,0,0,0,8.83,4.22h133a11.31,11.31,0,0,0,8.82-4.21A10.92,10.92,0,0,0,155.41,141.27Z"/></g></g></svg>