<svg xmlns="http://www.w3.org/2000/svg" viewBox="0 0 243.64 146.35"><defs><style>.cls-1{fill:#fff;}</style></defs><title>academiaRecurso 1</title><g id="Capa_2" data-name="Capa 2"><g id="Capa_1-2" data-name="Capa 1"><path class="cls-1" d="M141,91.3a66.56,66.56,0,0,1-19.3,2.6,70.27,70.27,0,0,1-19.3-2.7L44.13,73.8l-1.3-.4v41.9A18.42,18.42,0,0,0,56,132.9l24.6,7.3a147.52,147.52,0,0,0,84.3,0l24.6-7.3a18.33,18.33,0,0,0,13.2-17.6V72.9l-1.3.4Z"/><path class="cls-1" d="M236.93,50.6a9.94,9.94,0,0,0,6.7-9.7,9.63,9.63,0,0,0-7-9.2l-99-29.3A53.12,53.12,0,0,0,121.83,0a54.43,54.43,0,0,0-16,2.4L6.93,31.8a9.84,9.84,0,0,0,0,18.8L106,79.9a53.28,53.28,0,0,0,15.9,2.4,54.43,54.43,0,0,0,16-2.4l84.8-25.1,1-.3V79.9a6.8,6.8,0,0,0-3.6,5.7v7.2a6.31,6.31,0,0,0,3.9,6l-6.3,14.7a3.27,3.27,0,0,0,1.5,4.2,2.28,2.28,0,0,0,1.1.3l6.6.6h3.9l6.6-.6a3.39,3.39,0,0,0,2.8-3.89h0a4.33,4.33,0,0,0-.1-.5l-6.3-14.7a6.56,6.56,0,0,0,3.9-6V85.7a6.8,6.8,0,0,0-3.6-5.7V51.7Z"/></g></g></svg>