<svg xmlns="http://www.w3.org/2000/svg" viewBox="0 0 159 125.3"><defs><style>.cls-1{fill:#fff;}</style></defs><title>revistaRecurso 1</title><g id="Capa_2" data-name="Capa 2"><g id="Capa_1-2" data-name="Capa 1"><path class="cls-1" d="M142.7,0H102.5c-12,0-19.7,4.4-23,6.9C76.2,4.5,68.5,0,56.5,0H16.3A16.3,16.3,0,0,0,0,16.3v88a16.22,16.22,0,0,0,16.24,16.2H56.5a35.54,35.54,0,0,1,15.1,3.1,19.21,19.21,0,0,0,15.8,0,35.85,35.85,0,0,1,15.1-3.1h40.2A16.3,16.3,0,0,0,159,104.2v-88A16.28,16.28,0,0,0,142.7,0ZM68.8,86.5a4.23,4.23,0,0,1-4.2,4.2H25.2A4.23,4.23,0,0,1,21,86.5V80.7a4.23,4.23,0,0,1,4.2-4.2H64.68a4.16,4.16,0,0,1,4.12,4.2Zm0-23.4a4.23,4.23,0,0,1-4.2,4.2H25.2A4.23,4.23,0,0,1,21,63.1V57.3a4.23,4.23,0,0,1,4.2-4.2H64.68a4.16,4.16,0,0,1,4.12,4.2Zm0-22.8a4.23,4.23,0,0,1-4.2,4.2H25.2A4.23,4.23,0,0,1,21,40.3V34.4a4.23,4.23,0,0,1,4.2-4.2H64.68a4.16,4.16,0,0,1,4.12,4.2Zm21.5-5.9a4.23,4.23,0,0,1,4.2-4.2h39.4a4.23,4.23,0,0,1,4.2,4.2v5.9a4.23,4.23,0,0,1-4.2,4.2H94.5a4.29,4.29,0,0,1-4.2-4.2Zm0,22.9a4.23,4.23,0,0,1,4.2-4.2h39.4a4.23,4.23,0,0,1,4.2,4.2v5.8a4.23,4.23,0,0,1-4.2,4.2H94.5a4.22,4.22,0,0,1-4.2-4.2Zm47.8,29.2s0,.05,0,.08a4.16,4.16,0,0,1-4.2,4.12H94.5a4.23,4.23,0,0,1-4.2-4.2V80.7a4.23,4.23,0,0,1,4.2-4.2h39.4a4.23,4.23,0,0,1,4.2,4.2Z"/></g></g></svg>